<?xml version="1.0" encoding="UTF-8"?>
<svg id="Layer_1" data-name="Layer 1" xmlns="http://www.w3.org/2000/svg" viewBox="0 0 120 90">
  <defs>
    <style>
      .cls-1 {
        fill: none;
        stroke: #7a7a7a;
        stroke-linecap: round;
        stroke-miterlimit: 10;
        stroke-width: 8px;
      }

      .cls-2 {
        fill: #632d00;
      }

      .cls-3 {
        fill: #512300;
      }
    </style>
  </defs>
  <polygon class="cls-2" points="44.11 52.64 25.8 33.37 39.68 21.73 57.98 41 44.11 52.64"/>
  <polygon class="cls-2" points="55.03 56.33 43.07 43.73 57.23 31.85 69.19 44.45 55.03 56.33"/>
  <ellipse class="cls-2" cx="22.86" cy="17.09" rx="11.32" ry="12.46" transform="translate(-3 29.15) rotate(-61.78)"/>
  <path class="cls-2" d="M57.2,51.63L20.17,26.81c-1.59-1.06-1.96-3.13-.83-4.62l6.92-9.14c1.13-1.49,3.33-1.83,4.91-.77l37.03,24.82c1.59,1.06,1.96,3.13,.83,4.62l-6.92,9.14c-1.13,1.49-3.33,1.83-4.91,.77Z"/>
  <path class="cls-2" d="M58.68,61.78l-7.11-7.49c-2.31-2.43-2.08-6.15,.5-8.32l34.09-28.6c2.58-2.17,6.55-1.96,8.85,.47l7.11,7.49c2.31,2.43,2.08,6.15-.5,8.32l-34.09,28.6c-2.58,2.17-6.55,1.96-8.85-.47Z"/>
  <path class="cls-2" d="M81.6,43.58l-2.26-10.17c-.4-1.79-2.27-2.94-4.17-2.57l-16.83,3.27c-1.9,.37-3.12,2.12-2.73,3.91l2.26,10.17c.4,1.79,2.27,2.94,4.17,2.57l16.83-3.27c1.9-.37,3.12-2.12,2.73-3.91Z"/>
  <path class="cls-2" d="M80.08,48.42l-44.15-10.12c-1.89-.43-3.06-2.23-2.6-4l2.8-10.91c.46-1.78,2.36-2.87,4.25-2.43l44.15,10.12c1.89,.43,3.06,2.23,2.6,4l-2.8,10.91c-.46,1.78-2.36,2.87-4.25,2.43Z"/>
  <path class="cls-2" d="M64.86,68.29l-4.88-5.14c-2.31-2.43-2.08-6.15,.5-8.32l34.09-28.6c2.58-2.17,6.55-1.96,8.85,.47l4.88,5.14c2.31,2.43,2.08,6.15-.5,8.32l-34.09,28.6c-2.58,2.17-6.55,1.96-8.85-.47Z"/>
  <path class="cls-2" d="M66.9,75.48l-1.06-1.11c-3.46-3.64-3.12-9.24,.75-12.49l2.5-2.1c3.88-3.25,9.83-2.94,13.29,.71l1.06,1.11c3.46,3.64,3.12,9.24-.75,12.49l-2.5,2.1c-3.88,3.25-9.83,2.94-13.29-.71Z"/>
  <path class="cls-2" d="M80.59,71.06l-5.74-3.56c-2.01-1.25-2.57-3.79-1.25-5.68l17.14-24.5c1.32-1.89,4.02-2.41,6.03-1.16l5.74,3.56c2.01,1.25,2.57,3.79,1.25,5.68l-17.14,24.5c-1.32,1.89-4.02,2.41-6.03,1.16Z"/>
  <path class="cls-2" d="M85.89,57.96l-1.56-1.64c-1.63-1.71-1.47-4.35,.35-5.88l19.68-16.51c1.82-1.53,4.62-1.38,6.25,.33l1.56,1.64c1.63,1.71,1.47,4.35-.35,5.88l-19.68,16.51c-1.82,1.53-4.62,1.38-6.25-.33Z"/>
  <path d="M34.62,47.26L8.01,19.24c-1.15-1.21-1.04-3.07,.25-4.15l.04-.03c1.29-1.08,3.27-.98,4.42,.24l26.61,28.02c1.15,1.21,1.04,3.07-.25,4.15l-.04,.03c-1.29,1.08-3.27,.98-4.42-.24Z"/>
  <path d="M50.21,57.54l-14.12-8.75c-1.05-.65-1.34-1.97-.65-2.95l1.07-1.54c.69-.98,2.09-1.25,3.14-.6l14.12,8.75c1.05,.65,1.34,1.97,.65,2.95l-1.07,1.54c-.69,.98-2.09,1.25-3.14,.6Z"/>
  <path d="M71.86,80.06l-21.91-23.07c-.94-.99-.84-2.5,.2-3.38l.79-.66c1.05-.88,2.66-.79,3.59,.19l21.91,23.07c.94,.99,.84,2.5-.2,3.38l-.79,.66c-1.05,.88-2.66,.79-3.59-.19Z"/>
  <path d="M67.76,83.02l-15.72-16.56c-1.08-1.13-.97-2.87,.23-3.88l1.81-1.52c1.21-1.01,3.05-.91,4.13,.22l15.72,16.56c1.08,1.13,.97,2.87-.23,3.88l-1.81,1.52c-1.21,1.01-3.05,.91-4.13-.22Z"/>
  <path d="M8.52,21.49l-1.42-1.5c-.87-.91-.78-2.31,.19-3.13l.79-.66c.97-.81,2.46-.74,3.33,.18l1.42,1.5c.87,.91,.78,2.31-.19,3.13l-.79,.66c-.97,.81-2.46,.74-3.33-.18Z"/>
  <path d="M13.85,27.1l-1.42-1.5c-.87-.91-.78-2.31,.19-3.13l.79-.66c.97-.81,2.46-.74,3.33,.18l1.42,1.5c.87,.91,.78,2.31-.19,3.13l-.79,.66c-.97,.81-2.46,.74-3.33-.18Z"/>
  <path d="M19.47,33.03l-1.42-1.5c-.87-.91-.78-2.31,.19-3.13l.79-.66c.97-.81,2.46-.74,3.33,.18l1.42,1.5c.87,.91,.78,2.31-.19,3.13l-.79,.66c-.97,.81-2.46,.74-3.33-.18Z"/>
  <path d="M24.9,38.74l-1.42-1.5c-.87-.91-.78-2.31,.19-3.13l.79-.66c.97-.81,2.46-.74,3.33,.18l1.42,1.5c.87,.91,.78,2.31-.19,3.13l-.79,.66c-.97,.81-2.46,.74-3.33-.18Z"/>
  <path d="M62.78,79.28l-1.42-1.5c-.87-.91-.78-2.31,.19-3.13l.79-.66c.97-.81,2.46-.74,3.33,.18l1.42,1.5c.87,.91,.78,2.31-.19,3.13l-.79,.66c-.97,.81-2.46,.74-3.33-.18Z"/>
  <path d="M35.19,49.58l-1.42-1.5c-.87-.91-.78-2.31,.19-3.13l.79-.66c.97-.81,2.46-.74,3.33,.18l1.42,1.5c.87,.91,.78,2.31-.19,3.13l-.79,.66c-.97,.81-2.46,.74-3.33-.18Z"/>
  <path d="M30.07,44.18l-1.42-1.5c-.87-.91-.78-2.31,.19-3.13l.79-.66c.97-.81,2.46-.74,3.33,.18l1.42,1.5c.87,.91,.78,2.31-.19,3.13l-.79,.66c-.97,.81-2.46,.74-3.33-.18Z"/>
  <path d="M57.76,74l-1.42-1.5c-.87-.91-.78-2.31,.19-3.13l.79-.66c.97-.81,2.46-.74,3.33,.18l1.42,1.5c.87,.91,.78,2.31-.19,3.13l-.79,.66c-.97,.81-2.46,.74-3.33-.18Z"/>
  <path d="M52.69,68.66l-1.42-1.5c-.87-.91-.78-2.31,.19-3.13l.79-.66c.97-.81,2.46-.74,3.33,.18l1.42,1.5c.87,.91,.78,2.31-.19,3.13l-.79,.66c-.97,.81-2.46,.74-3.33-.18Z"/>
  <path d="M67.55,84.3l-1.42-1.5c-.87-.91-.78-2.31,.19-3.13l.79-.66c.97-.81,2.46-.74,3.33,.18l1.42,1.5c.87,.91,.78,2.31-.19,3.13l-.79,.66c-.97,.81-2.46,.74-3.33-.18Z"/>
  <path class="cls-2" d="M72.64,29.52l-.65-.18c-.47-.13-.73-.59-.6-1.03l1.99-6.38c.14-.44,.62-.69,1.09-.56l.65,.18c.47,.13,.73,.59,.6,1.03l-1.99,6.38c-.14,.44-.62,.69-1.09,.56Z"/>
  <path class="cls-2" d="M74.93,22.64l-.67,.09c-.48,.07-.93-.25-1-.7l-1.33-8.26c-.07-.45,.26-.87,.74-.94l.67-.09c.48-.07,.93,.25,1,.7l1.33,8.26c.07,.45-.26,.87-.74,.94Z"/>
  <path class="cls-2" d="M73.73,14.22h0c-.56,.35-1.31,.21-1.68-.32l-3.15-4.45c-.37-.52-.22-1.23,.34-1.58h0c.56-.35,1.31-.21,1.68,.32l3.15,4.45c.37,.52,.22,1.23-.34,1.58Z"/>
  <path class="cls-3" d="M66.83,51.43l-.67,.09c-.48,.07-.93-.25-1-.7l-.85-5.27c-.07-.45,.26-.87,.74-.94l.67-.09c.48-.07,.93,.25,1,.7l.85,5.27c.07,.45-.26,.87-.74,.94Z"/>
  <path class="cls-3" d="M65.29,46.7l-.65-.18c-.47-.13-.73-.59-.6-1.03l1.59-5.11c.14-.44,.62-.69,1.09-.56l.65,.18c.47,.13,.73,.59,.6,1.03l-1.59,5.11c-.14,.44-.62,.69-1.09,.56Z"/>
  <path class="cls-3" d="M65.96,41.49h0c-.45-.48-.4-1.2,.1-1.62l3.72-3.12c.5-.42,1.27-.38,1.71,.09h0c.45,.48,.4,1.2-.1,1.62l-3.72,3.12c-.5,.42-1.27,.38-1.71-.09Z"/>
  <ellipse class="cls-1" cx="47.66" cy="27.1" rx="1.45" ry="1.54" transform="translate(19.51 74.15) rotate(-88.73)"/>
  <path class="cls-3" d="M63.55,55.46l-.58-.32c-.42-.23-.57-.73-.33-1.13l2.81-4.61c.24-.4,.78-.53,1.2-.3l.58,.32c.42,.23,.57,.73,.33,1.13l-2.81,4.61c-.24,.4-.78,.53-1.2,.3Z"/>
  <ellipse class="cls-1" cx="80.82" cy="25.95" rx="1.45" ry="1.54" transform="translate(53.09 106.17) rotate(-88.73)"/>
  <ellipse class="cls-1" cx="77.02" cy="29.13" rx="1.45" ry="1.54" transform="translate(46.2 105.49) rotate(-88.73)"/>
  <ellipse class="cls-1" cx="72.35" cy="32.67" rx="1.45" ry="1.54" transform="translate(38.08 104.28) rotate(-88.73)"/>
  <ellipse class="cls-1" cx="68.48" cy="31.6" rx="1.45" ry="1.54" transform="translate(35.37 99.36) rotate(-88.73)"/>
  <ellipse class="cls-1" cx="64.28" cy="30.71" rx="1.45" ry="1.54" transform="translate(32.15 94.3) rotate(-88.73)"/>
  <ellipse class="cls-1" cx="60.11" cy="30.08" rx="1.45" ry="1.54" transform="translate(28.71 89.52) rotate(-88.73)"/>
  <ellipse class="cls-1" cx="55.91" cy="29.29" rx="1.45" ry="1.54" transform="translate(25.39 84.54) rotate(-88.73)"/>
  <ellipse class="cls-1" cx="51.82" cy="28.31" rx="1.45" ry="1.54" transform="translate(22.37 79.49) rotate(-88.73)"/>
  <path class="cls-3" d="M47.82,27.76l-.65-.18c-.47-.13-.73-.59-.6-1.03l1.28-4.11c.14-.44,.62-.69,1.09-.56l.65,.18c.47,.13,.73,.59,.6,1.03l-1.28,4.11c-.14,.44-.62,.69-1.09,.56Z"/>
  <path class="cls-3" d="M51.96,28.95l-.65-.18c-.47-.13-.73-.59-.6-1.03l1.28-4.11c.14-.44,.62-.69,1.09-.56l.65,.18c.47,.13,.73,.59,.6,1.03l-1.28,4.11c-.14,.44-.62,.69-1.09,.56Z"/>
  <path class="cls-3" d="M56.05,30.03l-.65-.18c-.47-.13-.73-.59-.6-1.03l1.28-4.11c.14-.44,.62-.69,1.09-.56l.65,.18c.47,.13,.73,.59,.6,1.03l-1.28,4.11c-.14,.44-.62,.69-1.09,.56Z"/>
  <path class="cls-3" d="M60.25,30.82l-.65-.18c-.47-.13-.73-.59-.6-1.03l1.28-4.11c.14-.44,.62-.69,1.09-.56l.65,.18c.47,.13,.73,.59,.6,1.03l-1.28,4.11c-.14,.44-.62,.69-1.09,.56Z"/>
  <path class="cls-3" d="M64.29,31.75l-.65-.18c-.47-.13-.73-.59-.6-1.03l1.28-4.11c.14-.44,.62-.69,1.09-.56l.65,.18c.47,.13,.73,.59,.6,1.03l-1.28,4.11c-.14,.44-.62,.69-1.09,.56Z"/>
  <path class="cls-3" d="M68.39,32.53l-.65-.18c-.47-.13-.73-.59-.6-1.03l1.28-4.11c.14-.44,.62-.69,1.09-.56l.65,.18c.47,.13,.73,.59,.6,1.03l-1.28,4.11c-.14,.44-.62,.69-1.09,.56Z"/>
  <path class="cls-3" d="M70.86,38.39l-.65-.18c-.47-.13-.73-.59-.6-1.03l1.59-5.11c.14-.44,.62-.69,1.09-.56l.65,.18c.47,.13,.73,.59,.6,1.03l-1.59,5.11c-.14,.44-.62,.69-1.09,.56Z"/>
</svg>