<?xml version="1.0" encoding="UTF-8"?>
<svg id="Layer_1" data-name="Layer 1" xmlns="http://www.w3.org/2000/svg" viewBox="0 0 155 115">
  <defs>
    <style>
      .cls-1, .cls-2 {
        stroke: #ee6c4d;
        stroke-miterlimit: 10;
        stroke-width: 5px;
      }

      .cls-2 {
        fill: none;
      }
    </style>
  </defs>
  <path class="cls-1" d="M90.06,68.02c-.43,.03-.85,.04-1.27,.02l.3-.29c.11,.04,.22,.07,.33,.1l.64,.17Z"/>
  <g>
    <path class="cls-2" d="M147.93,79.16c-.97,.51-2.07,.76-3.25,.76-4.33,0-9.66-3.3-13.2-8.57l-2.01-2.99c-.26,1-.67,1.93-1.23,2.77,.16,.53,.22,1.09,.17,1.68l-2.67,31.06c-.47,5.46-8.45,5.46-8.92,0l-1.94-22.54-1.95,22.63c-.47,5.44-8.42,5.44-8.89,0l-2.69-31.17c-.05-.59,.02-1.15,.18-1.68l-11.47-3.09-.64-.17c-.11-.03-.22-.06-.33-.1l-.3,.29-3.25,3.18c-1.78,1.74-3.85,2.83-6,3.34,0,.01,0,.01-.02,.01-2.77,1.19-5.82,1.85-9.02,1.85h-4.88l-2.56,29.01c-.46,5.18-8.03,5.18-8.49,0l-1.37-15.52-1.32,14.95c-.46,5.23-8.12,5.23-8.58,0l-2.43-27.6c-3.31-1.52-6.72-4.09-9.76-7.59-7.83-9-10.3-20.69-5.53-26.14-.04-.02-.08-.04-.12-.07-1.2,1.15-2.96,1.67-4.69,1.21l-1.27-.35c-5.27-1.41-8.42-6.88-7-12.15l2.55-9.5c-1.65-.5-3.05-1.77-3.63-3.55l-3.86,1.75c-1.51,.69-3.03-.94-2.23-2.4l4.9-8.94,.51-.94c.04-.07,.08-.13,.11-.19,0,0,.01,0,.02-.02,1.88-2.56,5.92-3.36,8.56-.52l3.84,4.13c.78,.85,1.25,1.87,1.4,2.92l2.31,.62c.31-.36,.78-.59,1.3-.59h1.49c.33,0,.64,.09,.9,.25l2.13-.82c.31-.12,.63-.21,.95-.26,.25-.35,.58-.66,.97-.91l13.29-8.34c3-1.88,6.57,1.41,4.93,4.55l-7.61,14.6c-.6,1.14-1.7,1.78-2.84,1.85l1.89,4.9c1.35-.26,2.75-.39,4.17-.39h21.95c.14,0,.27,0,.41,.01,1.54-.3,3.17-.32,4.84,0l13.43,2.53,19.68-2.45c7.13-.89,13.8,2.66,17.23,8.48l21.88,32.57c2.07,3.1,2.06,6.54-.04,7.65Z"/>
    <path class="cls-1" d="M10.85,8.4c-.03,.06-.07,.12-.11,.19l-.51,.94c.15-.4,.37-.78,.62-1.13Z"/>
  </g>
</svg>