<?xml version="1.0" encoding="UTF-8"?>
<svg id="Layer_1" data-name="Layer 1" xmlns="http://www.w3.org/2000/svg" viewBox="0 0 145 140">
  <defs>
    <style>
      .cls-1 {
        fill: #fff;
      }

      .cls-2 {
        fill: #ffd6a1;
      }

      .cls-3 {
        fill: #ff8de4;
      }

      .cls-4 {
        fill: #474747;
      }

      .cls-5 {
        fill: #edeceb;
      }
    </style>
  </defs>
  <path d="M80.64,109.31l23.37,22.19c.41,.39,.41,1.03,.02,1.42l-4.12,4.09c-.4,.4-1.06,.4-1.47,.02l-23.37-22.19c-.41-.39-.41-1.03-.02-1.42l4.12-4.09c.4-.4,1.06-.4,1.47-.02Z"/>
  <path d="M29.14,78.52l9.29,30.43c.16,.53-.15,1.09-.7,1.25l-5.64,1.63c-.55,.16-1.13-.15-1.29-.68l-9.29-30.43c-.16-.53,.15-1.09,.7-1.25l5.64-1.63c.55-.16,1.13,.15,1.29,.68Z"/>
  <ellipse class="cls-5" cx="73.91" cy="63.27" rx="53.28" ry="63" transform="translate(-18.15 94.74) rotate(-59.44)"/>
  <ellipse class="cls-2" cx="33.08" cy="31.54" rx="27.6" ry="23.62" transform="translate(-12.57 33.84) rotate(-46.52)"/>
  <path d="M72.67,21.11l-21.8-3.18c-2.13-.31-3.65-2.22-3.38-4.25h0c.27-2.03,2.23-3.43,4.35-3.12l21.8,3.18c2.13,.31,3.65,2.22,3.38,4.25h0c-.27,2.03-2.23,3.43-4.35,3.12Z"/>
  <path d="M75.31,32.75l-21.24-5.43c-2.07-.53-3.28-2.57-2.68-4.54h0c.6-1.97,2.78-3.15,4.85-2.62l21.24,5.43c2.07,.53,3.28,2.57,2.68,4.54h0c-.6,1.97-2.78,3.15-4.85,2.62Z"/>
  <ellipse class="cls-5" cx="45.93" cy="14.4" rx="10.19" ry="16.97" transform="translate(7.99 44.03) rotate(-55.4)"/>
  <ellipse class="cls-1" cx="42.22" cy="33.3" rx="6.32" ry="5.8" transform="translate(-11.51 35.52) rotate(-40.63)"/>
  <ellipse cx="45.62" cy="33.66" rx="2.96" ry="2.85" transform="translate(-1.02 1.43) rotate(-1.78)"/>
  <ellipse cx="20.22" cy="42.8" rx="2.96" ry="2.85" transform="translate(-1.32 .65) rotate(-1.78)"/>
  <ellipse class="cls-1" cx="30.03" cy="24.52" rx="6.32" ry="5.8" transform="translate(-8.73 25.47) rotate(-40.63)"/>
  <path d="M32.47,77.01l23.12,22.37c.4,.39,.4,1.03,0,1.42l-4.17,4.05c-.4,.39-1.06,.39-1.47,0l-23.12-22.37c-.4-.39-.4-1.03,0-1.42l4.17-4.05c.4-.39,1.06-.39,1.47,0Z"/>
  <path d="M87.51,104.59l28.52,16.94c.31,.18,.4,.57,.21,.87l-3.51,5.51c-.19,.29-.59,.39-.89,.21l-28.52-16.94c-.31-.18-.4-.57-.21-.87l3.51-5.51c.19-.29,.59-.39,.89-.21Z"/>
  <ellipse class="cls-5" cx="131.47" cy="101.15" rx="7.52" ry="7.03" transform="translate(-34.4 100.05) rotate(-37.19)"/>
  <ellipse cx="26.56" cy="23.49" rx="2.96" ry="2.85" transform="translate(-.72 .84) rotate(-1.78)"/>
  <ellipse cx="31.27" cy="57.97" rx="8.51" ry="6.75" transform="translate(-32.92 43.21) rotate(-48.71)"/>
  <ellipse cx="26.14" cy="47.07" rx="2.96" ry="2.85" transform="translate(-1.45 .83) rotate(-1.78)"/>
  <path class="cls-3" d="M32.57,56.63h0c.08-1.06,1.05-1.84,2.16-1.74l7.88,.73c1.11,.1,1.96,1.06,1.88,2.12h0c-.08,1.06-1.05,1.84-2.16,1.74l-7.88-.73c-1.11-.1-1.96-1.06-1.88-2.12Z"/>
  <path class="cls-3" d="M47.43,63.04h0c-.23-1.05,.48-2.06,1.57-2.25l7.73-1.36c1.09-.19,2.17,.51,2.4,1.56h0c.23,1.05-.48,2.06-1.57,2.25l-7.73,1.36c-1.09,.19-2.17-.51-2.4-1.56Z"/>
  <path class="cls-3" d="M41.22,56.72h0c.74-.78,2.03-.82,2.86-.09l5.9,5.16c.83,.73,.91,1.96,.17,2.74h0c-.74,.78-2.03,.82-2.86,.09l-5.9-5.16c-.83-.73-.91-1.96-.17-2.74Z"/>
  <path class="cls-4" d="M87.03,104.71l29.11,17.29c.14,.09,.19,.27,.1,.41l-1.64,2.59c-.09,.14-.28,.18-.42,.1l-29.11-17.29c-.14-.09-.19-.27-.1-.41l1.64-2.59c.09-.14,.28-.18,.42-.1Z"/>
  <path class="cls-4" d="M31.73,76.84l23.8,23.21c.19,.18,.19,.48,0,.67l-1.96,1.89c-.19,.18-.5,.18-.69,0l-23.8-23.21c-.19-.18-.19-.48,0-.67l1.96-1.89c.19-.18,.5-.18,.69,0Z"/>
  <path class="cls-4" d="M62.73,23.7l14.59,3.56c.97,.24,1.54,1.18,1.27,2.1l-.6,2.05c-.27,.92-1.27,1.48-2.24,1.24l-14.59-3.56c-.97-.24-1.54-1.18-1.27-2.1l.6-2.05c.27-.92,1.27-1.48,2.24-1.24Z"/>
</svg>