<?xml version="1.0" encoding="UTF-8"?>
<svg id="Layer_5" data-name="Layer 5" xmlns="http://www.w3.org/2000/svg" viewBox="0 0 1250 830">
  <defs>
    <style>
      .cls-1 {
        fill: #fff;
      }

      .cls-2 {
        fill: #ee6c4d;
      }

      .cls-3 {
        fill: #3dbfc9;
      }

      .cls-4 {
        fill: #ff7300;
      }

      .cls-5 {
        fill: #ffd6a1;
      }

      .cls-6 {
        fill: #fbd1a2;
      }

      .cls-7 {
        fill: #05f;
      }

      .cls-8 {
        fill: #319aa0;
      }

      .cls-9 {
        fill: #a05300;
      }

      .cls-10 {
        fill: #824401;
      }

      .cls-11 {
        fill: #ffe3c5;
      }

      .cls-12 {
        fill: #d3d3d3;
      }

      .cls-13 {
        fill: #7a3f00;
      }

      .cls-14 {
        fill: #f28d61;
      }

      .cls-15 {
        fill: #ff55af;
      }

      .cls-16 {
        fill: #3d7eff;
      }

      .cls-17 {
        fill: #ff8929;
      }

      .cls-18 {
        fill: #247577;
      }
    </style>
  </defs>
  <g>
    <rect class="cls-2" x="17.81" y="51.89" width="1177" height="766" rx="226.82" ry="226.82"/>
    <rect class="cls-14" x="33.81" y="29.89" width="1177" height="766" rx="226.82" ry="226.82"/>
    <rect class="cls-6" x="55.81" y="12.89" width="1177" height="766" rx="226.82" ry="226.82"/>
  </g>
  <g>
    <rect class="cls-11" x="170.28" y="347.4" width="22.72" height="35.42" rx="10.95" ry="10.95" transform="translate(-117.19 87.62) rotate(-20.67)"/>
    <ellipse class="cls-1" cx="228.84" cy="413.16" rx="39.21" ry="39.48"/>
    <ellipse class="cls-5" cx="262.56" cy="337.56" rx="6.96" ry="9.11"/>
    <ellipse class="cls-5" cx="192.93" cy="338.91" rx="6.96" ry="9.11"/>
    <path class="cls-5" d="M230.41,389.27h0c-12.07,.13-23.96-9.73-26.8-23.99l-4.3-21.6c-4.44-22.3,7.32-44.93,27.12-44.93h0c19.71,0,33.3,22.45,30.86,44.62l-2.36,21.5c-1.56,14.22-12.48,24.27-24.51,24.4Z"/>
    <rect class="cls-9" x="165.44" y="314.28" width="125.34" height="7.42" rx="3.59" ry="3.59"/>
    <path class="cls-9" d="M207.1,288.43h55.74v29.62h-54.45c-8.53,0-15.46-6.93-15.46-15.46h0c0-7.82,6.35-14.17,14.17-14.17Z"/>
    <ellipse cx="215.34" cy="335.59" rx="5.44" ry="4.78"/>
    <ellipse cx="240.58" cy="335.75" rx="5.44" ry="4.78"/>
    <rect class="cls-4" x="251.93" y="320.35" width="10.99" height="18.9" rx="5.3" ry="5.3"/>
    <rect class="cls-4" x="191.83" y="319" width="10.99" height="18.9" rx="5.3" ry="5.3"/>
    <path class="cls-4" d="M221.77,326.23l-12.04,2.97c-.97,.24-1.98-.3-2.24-1.19h0c-.26-.9,.32-1.83,1.3-2.07l12.04-2.97c.97-.24,1.98,.3,2.24,1.19h0c.26,.9-.32,1.83-1.3,2.07Z"/>
    <path class="cls-4" d="M246.48,329.2l-12.04-2.97c-.97-.24-1.56-1.17-1.3-2.07h0c.26-.9,1.27-1.43,2.24-1.19l12.04,2.97c.97,.24,1.56,1.17,1.3,2.07h0c-.26,.9-1.27,1.43-2.24,1.19Z"/>
    <ellipse class="cls-12" cx="228.84" cy="407.08" rx="39.21" ry="33.41"/>
    <rect class="cls-4" x="202.82" y="347.35" width="52.04" height="51.97" rx="25.07" ry="25.07"/>
    <rect class="cls-15" x="220.41" y="338.58" width="14.66" height="18.22" rx="7.06" ry="7.06"/>
    <ellipse class="cls-1" cx="228.84" cy="361.86" rx="9.16" ry="5.06"/>
    <rect class="cls-11" x="265.92" y="347.81" width="22.72" height="35.42" rx="10.95" ry="10.95" transform="translate(168.72 -80.24) rotate(23.5)"/>
    <ellipse class="cls-7" cx="229.57" cy="463.44" rx="50.94" ry="53.32"/>
    <rect class="cls-7" x="188.89" y="385.15" width="13.93" height="54" rx="6.71" ry="6.71"/>
    <rect class="cls-7" x="254.86" y="385.15" width="13.93" height="54" rx="6.71" ry="6.71"/>
    <rect class="cls-7" x="189.63" y="491.11" width="38.85" height="82.34" rx="12" ry="12"/>
    <rect class="cls-7" x="229.21" y="491.11" width="39.58" height="82.34" rx="12" ry="12"/>
    <rect class="cls-9" x="189.63" y="559.28" width="38.11" height="39.15" rx="12" ry="12"/>
    <rect class="cls-9" x="229.94" y="559.28" width="38.11" height="39.15" rx="12" ry="12"/>
    <rect class="cls-9" x="163.97" y="573.46" width="51.31" height="24.97" rx="12" ry="12"/>
    <rect class="cls-9" x="242.4" y="573.46" width="51.31" height="24.97" rx="12" ry="12"/>
    <ellipse class="cls-1" cx="228.84" cy="413.16" rx="39.21" ry="39.48"/>
    <ellipse class="cls-11" cx="262.56" cy="337.56" rx="6.96" ry="9.11"/>
    <ellipse class="cls-11" cx="192.93" cy="338.91" rx="6.96" ry="9.11"/>
    <path class="cls-11" d="M230.41,389.27h0c-12.07,.13-23.96-9.73-26.8-23.99l-4.3-21.6c-4.44-22.3,7.32-44.93,27.12-44.93h0c19.71,0,33.3,22.45,30.86,44.62l-2.36,21.5c-1.56,14.22-12.48,24.27-24.51,24.4Z"/>
    <rect class="cls-9" x="165.44" y="314.28" width="125.34" height="7.42" rx="3.59" ry="3.59"/>
    <path class="cls-9" d="M207.1,288.43h55.74v29.62h-54.45c-8.53,0-15.46-6.93-15.46-15.46h0c0-7.82,6.35-14.17,14.17-14.17Z"/>
    <ellipse cx="215.34" cy="335.59" rx="5.44" ry="4.78"/>
    <ellipse cx="240.58" cy="335.75" rx="5.44" ry="4.78"/>
    <rect class="cls-4" x="251.93" y="320.35" width="10.99" height="18.9" rx="5.3" ry="5.3"/>
    <rect class="cls-4" x="191.83" y="319" width="10.99" height="18.9" rx="5.3" ry="5.3"/>
    <path class="cls-4" d="M221.52,325.91l-12.4-.25c-1-.02-1.84-.8-1.86-1.73h0c-.02-.93,.78-1.68,1.79-1.66l12.4,.25c1,.02,1.84,.8,1.86,1.73h0c.02,.93-.78,1.68-1.79,1.66Z"/>
    <path class="cls-4" d="M246.93,326.21l-12.37-.87c-1-.07-1.73-.89-1.63-1.82h0c.1-.93,1.01-1.63,2.01-1.56l12.37,.87c1,.07,1.73,.89,1.63,1.82h0c-.1,.93-1.01,1.63-2.01,1.56Z"/>
    <ellipse class="cls-12" cx="228.84" cy="407.08" rx="39.21" ry="33.41"/>
    <rect class="cls-4" x="202.82" y="347.35" width="52.04" height="51.97" rx="25.07" ry="25.07"/>
    <rect class="cls-15" x="220.41" y="338.58" width="14.66" height="18.22" rx="7.06" ry="7.06"/>
    <ellipse class="cls-7" cx="229.57" cy="463.44" rx="50.94" ry="53.32"/>
    <path class="cls-12" d="M190.01,367.15h4.73c3.61,0,6.55,2.93,6.55,6.55v22c0,3.61-2.93,6.55-6.55,6.55h-11.09c-3.61,0-6.55-2.93-6.55-6.55v-15.64c0-7.12,5.78-12.91,12.91-12.91Z" transform="translate(516.96 661.03) rotate(156.32)"/>
    <rect class="cls-7" x="188.89" y="385.15" width="13.93" height="54" rx="6.71" ry="6.71"/>
    <path class="cls-12" d="M265.4,367.15h.88c8.19,0,14.83,6.65,14.83,14.83v11.79c0,4.68-3.8,8.47-8.47,8.47h-7.24c-4.68,0-8.47-3.8-8.47-8.47v-18.15c0-4.68,3.8-8.47,8.47-8.47Z" transform="translate(362.35 844.75) rotate(-156.5)"/>
    <rect class="cls-7" x="254.86" y="385.15" width="13.93" height="54" rx="6.71" ry="6.71"/>
    <rect class="cls-7" x="189.63" y="491.11" width="38.85" height="82.34" rx="12" ry="12"/>
    <rect class="cls-7" x="229.21" y="491.11" width="39.58" height="82.34" rx="12" ry="12"/>
    <rect class="cls-9" x="189.63" y="559.28" width="38.11" height="39.15" rx="12" ry="12"/>
    <rect class="cls-9" x="229.94" y="559.28" width="38.11" height="39.15" rx="12" ry="12"/>
    <rect class="cls-9" x="163.97" y="573.46" width="51.31" height="24.97" rx="12" ry="12"/>
    <rect class="cls-9" x="242.4" y="573.46" width="51.31" height="24.97" rx="12" ry="12"/>
    <rect class="cls-16" x="252.58" y="503.27" width="13.83" height="58.23" rx="6.92" ry="6.92"/>
    <rect class="cls-13" x="259.44" y="288.45" width="6.8" height="59.21" rx="3.29" ry="3.29" transform="translate(-55.21 580.89) rotate(-90)"/>
    <rect class="cls-10" x="163.97" y="575.43" width="19.5" height="22" rx="8.69" ry="8.69" transform="translate(347.44 1172.86) rotate(180)"/>
    <rect class="cls-10" x="274.82" y="576.52" width="19.16" height="22.59" rx="8" ry="8" transform="translate(568.79 1175.62) rotate(180)"/>
    <rect class="cls-17" x="211.56" y="365.5" width="6.92" height="27.4" rx="3.46" ry="3.46" transform="translate(430.03 758.41) rotate(180)"/>
    <rect class="cls-17" x="229.78" y="369.59" width="6.92" height="27.4" rx="3.46" ry="3.46" transform="translate(466.47 766.59) rotate(180)"/>
    <rect class="cls-17" x="245.39" y="365.5" width="6.92" height="27.4" rx="3.46" ry="3.46" transform="translate(497.7 758.41) rotate(180)"/>
    <path class="cls-13" d="M248.85,318.15s0-20.78,0-20.78c0-.76,2.22-1.37,4.96-1.37,2.74,0,3.71,.62,3.71,1.37l6.25,20.09c.09,1.78-15.02,2.48-14.93,.69Z"/>
    <path class="cls-16" d="M280.93,457.39s3.47,6.42,3.47,6.42c.08,7.21-13.88,29.83-20.6,28.9-5.77,0-.87-12.52-.87-18.19l.87-14.91c-24-29.63,10.33-18.21,17.14-2.22Z"/>
    <rect class="cls-16" x="262.92" y="392.91" width="6.97" height="31.69" rx="3.48" ry="3.48"/>
    <path class="cls-1" d="M217.32,367.05c11.86-21.23,23.52-.39,23.52-.39"/>
    <rect class="cls-11" x="185.94" y="317.61" width="22.72" height="58.52" rx="10.95" ry="10.95" transform="translate(399.05 2.57) rotate(60)"/>
    <rect class="cls-11" x="245.28" y="318.84" width="22.72" height="58.52" rx="10.95" ry="10.95" transform="translate(683.36 277.75) rotate(117.04)"/>
  </g>
  <g>
    <g>
      <path class="cls-18" d="M327.96,166.93h26.14c5.63,9.88,8.44,20.31,8.44,31.27,0,12.75-3.3,23.46-9.89,32.13-6.6,8.67-14.71,13.01-24.35,13.01-12.52,0-23.14-6.73-31.88-20.18-8.74-13.45-13.1-29.84-13.1-49.15s4.45-35.51,13.34-48.39c8.89-12.88,20-19.32,33.33-19.32,4.55,0,9.59,1.31,15.13,3.92v38.83c-4.32-2.87-8.26-4.3-11.82-4.3-6.44,0-11.7,2.84-15.77,8.51-4.08,5.68-6.11,13.04-6.11,22.09s1.89,16.58,5.67,21.99c3.78,5.42,8.89,8.13,15.33,8.13,4.1,0,6.15-1.69,6.15-5.07,0-2.55-1.35-3.83-4.05-3.83h-6.55v-29.64Z"/>
      <path class="cls-18" d="M407.11,174.58v34.43h-7.9v31.08h-27.42v-83.01c0-16.07,3.09-28.54,9.29-37.44,6.19-8.89,14.89-13.34,26.1-13.34s18.8,4.03,23.97,12.1c5.18,8.07,7.77,20.51,7.77,37.34v84.34h-27.42v-81.76c0-5.1-.43-8.64-1.28-10.61-.86-1.98-2.39-2.96-4.59-2.96-4.28,0-6.42,4.53-6.42,13.58v16.26h7.9Z"/>
      <path class="cls-18" d="M453.64,240.09v-94.1c0-11.67,2.5-21.2,7.5-28.59,5-7.4,11.48-11.09,19.45-11.09,9.46,0,16.73,6.15,21.81,18.46,3.11-6.63,6.44-11.36,10-14.2,3.56-2.84,7.95-4.26,13.17-4.26,8.28,0,14.63,3.7,19.04,11.09,4.41,7.4,6.62,18.04,6.62,31.94v90.75h-27.42v-84.92c0-4.21-.24-7-.71-8.37-.47-1.37-1.43-2.06-2.87-2.06-2.7,0-4.05,3.25-4.05,9.75v85.59h-27.42v-84.92c0-4.14-.25-6.92-.74-8.32-.5-1.4-1.46-2.1-2.9-2.1-2.7,0-4.05,3.48-4.05,10.42v84.92h-27.42Z"/>
      <path class="cls-18" d="M617.01,160.34v29.07h-17.9c-2.43,0-4.15,.51-5.17,1.53-1.01,1.02-1.52,2.74-1.52,5.16,0,2.74,.52,4.54,1.55,5.4,1.04,.86,3.15,1.29,6.35,1.29h18.44v37.3h-21.54c-10.13,0-17.88-3.43-23.23-10.28-5.36-6.85-8.04-16.75-8.04-29.69v-51.16c0-12.49,2.53-22.19,7.6-29.07s12.19-10.33,21.38-10.33h23.84v37.49h-17.49c-4.73,0-7.09,2.17-7.09,6.5,0,2.55,.56,4.32,1.69,5.31,1.12,.99,3.13,1.48,6.01,1.48h15.13Z"/>
      <path class="cls-18" d="M712.77,106.31c13.06,0,24.26,6.73,33.6,20.18,9.34,13.45,14.01,29.55,14.01,48.29s-4.71,35.26-14.12,48.58c-9.41,13.33-20.85,19.99-34.31,19.99s-24.79-6.69-34.24-20.08c-9.46-13.39-14.18-29.55-14.18-48.48s4.76-35.32,14.28-48.58c9.52-13.26,21.17-19.89,34.95-19.89Zm-.81,38.44c-5.63,0-10.42,2.93-14.38,8.8-3.96,5.87-5.94,12.94-5.94,21.23s1.99,15.36,5.98,21.23c3.98,5.87,8.77,8.8,14.35,8.8s10.48-2.92,14.42-8.75c3.94-5.83,5.91-12.92,5.91-21.28s-1.97-15.44-5.91-21.28c-3.94-5.83-8.75-8.75-14.42-8.75Z"/>
      <path class="cls-18" d="M839.54,109.56l-40.18,137.99-39.91-137.99h31.74l8.44,40.74,9.32-40.74h30.59Z"/>
      <path class="cls-18" d="M894.71,160.34v29.07h-17.9c-2.43,0-4.15,.51-5.17,1.53-1.01,1.02-1.52,2.74-1.52,5.16,0,2.74,.52,4.54,1.55,5.4,1.04,.86,3.15,1.29,6.35,1.29h18.44v37.3h-21.54c-10.13,0-17.88-3.43-23.23-10.28-5.36-6.85-8.04-16.75-8.04-29.69v-51.16c0-12.49,2.53-22.19,7.6-29.07s12.19-10.33,21.38-10.33h23.84v37.49h-17.49c-4.73,0-7.09,2.17-7.09,6.5,0,2.55,.56,4.32,1.69,5.31,1.12,.99,3.13,1.48,6.01,1.48h15.13Z"/>
      <path class="cls-18" d="M939.62,144.65v95.44h-27.42V109.56h35.19c10.71,0,19.02,3.76,24.92,11.28,6.57,8.42,9.86,19.09,9.86,32.04s-4.08,24.32-12.22,33.37l15.8,53.84h-28.77l-13.3-42.08v-33.57h2.16c5.76,0,8.64-3.51,8.64-10.52,0-6.18-3.33-9.28-10-9.28h-4.86Z"/>
    </g>
    <g>
      <path class="cls-8" d="M340.08,155.74h26.14c5.63,9.88,8.44,20.31,8.44,31.27,0,12.75-3.3,23.46-9.89,32.13-6.6,8.67-14.71,13.01-24.35,13.01-12.52,0-23.14-6.73-31.88-20.18-8.74-13.45-13.1-29.84-13.1-49.15s4.45-35.51,13.34-48.39c8.89-12.88,20-19.32,33.33-19.32,4.55,0,9.59,1.31,15.13,3.92v38.83c-4.32-2.87-8.26-4.3-11.82-4.3-6.44,0-11.7,2.84-15.77,8.51-4.08,5.68-6.11,13.04-6.11,22.09s1.89,16.58,5.67,21.99c3.78,5.42,8.89,8.13,15.33,8.13,4.1,0,6.15-1.69,6.15-5.07,0-2.55-1.35-3.83-4.05-3.83h-6.55v-29.64Z"/>
      <path class="cls-8" d="M419.23,163.39v34.43h-7.9v31.08h-27.42v-83.01c0-16.07,3.09-28.54,9.29-37.44,6.19-8.89,14.89-13.34,26.1-13.34s18.8,4.03,23.97,12.1c5.18,8.07,7.77,20.51,7.77,37.34v84.34h-27.42v-81.76c0-5.1-.43-8.64-1.28-10.61-.86-1.98-2.39-2.96-4.59-2.96-4.28,0-6.42,4.53-6.42,13.58v16.26h7.9Z"/>
      <path class="cls-8" d="M465.76,228.89v-94.1c0-11.67,2.5-21.2,7.5-28.59,5-7.4,11.48-11.09,19.45-11.09,9.46,0,16.73,6.15,21.81,18.46,3.11-6.63,6.44-11.36,10-14.2,3.56-2.84,7.95-4.26,13.17-4.26,8.28,0,14.63,3.7,19.04,11.09,4.41,7.4,6.62,18.04,6.62,31.94v90.75h-27.42v-84.92c0-4.21-.24-7-.71-8.37-.47-1.37-1.43-2.06-2.87-2.06-2.7,0-4.05,3.25-4.05,9.75v85.59h-27.42v-84.92c0-4.14-.25-6.92-.74-8.32-.5-1.4-1.46-2.1-2.9-2.1-2.7,0-4.05,3.48-4.05,10.42v84.92h-27.42Z"/>
      <path class="cls-8" d="M629.13,149.14v29.07h-17.9c-2.43,0-4.15,.51-5.17,1.53-1.01,1.02-1.52,2.74-1.52,5.16,0,2.74,.52,4.54,1.55,5.4,1.04,.86,3.15,1.29,6.35,1.29h18.44v37.3h-21.54c-10.13,0-17.88-3.43-23.23-10.28-5.36-6.85-8.04-16.75-8.04-29.69v-51.16c0-12.49,2.53-22.19,7.6-29.07s12.19-10.33,21.38-10.33h23.84v37.49h-17.49c-4.73,0-7.09,2.17-7.09,6.5,0,2.55,.56,4.32,1.69,5.31,1.12,.99,3.13,1.48,6.01,1.48h15.13Z"/>
      <path class="cls-8" d="M724.08,133.55c-5.63,0-10.42,2.93-14.38,8.8-3.96,5.87-5.94,12.94-5.94,21.23s1.99,15.36,5.98,21.23c3.98,5.87,8.77,8.8,14.35,8.8s10.48-2.92,14.42-8.75c3.94-5.83,5.91-12.92,5.91-21.28s-1.97-15.44-5.91-21.28c-3.94-5.83-8.75-8.75-14.42-8.75Zm.81-38.44c13.06,0,24.26,6.73,33.6,20.18,9.34,13.45,14.01,29.55,14.01,48.29s-4.71,35.26-14.12,48.58c-9.41,13.33-20.85,19.99-34.31,19.99s-24.79-6.69-34.24-20.08c-9.46-13.39-14.18-29.55-14.18-48.48s4.76-35.32,14.28-48.58c9.52-13.26,21.17-19.89,34.95-19.89Z"/>
      <polygon class="cls-8" points="851.65 98.36 811.47 236.35 771.56 98.36 803.3 98.36 811.74 139.1 821.06 98.36 851.65 98.36"/>
      <path class="cls-8" d="M906.83,149.14v29.07h-17.9c-2.43,0-4.15,.51-5.17,1.53-1.01,1.02-1.52,2.74-1.52,5.16,0,2.74,.52,4.54,1.55,5.4,1.04,.86,3.15,1.29,6.35,1.29h18.44v37.3h-21.54c-10.13,0-17.88-3.43-23.23-10.28-5.36-6.85-8.04-16.75-8.04-29.69v-51.16c0-12.49,2.53-22.19,7.6-29.07s12.19-10.33,21.38-10.33h23.84v37.49h-17.49c-4.73,0-7.09,2.17-7.09,6.5,0,2.55,.56,4.32,1.69,5.31,1.12,.99,3.13,1.48,6.01,1.48h15.13Z"/>
      <path class="cls-8" d="M951.74,133.45v95.44h-27.42V98.36h35.19c10.71,0,19.02,3.76,24.92,11.28,6.57,8.42,9.86,19.09,9.86,32.04s-4.08,24.32-12.22,33.37l15.8,53.84h-28.77l-13.3-42.08v-33.57h2.16c5.76,0,8.64-3.51,8.64-10.52,0-6.18-3.33-9.28-10-9.28h-4.86Z"/>
    </g>
    <g>
      <path class="cls-3" d="M352.2,144.54h26.14c5.63,9.88,8.44,20.31,8.44,31.27,0,12.75-3.3,23.46-9.89,32.13-6.6,8.67-14.71,13.01-24.35,13.01-12.52,0-23.14-6.73-31.88-20.18-8.74-13.45-13.1-29.84-13.1-49.15s4.45-35.51,13.34-48.39c8.89-12.88,20-19.32,33.33-19.32,4.55,0,9.59,1.31,15.13,3.92v38.83c-4.32-2.87-8.26-4.3-11.82-4.3-6.44,0-11.7,2.84-15.77,8.51-4.08,5.68-6.11,13.04-6.11,22.09s1.89,16.58,5.67,21.99c3.78,5.42,8.89,8.13,15.33,8.13,4.1,0,6.15-1.69,6.15-5.07,0-2.55-1.35-3.83-4.05-3.83h-6.55v-29.64Z"/>
      <path class="cls-3" d="M431.35,152.19v34.43h-7.9v31.08h-27.42v-83.01c0-16.07,3.09-28.54,9.29-37.44,6.19-8.89,14.89-13.34,26.1-13.34s18.8,4.03,23.97,12.1c5.18,8.07,7.77,20.51,7.77,37.34v84.34h-27.42v-81.76c0-5.1-.43-8.64-1.28-10.61-.86-1.98-2.39-2.96-4.59-2.96-4.28,0-6.42,4.53-6.42,13.58v16.26h7.9Z"/>
      <path class="cls-3" d="M477.88,217.69V123.6c0-11.67,2.5-21.2,7.5-28.59,5-7.4,11.48-11.09,19.45-11.09,9.46,0,16.73,6.15,21.81,18.46,3.11-6.63,6.44-11.36,10-14.2,3.56-2.84,7.95-4.26,13.17-4.26,8.28,0,14.63,3.7,19.04,11.09,4.41,7.4,6.62,18.04,6.62,31.94v90.75h-27.42v-84.92c0-4.21-.24-7-.71-8.37-.47-1.37-1.43-2.06-2.87-2.06-2.7,0-4.05,3.25-4.05,9.75v85.59h-27.42v-84.92c0-4.14-.25-6.92-.74-8.32-.5-1.4-1.46-2.1-2.9-2.1-2.7,0-4.05,3.48-4.05,10.42v84.92h-27.42Z"/>
      <path class="cls-3" d="M641.25,137.94v29.07h-17.9c-2.43,0-4.15,.51-5.17,1.53-1.01,1.02-1.52,2.74-1.52,5.16,0,2.74,.52,4.54,1.55,5.4,1.04,.86,3.15,1.29,6.35,1.29h18.44v37.3h-21.54c-10.13,0-17.88-3.43-23.23-10.28-5.36-6.85-8.04-16.75-8.04-29.69v-51.16c0-12.49,2.53-22.19,7.6-29.07s12.19-10.33,21.38-10.33h23.84v37.49h-17.49c-4.73,0-7.09,2.17-7.09,6.5,0,2.55,.56,4.32,1.69,5.31,1.12,.99,3.13,1.48,6.01,1.48h15.13Z"/>
      <path class="cls-3" d="M737.01,83.91c13.06,0,24.26,6.73,33.6,20.18,9.34,13.45,14.01,29.55,14.01,48.29s-4.71,35.26-14.12,48.58c-9.41,13.33-20.85,19.99-34.31,19.99s-24.79-6.69-34.24-20.08c-9.46-13.39-14.18-29.55-14.18-48.48s4.76-35.32,14.28-48.58c9.52-13.26,21.17-19.89,34.95-19.89Zm-.81,38.44c-5.63,0-10.42,2.93-14.38,8.8-3.96,5.87-5.94,12.94-5.94,21.23s1.99,15.36,5.98,21.23c3.98,5.87,8.77,8.8,14.35,8.8s10.48-2.92,14.42-8.75c3.94-5.83,5.91-12.92,5.91-21.28s-1.97-15.44-5.91-21.28c-3.94-5.83-8.75-8.75-14.42-8.75Z"/>
      <path class="cls-3" d="M863.77,87.16l-40.18,137.99-39.91-137.99h31.74l8.44,40.74,9.32-40.74h30.59Z"/>
      <path class="cls-3" d="M918.95,137.94v29.07h-17.9c-2.43,0-4.15,.51-5.17,1.53-1.01,1.02-1.52,2.74-1.52,5.16,0,2.74,.52,4.54,1.55,5.4,1.04,.86,3.15,1.29,6.35,1.29h18.44v37.3h-21.54c-10.13,0-17.88-3.43-23.23-10.28-5.36-6.85-8.04-16.75-8.04-29.69v-51.16c0-12.49,2.53-22.19,7.6-29.07s12.19-10.33,21.38-10.33h23.84v37.49h-17.49c-4.73,0-7.09,2.17-7.09,6.5,0,2.55,.56,4.32,1.69,5.31,1.12,.99,3.13,1.48,6.01,1.48h15.13Z"/>
      <path class="cls-3" d="M963.86,122.26v95.44h-27.42V87.16h35.19c10.71,0,19.02,3.76,24.92,11.28,6.57,8.42,9.86,19.09,9.86,32.04s-4.08,24.32-12.22,33.37l15.8,53.84h-28.77l-13.3-42.08v-33.57h2.16c5.76,0,8.64-3.51,8.64-10.52,0-6.18-3.33-9.28-10-9.28h-4.86Z"/>
    </g>
  </g>
</svg>