<?xml version="1.0" encoding="UTF-8"?>
<svg id="Layer_1" data-name="Layer 1" xmlns="http://www.w3.org/2000/svg" viewBox="0 0 150 110">
  <defs>
    <style>
      .cls-1 {
        fill: #fff;
      }

      .cls-2 {
        fill: #fffdfd;
      }

      .cls-3 {
        fill: #e55ab4;
      }

      .cls-4 {
        fill: #edeceb;
      }

      .cls-5 {
        fill: #000102;
      }

      .cls-6 {
        fill: #f2f2f2;
      }
    </style>
  </defs>
  <path class="cls-4" d="M49.7,5.54l2.85,32.28c.22,2.52-1.76,4.68-4.29,4.68h-5.69c-2.53,0-4.51-2.17-4.29-4.68l2.85-32.28c.46-5.24,8.12-5.24,8.58,0Z"/>
  <rect x="23.35" y="33.98" width="68" height="46.06" rx="23.03" ry="23.03"/>
  <ellipse class="cls-4" cx="37.61" cy="50.57" rx="21.73" ry="12.95" transform="translate(-25.42 50.41) rotate(-53.22)"/>
  <path d="M111.71,72.94l4.45,2.36c2.1,1.11,5.51-.51,7.59-3.6l22.03-32.81c2.08-3.09,2.06-6.53-.04-7.64h0c-4.54-2.41-11.95,1.11-16.45,7.81l-17.63,26.25c-2.08,3.09-2.06,6.53,.04,7.64Z"/>
  <path class="cls-6" d="M60.88,4.97l2.9,32.85c.22,2.49-1.74,4.63-4.24,4.63h-5.79c-2.5,0-4.46-2.14-4.24-4.63l2.9-32.85c.46-5.18,8.03-5.18,8.49,0Z"/>
  <path d="M123.56,6.53l2.67,31.06c.22,2.61-1.84,4.86-4.46,4.86h-5.34c-2.62,0-4.69-2.25-4.46-4.86l2.67-31.06c.47-5.46,8.45-5.46,8.92,0Z"/>
  <path d="M110.75,6.43l2.69,31.18c.22,2.61-1.83,4.84-4.45,4.84h-5.37c-2.62,0-4.67-2.24-4.45-4.84l2.69-31.18c.47-5.44,8.42-5.44,8.89,0Z"/>
  <path d="M58.47,65.24l3.16-18.97c1.71-10.28,14.28-14.38,21.73-7.09l15.73,15.4c7.45,7.29,3.61,19.94-6.62,21.87l-18.89,3.57c-8.81,1.66-16.58-5.95-15.1-14.78Z"/>
  <rect x="69.33" y="43.71" width="57.09" height="35" rx="17.5" ry="17.5" transform="translate(8.29 -11.6) rotate(7.08)"/>
  <path d="M127.54,45.2l-1.74,20.2c-.63,7.35-9.09,11.14-15,6.72l-16.24-12.14c-5.74-4.29-4.76-13.17,1.78-16.11l17.97-8.06c6.54-2.93,13.83,2.24,13.21,9.38Z"/>
  <path d="M117.69,48.81l-4.86,19.6c-1.78,7.17-10.75,9.59-15.89,4.27l-14.03-14.52c-4.98-5.15-2.6-13.75,4.32-15.61l18.88-5.08c6.92-1.86,13.29,4.39,11.57,11.34Z"/>
  <path d="M29.25,67.52h.86c5.48,0,9.92,4.45,9.92,9.92v14.6c0,2.72-2.21,4.92-4.92,4.92h-5.86c-2.72,0-4.92-2.21-4.92-4.92v-19.6c0-2.72,2.21-4.92,4.92-4.92Z" transform="translate(31.68 -6.07) rotate(21.04)"/>
  <path d="M20.25,67.04h1.32c2.72,0,4.92,2.21,4.92,4.92v19.9c0,2.72-2.21,4.92-4.92,4.92h-6.32c-2.72,0-4.92-2.21-4.92-4.92v-14.9c0-5.48,4.45-9.92,9.92-9.92Z" transform="translate(-20.64 7.59) rotate(-15.05)"/>
  <path class="cls-5" d="M2.15,92.93l5.41,9.88c.57,1.03,1.98,1.21,2.78,.35l4.84-5.21c.8-.86,.52-2.26-.55-2.75l-10.25-4.67c-1.51-.69-3.03,.95-2.23,2.4Z"/>
  <path d="M49.76,101.99l-7.61-14.6c-1.12-2.15-4.03-2.52-5.66-.73l-5.68,6.26c-1.45,1.6-1.11,4.13,.73,5.28l13.29,8.34c3,1.88,6.57-1.41,4.93-4.55Z"/>
  <path d="M16.24,103.54l3.84-4.14c2.35-2.53,1.83-6.56-1.07-8.42l-2.54-1.63c-3.23-2.07-7.53-.31-8.38,3.44l-1.3,5.76c-1.25,5.51,5.6,9.12,9.45,4.98Z"/>
  <rect class="cls-1" x="17.78" y="67.76" width="15.07" height="14.63" rx="5.84" ry="5.84" transform="translate(-45.67 39.89) rotate(-45)"/>
  <path d="M26.16,75.48l1.97,2.46c.49,.61,.06,1.52-.73,1.52h-3.94c-.78,0-1.22-.91-.73-1.52l1.97-2.46c.37-.47,1.08-.47,1.46,0Z"/>
  <rect class="cls-1" x="23.35" y="81.45" width="5" height="15" rx="1.76" ry="1.76"/>
  <rect class="cls-3" x="16.5" y="69" width="10" height="4" rx="2" ry="2" transform="translate(1.28 -.38) rotate(1.03)"/>
  <g>
    <rect class="cls-2" x="14.5" y="84.05" width="8" height="2" transform="translate(73.27 17.4) rotate(51.27)"/>
    <rect class="cls-2" x="14.5" y="84.05" width="8" height="2" transform="translate(-49.14 30.28) rotate(-38.73)"/>
  </g>
  <g>
    <rect class="cls-2" x="28.72" y="84.45" width="8" height="2" transform="translate(78.9 6.46) rotate(51.27)"/>
    <rect class="cls-2" x="28.72" y="84.45" width="8" height="2" transform="translate(-46.27 39.26) rotate(-38.73)"/>
  </g>
</svg>