<?xml version="1.0" encoding="UTF-8"?>
<svg id="Layer_1" data-name="Layer 1" xmlns="http://www.w3.org/2000/svg" viewBox="0 0 150 110">
  <defs>
    <style>
      .cls-1 {
        fill: #ee6c4d;
      }
    </style>
  </defs>
  <path class="cls-1" d="M145.25,78.56c-.97,.51-2.07,.76-3.25,.76-4.33,0-9.66-3.3-13.2-8.57l-2.01-2.99c-.26,1.01-.67,1.94-1.23,2.78,.16,.53,.22,1.09,.17,1.67l-2.67,31.06c-.47,5.46-8.45,5.46-8.92,0l-1.94-22.58-1.95,22.68c-.47,5.43-8.42,5.43-8.89,0l-2.69-31.18c-.05-.59,.02-1.15,.18-1.68l-11.47-3.09c-.43,.03-.85,.04-1.27,.02l-3.25,3.18c-1.78,1.74-3.85,2.83-6,3.34,0,.01-.01,.01-.02,.01-2.77,1.19-5.82,1.85-9.02,1.85h-4.89l-2.55,29.01c-.46,5.18-8.03,5.18-8.49,0l-1.37-15.52-1.32,14.95c-.46,5.23-8.12,5.23-8.58,0l-2.44-27.6c-3.31-1.52-6.72-4.09-9.76-7.59-7.83-9-10.29-20.69-5.53-26.14-.04-.02-.08-.05-.11-.07-1.2,1.15-2.96,1.67-4.69,1.21l-1.27-.35c-5.27-1.41-8.42-6.88-7-12.15l2.55-9.5c-1.65-.5-3.05-1.77-3.63-3.55l-3.86,1.75c-1.51,.69-3.03-.94-2.23-2.4L7.55,8.93l.51-.94c.04-.07,.08-.13,.11-.19l.02-.02c1.88-2.56,5.92-3.36,8.55-.52l3.84,4.14c.79,.84,1.25,1.86,1.41,2.91l2.31,.62c.31-.36,.78-.59,1.3-.59h1.49c.33,0,.64,.09,.9,.26l2.13-.82c.31-.12,.62-.2,.94-.26,.25-.35,.58-.67,.98-.92l13.29-8.34c3-1.88,6.57,1.41,4.93,4.55l-7.61,14.6c-.59,1.13-1.69,1.78-2.83,1.86l1.88,4.89c1.35-.26,2.75-.39,4.17-.39h21.95c.14,0,.27,0,.41,.01,1.54-.3,3.17-.32,4.84,0l13.43,2.53,19.68-2.45c7.13-.89,13.8,2.66,17.23,8.48l21.87,32.57c2.08,3.1,2.07,6.54-.03,7.65Z"/>
  <path class="cls-1" d="M8.17,7.8c-.03,.06-.07,.12-.11,.19l-.51,.94c.15-.4,.37-.78,.62-1.13Z"/>
</svg>