<?xml version="1.0" encoding="UTF-8"?>
<svg id="Layer_5" data-name="Layer 5" xmlns="http://www.w3.org/2000/svg" viewBox="0 0 554 190">
  <defs>
    <style>
      .cls-1 {
        stroke: #329aa0;
      }

      .cls-1, .cls-2, .cls-3, .cls-4, .cls-5, .cls-6, .cls-7, .cls-8, .cls-9, .cls-10, .cls-11, .cls-12, .cls-13, .cls-14, .cls-15, .cls-16, .cls-17, .cls-18, .cls-19, .cls-20, .cls-21, .cls-22, .cls-23, .cls-24, .cls-25, .cls-26, .cls-27, .cls-28, .cls-29, .cls-30, .cls-31, .cls-32, .cls-33, .cls-34, .cls-35, .cls-36, .cls-37, .cls-38, .cls-39, .cls-40, .cls-41, .cls-42, .cls-43, .cls-44 {
        fill: none;
        stroke-miterlimit: 10;
        stroke-width: 10px;
      }

      .cls-2 {
        stroke: #34a2a9;
      }

      .cls-3 {
        stroke: #39b2ba;
      }

      .cls-4 {
        stroke: #35a6ae;
      }

      .cls-5 {
        stroke: #33a0a7;
      }

      .cls-45 {
        fill: #3dbfc9;
      }

      .cls-6 {
        stroke: #35a4ab;
      }

      .cls-7 {
        stroke: #39b3bc;
      }

      .cls-8 {
        stroke: #3dbfc9;
      }

      .cls-9 {
        stroke: #34a3aa;
      }

      .cls-10 {
        stroke: #3cbcc6;
      }

      .cls-11 {
        stroke: #329ba1;
      }

      .cls-12 {
        stroke: #39b1b9;
      }

      .cls-46 {
        fill: #257072;
      }

      .cls-13 {
        stroke: #35a5ad;
      }

      .cls-47 {
        fill: #31989e;
      }

      .cls-14 {
        stroke: #36aab2;
      }

      .cls-15 {
        stroke: #37abb3;
      }

      .cls-16 {
        stroke: #36a8b0;
      }

      .cls-17 {
        stroke: #3cbbc5;
      }

      .cls-18 {
        stroke: #3cbdc7;
      }

      .cls-19 {
        stroke: #34a1a8;
      }

      .cls-20 {
        stroke: #3ab4bd;
      }

      .cls-21 {
        stroke: #3bb9c2;
      }

      .cls-22 {
        stroke: #36a7af;
      }

      .cls-23 {
        stroke: #3bbac3;
      }

      .cls-24 {
        stroke: #39b3bb;
      }

      .cls-25 {
        stroke: #38aeb6;
      }

      .cls-26 {
        stroke: #31989e;
      }

      .cls-27 {
        stroke: #37acb4;
      }

      .cls-28 {
        stroke: #31999f;
      }

      .cls-29 {
        stroke: #38afb7;
      }

      .cls-30 {
        stroke: #329ca2;
      }

      .cls-31 {
        stroke: #3bb7c0;
      }

      .cls-32 {
        stroke: #329ca3;
      }

      .cls-33 {
        stroke: #36a9b1;
      }

      .cls-34 {
        stroke: #3bb8c1;
      }

      .cls-35 {
        stroke: #339da4;
      }

      .cls-36 {
        stroke: #38b0b8;
      }

      .cls-37 {
        stroke: #38adb5;
      }

      .cls-38 {
        stroke: #35a4ac;
      }

      .cls-39 {
        stroke: #339ea5;
      }

      .cls-40 {
        stroke: #3dbec8;
      }

      .cls-41 {
        stroke: #3cbbc4;
      }

      .cls-42 {
        stroke: #339fa6;
      }

      .cls-43 {
        stroke: #3ab6bf;
      }

      .cls-44 {
        stroke: #3ab5be;
      }
    </style>
  </defs>
  <g>
    <g>
      <path class="cls-46" d="M69.71,112.48v-21.74c3.65,0,5.48-1.9,5.48-5.71,0-3.48-1.4-5.22-4.19-5.22s-4.23,2.39-4.23,7.16v54.16h-18.09v-51.61c0-5.34,.39-9.72,1.18-13.14,.79-3.42,2.13-6.61,4.03-9.56,2.14-3.28,4.81-5.87,8.02-7.77,3.21-1.9,6.52-2.85,9.93-2.85,6.18,0,11.37,2.83,15.57,8.5,4.2,5.67,6.3,12.69,6.3,21.07s-1.89,14.73-5.66,19.79c-3.45,4.66-8.64,6.98-15.59,6.98l-2.76-.06Z"/>
      <path class="cls-46" d="M99.96,58.26h18.09v49.24c0,3.85,.45,6.41,1.36,7.68,.91,1.28,2.7,1.91,5.37,1.91h.93v24.04h-4.81c-6.59,0-11.73-2.62-15.41-7.86-3.68-5.24-5.52-12.52-5.52-21.83V58.26Z"/>
      <path class="cls-46" d="M153.86,99.55v21.86h-5.21v19.73h-18.09v-52.7c0-10.2,2.04-18.12,6.12-23.77s9.82-8.47,17.22-8.47,12.4,2.56,15.81,7.68,5.12,13.02,5.12,23.71v53.55h-18.09v-51.91c0-3.24-.28-5.48-.85-6.74-.56-1.25-1.57-1.88-3.03-1.88-2.82,0-4.23,2.87-4.23,8.62v10.32h5.21Z"/>
      <path class="cls-46" d="M228.65,58.26l-17.2,36.85v46.02h-18.09v-46.02l-17.33-36.85h18.35l7.84,17.06,8.42-17.06h18Z"/>
      <path class="cls-46" d="M276.54,99.55v21.86h-5.21v19.73h-18.09v-52.7c0-10.2,2.04-18.12,6.12-23.77s9.82-8.47,17.22-8.47,12.4,2.56,15.81,7.68,5.12,13.02,5.12,23.71v53.55h-18.09v-51.91c0-3.24-.28-5.48-.85-6.74-.56-1.25-1.57-1.88-3.03-1.88-2.82,0-4.23,2.87-4.23,8.62v10.32h5.21Z"/>
      <path class="cls-46" d="M334.23,94.69h17.24c3.71,6.27,5.57,12.89,5.57,19.85,0,8.1-2.18,14.9-6.53,20.4-4.35,5.5-9.71,8.26-16.06,8.26-8.26,0-15.27-4.27-21.03-12.81-5.76-8.54-8.64-18.94-8.64-31.21s2.93-22.54,8.8-30.72c5.86-8.17,13.19-12.26,21.98-12.26,3,0,6.33,.83,9.98,2.49v24.65c-2.85-1.82-5.45-2.73-7.8-2.73-4.25,0-7.71,1.8-10.4,5.4-2.69,3.6-4.03,8.28-4.03,14.02s1.25,10.52,3.74,13.96c2.5,3.44,5.87,5.16,10.11,5.16,2.7,0,4.05-1.07,4.05-3.22,0-1.62-.89-2.43-2.67-2.43h-4.32v-18.82Z"/>
      <path class="cls-46" d="M386.44,99.55v21.86h-5.21v19.73h-18.09v-52.7c0-10.2,2.04-18.12,6.12-23.77s9.82-8.47,17.22-8.47,12.4,2.56,15.81,7.68,5.12,13.02,5.12,23.71v53.55h-18.09v-51.91c0-3.24-.28-5.48-.85-6.74-.56-1.25-1.57-1.88-3.03-1.88-2.82,0-4.23,2.87-4.23,8.62v10.32h5.21Z"/>
      <path class="cls-46" d="M436.47,58.26v82.87h-18.09V58.26h18.09Z"/>
      <path class="cls-46" d="M447.38,141.14v-53.79c0-9.43,2.07-16.98,6.21-22.65,4.14-5.67,9.66-8.5,16.55-8.5s12.11,2.75,15.75,8.26c3.64,5.5,5.46,13.42,5.46,23.74v52.94h-18.09v-52.94c0-5.06-1.32-7.59-3.96-7.59s-3.83,2.53-3.83,7.59v52.94h-18.09Z"/>
    </g>
    <g>
      <path class="cls-47" d="M80.4,104.9v-20.99c3.64,0,5.46-1.84,5.46-5.51,0-3.36-1.39-5.04-4.18-5.04s-4.22,2.31-4.22,6.92v52.29h-18.04v-49.83c0-5.16,.39-9.39,1.18-12.69,.78-3.3,2.12-6.39,4.02-9.23,2.12-3.17,4.8-5.67,8-7.5,3.2-1.84,6.5-2.76,9.91-2.76,6.16,0,11.33,2.74,15.53,8.21,4.19,5.47,6.29,12.25,6.29,20.34s-1.88,14.23-5.64,19.11c-3.44,4.5-8.62,6.74-15.55,6.74l-2.75-.06Z"/>
      <path class="cls-47" d="M110.57,52.55h18.04v47.54c0,3.71,.45,6.18,1.36,7.42,.9,1.23,2.69,1.85,5.35,1.85h.93v23.21h-4.8c-6.57,0-11.7-2.53-15.37-7.59-3.67-5.06-5.51-12.09-5.51-21.07V52.55Z"/>
      <path class="cls-47" d="M164.32,92.41v21.1h-5.2v19.05h-18.04v-50.88c0-9.85,2.04-17.5,6.11-22.95,4.07-5.45,9.8-8.18,17.17-8.18s12.36,2.47,15.77,7.42c3.41,4.94,5.11,12.57,5.11,22.89v51.71h-18.04v-50.12c0-3.13-.28-5.29-.84-6.51-.56-1.21-1.57-1.82-3.02-1.82-2.81,0-4.22,2.78-4.22,8.32v9.97h5.2Z"/>
      <polygon class="cls-47" points="238.9 52.55 221.76 88.13 221.76 132.57 203.72 132.57 203.72 88.13 186.44 52.55 204.74 52.55 212.56 69.02 220.96 52.55 238.9 52.55"/>
      <path class="cls-47" d="M286.66,92.41v21.1h-5.2v19.05h-18.04v-50.88c0-9.85,2.04-17.5,6.11-22.95,4.07-5.45,9.8-8.18,17.17-8.18s12.36,2.47,15.77,7.42c3.41,4.94,5.11,12.57,5.11,22.89v51.71h-18.04v-50.12c0-3.13-.28-5.29-.84-6.51-.56-1.21-1.57-1.82-3.02-1.82-2.81,0-4.22,2.78-4.22,8.32v9.97h5.2Z"/>
      <path class="cls-47" d="M344.19,87.72h17.19c3.7,6.06,5.55,12.45,5.55,19.17,0,7.82-2.17,14.38-6.51,19.7-4.34,5.32-9.68,7.97-16.01,7.97-8.23,0-15.22-4.12-20.97-12.37-5.75-8.25-8.62-18.29-8.62-30.13s2.92-21.77,8.77-29.66c5.85-7.89,13.16-11.84,21.92-11.84,2.99,0,6.31,.8,9.95,2.4v23.8c-2.84-1.76-5.44-2.64-7.77-2.64-4.24,0-7.69,1.74-10.37,5.22-2.68,3.48-4.02,7.99-4.02,13.54s1.24,10.16,3.73,13.48c2.49,3.32,5.85,4.98,10.08,4.98,2.69,0,4.04-1.03,4.04-3.11,0-1.56-.89-2.34-2.67-2.34h-4.31v-18.17Z"/>
      <path class="cls-47" d="M396.25,92.41v21.1h-5.2v19.05h-18.04v-50.88c0-9.85,2.04-17.5,6.11-22.95,4.07-5.45,9.8-8.18,17.17-8.18s12.36,2.47,15.77,7.42c3.41,4.94,5.11,12.57,5.11,22.89v51.71h-18.04v-50.12c0-3.13-.28-5.29-.84-6.51-.56-1.21-1.57-1.82-3.02-1.82-2.81,0-4.22,2.78-4.22,8.32v9.97h5.2Z"/>
      <rect class="cls-47" x="428.1" y="52.55" width="18.04" height="80.02"/>
      <path class="cls-47" d="M457.02,132.57v-51.94c0-9.11,2.07-16.39,6.2-21.87,4.13-5.47,9.63-8.21,16.5-8.21s12.08,2.66,15.7,7.97c3.63,5.32,5.44,12.96,5.44,22.92v51.12h-18.04v-51.12c0-4.88-1.32-7.33-3.95-7.33s-3.82,2.44-3.82,7.33v51.12h-18.04Z"/>
    </g>
    <g>
      <path class="cls-45" d="M91.1,97.32v-20.24c3.63,0,5.45-1.77,5.45-5.31,0-3.24-1.39-4.86-4.16-4.86s-4.21,2.22-4.21,6.67v50.43h-17.99v-48.05c0-4.97,.39-9.05,1.17-12.24,.78-3.18,2.12-6.15,4.01-8.9,2.13-3.05,4.78-5.46,7.97-7.24s6.48-2.66,9.88-2.66c6.14,0,11.3,2.64,15.48,7.92,4.18,5.28,6.27,11.81,6.27,19.62s-1.88,13.72-5.63,18.43c-3.43,4.33-8.59,6.5-15.5,6.5l-2.75-.06Z"/>
      <path class="cls-45" d="M121.18,46.83h17.99v45.85c0,3.58,.45,5.96,1.35,7.15,.9,1.19,2.68,1.78,5.34,1.78h.93v22.39h-4.78c-6.56,0-11.67-2.44-15.33-7.32-3.66-4.88-5.49-11.65-5.49-20.32V46.83Z"/>
      <path class="cls-45" d="M174.78,85.27v20.35h-5.18v18.37h-17.99v-49.07c0-9.5,2.03-16.88,6.09-22.13,4.06-5.26,9.77-7.89,17.12-7.89s12.33,2.38,15.73,7.15c3.4,4.77,5.09,12.13,5.09,22.08v49.86h-17.98v-48.33c0-3.01-.28-5.11-.84-6.27-.56-1.17-1.57-1.75-3.01-1.75-2.81,0-4.21,2.68-4.21,8.03v9.61h5.18Z"/>
      <path class="cls-45" d="M249.15,46.83l-17.1,34.32v42.85h-17.99v-42.85l-17.23-34.32h18.25l7.8,15.89,8.37-15.89h17.9Z"/>
      <path class="cls-45" d="M296.77,85.27v20.35h-5.18v18.37h-17.99v-49.07c0-9.5,2.03-16.88,6.09-22.13,4.06-5.26,9.77-7.89,17.12-7.89s12.33,2.38,15.73,7.15c3.4,4.77,5.09,12.13,5.09,22.08v49.86h-17.98v-48.33c0-3.01-.28-5.11-.84-6.27-.56-1.17-1.57-1.75-3.01-1.75-2.81,0-4.21,2.68-4.21,8.03v9.61h5.18Z"/>
      <path class="cls-45" d="M354.14,80.75h17.14c3.69,5.84,5.54,12,5.54,18.49,0,7.54-2.16,13.87-6.49,18.99-4.33,5.13-9.65,7.69-15.97,7.69-8.21,0-15.18-3.98-20.91-11.93-5.73-7.95-8.59-17.64-8.59-29.06s2.92-20.99,8.75-28.6c5.83-7.61,13.12-11.42,21.86-11.42,2.98,0,6.29,.77,9.92,2.32v22.95c-2.83-1.7-5.42-2.54-7.75-2.54-4.22,0-7.67,1.68-10.34,5.03-2.67,3.36-4.01,7.71-4.01,13.06s1.24,9.8,3.72,13c2.48,3.2,5.83,4.8,10.06,4.8,2.69,0,4.03-1,4.03-3,0-1.51-.89-2.26-2.66-2.26h-4.3v-17.53Z"/>
      <path class="cls-45" d="M406.06,85.27v20.35h-5.18v18.37h-17.99v-49.07c0-9.5,2.03-16.88,6.09-22.13,4.06-5.26,9.77-7.89,17.12-7.89s12.33,2.38,15.73,7.15c3.4,4.77,5.09,12.13,5.09,22.08v49.86h-17.98v-48.33c0-3.01-.28-5.11-.84-6.27-.56-1.17-1.57-1.75-3.01-1.75-2.81,0-4.21,2.68-4.21,8.03v9.61h5.18Z"/>
      <path class="cls-45" d="M455.8,46.83V124h-17.99V46.83h17.99Z"/>
      <path class="cls-45" d="M466.66,124v-50.09c0-8.78,2.06-15.81,6.18-21.09,4.12-5.28,9.61-7.92,16.46-7.92s12.04,2.56,15.66,7.69c3.62,5.13,5.43,12.49,5.43,22.1v49.3h-17.99v-49.3c0-4.71-1.31-7.07-3.94-7.07s-3.81,2.36-3.81,7.07v49.3h-17.99Z"/>
    </g>
  </g>
  <g>
    <rect class="cls-26" x="14.25" y="26.5" width="518" height="155" rx="30.34" ry="30.34"/>
    <rect class="cls-28" x="14.5" y="26.25" width="517.98" height="155" rx="30.38" ry="30.38"/>
    <rect class="cls-1" x="14.75" y="26" width="517.95" height="155" rx="30.42" ry="30.42"/>
    <rect class="cls-11" x="15" y="25.75" width="517.93" height="155" rx="30.47" ry="30.47"/>
    <rect class="cls-30" x="15.25" y="25.5" width="517.91" height="155" rx="30.51" ry="30.51"/>
    <rect class="cls-32" x="15.5" y="25.25" width="517.89" height="155" rx="30.55" ry="30.55"/>
    <rect class="cls-35" x="15.75" y="25" width="517.86" height="155" rx="30.59" ry="30.59"/>
    <rect class="cls-39" x="16" y="24.75" width="517.84" height="155" rx="30.64" ry="30.64"/>
    <rect class="cls-42" x="16.25" y="24.5" width="517.82" height="155" rx="30.68" ry="30.68"/>
    <rect class="cls-5" x="16.5" y="24.25" width="517.8" height="155" rx="30.72" ry="30.72"/>
    <rect class="cls-19" x="16.75" y="24" width="517.77" height="155" rx="30.76" ry="30.76"/>
    <rect class="cls-2" x="17" y="23.75" width="517.75" height="155" rx="30.81" ry="30.81"/>
    <rect class="cls-9" x="17.25" y="23.5" width="517.73" height="155" rx="30.85" ry="30.85"/>
    <rect class="cls-6" x="17.5" y="23.25" width="517.7" height="155" rx="30.89" ry="30.89"/>
    <rect class="cls-38" x="17.75" y="23" width="517.68" height="155" rx="30.93" ry="30.93"/>
    <rect class="cls-13" x="18" y="22.75" width="517.66" height="155" rx="30.98" ry="30.98"/>
    <rect class="cls-4" x="18.25" y="22.5" width="517.64" height="155" rx="31.02" ry="31.02"/>
    <rect class="cls-22" x="18.5" y="22.25" width="517.61" height="155" rx="31.06" ry="31.06"/>
    <rect class="cls-16" x="18.75" y="22" width="517.59" height="155" rx="31.1" ry="31.1"/>
    <rect class="cls-33" x="19" y="21.75" width="517.57" height="155" rx="31.15" ry="31.15"/>
    <rect class="cls-14" x="19.25" y="21.5" width="517.55" height="155" rx="31.19" ry="31.19"/>
    <rect class="cls-15" x="19.5" y="21.25" width="517.52" height="155" rx="31.23" ry="31.23"/>
    <rect class="cls-15" x="19.75" y="21" width="517.5" height="155" rx="31.27" ry="31.27"/>
    <rect class="cls-27" x="20" y="20.75" width="517.48" height="155" rx="31.32" ry="31.32"/>
    <rect class="cls-37" x="20.25" y="20.5" width="517.45" height="155" rx="31.36" ry="31.36"/>
    <rect class="cls-25" x="20.5" y="20.25" width="517.43" height="155" rx="31.4" ry="31.4"/>
    <rect class="cls-29" x="20.75" y="20" width="517.41" height="155" rx="31.44" ry="31.44"/>
    <rect class="cls-36" x="21" y="19.75" width="517.39" height="155" rx="31.49" ry="31.49"/>
    <rect class="cls-12" x="21.25" y="19.5" width="517.36" height="155" rx="31.53" ry="31.53"/>
    <rect class="cls-3" x="21.5" y="19.25" width="517.34" height="155" rx="31.57" ry="31.57"/>
    <rect class="cls-24" x="21.75" y="19" width="517.32" height="155" rx="31.61" ry="31.61"/>
    <rect class="cls-7" x="22" y="18.75" width="517.3" height="155" rx="31.66" ry="31.66"/>
    <rect class="cls-20" x="22.25" y="18.5" width="517.27" height="155" rx="31.7" ry="31.7"/>
    <rect class="cls-44" x="22.5" y="18.25" width="517.25" height="155" rx="31.74" ry="31.74"/>
    <rect class="cls-43" x="22.75" y="18" width="517.23" height="155" rx="31.79" ry="31.79"/>
    <rect class="cls-31" x="23" y="17.75" width="517.2" height="155" rx="31.83" ry="31.83"/>
    <rect class="cls-34" x="23.25" y="17.5" width="517.18" height="155" rx="31.87" ry="31.87"/>
    <rect class="cls-21" x="23.5" y="17.25" width="517.16" height="155" rx="31.91" ry="31.91"/>
    <rect class="cls-23" x="23.75" y="17" width="517.14" height="155" rx="31.96" ry="31.96"/>
    <rect class="cls-41" x="24" y="16.75" width="517.11" height="155" rx="32" ry="32"/>
    <rect class="cls-17" x="24.25" y="16.5" width="517.09" height="155" rx="32.04" ry="32.04"/>
    <rect class="cls-10" x="24.5" y="16.25" width="517.07" height="155" rx="32.08" ry="32.08"/>
    <rect class="cls-18" x="24.75" y="16" width="517.05" height="155" rx="32.13" ry="32.13"/>
    <rect class="cls-40" x="25" y="15.75" width="517.02" height="155" rx="32.17" ry="32.17"/>
    <rect class="cls-8" x="25.25" y="15.5" width="517" height="155" rx="32.21" ry="32.21"/>
  </g>
</svg>