<?xml version="1.0" encoding="UTF-8"?>
<svg id="Layer_5" data-name="Layer 5" xmlns="http://www.w3.org/2000/svg" viewBox="0 0 425 250">
  <defs>
    <style>
      .cls-1 {
        stroke: #2c8d93;
      }

      .cls-1, .cls-2, .cls-3, .cls-4, .cls-5, .cls-6, .cls-7, .cls-8, .cls-9, .cls-10, .cls-11, .cls-12, .cls-13, .cls-14, .cls-15, .cls-16, .cls-17, .cls-18, .cls-19, .cls-20, .cls-21, .cls-22, .cls-23, .cls-24, .cls-25, .cls-26, .cls-27, .cls-28, .cls-29, .cls-30, .cls-31, .cls-32, .cls-33, .cls-34, .cls-35, .cls-36, .cls-37, .cls-38, .cls-39, .cls-40, .cls-41, .cls-42, .cls-43, .cls-44, .cls-45, .cls-46, .cls-47, .cls-48, .cls-49, .cls-50, .cls-51, .cls-52, .cls-53, .cls-54, .cls-55, .cls-56, .cls-57, .cls-58, .cls-59, .cls-60, .cls-61, .cls-62, .cls-63, .cls-64, .cls-65, .cls-66, .cls-67, .cls-68, .cls-69, .cls-70, .cls-71, .cls-72, .cls-73, .cls-74, .cls-75, .cls-76, .cls-77, .cls-78, .cls-79, .cls-80, .cls-81, .cls-82, .cls-83, .cls-84, .cls-85, .cls-86, .cls-87, .cls-88, .cls-89, .cls-90, .cls-91, .cls-92, .cls-93, .cls-94 {
        fill: none;
        stroke-width: 8px;
      }

      .cls-1, .cls-2, .cls-3, .cls-4, .cls-5, .cls-6, .cls-7, .cls-8, .cls-10, .cls-11, .cls-12, .cls-13, .cls-14, .cls-15, .cls-16, .cls-17, .cls-18, .cls-19, .cls-20, .cls-21, .cls-22, .cls-23, .cls-24, .cls-25, .cls-26, .cls-27, .cls-28, .cls-29, .cls-30, .cls-31, .cls-32, .cls-33, .cls-34, .cls-35, .cls-36, .cls-37, .cls-38, .cls-39, .cls-40, .cls-41, .cls-42, .cls-43, .cls-44, .cls-45, .cls-46, .cls-47, .cls-48, .cls-49, .cls-50, .cls-51, .cls-52, .cls-53, .cls-54, .cls-55, .cls-56, .cls-57, .cls-58, .cls-59, .cls-60, .cls-61, .cls-62, .cls-63, .cls-64, .cls-65, .cls-66, .cls-67, .cls-68, .cls-69, .cls-70, .cls-71, .cls-72, .cls-73, .cls-74, .cls-75, .cls-76, .cls-78, .cls-79, .cls-80, .cls-81, .cls-82, .cls-83, .cls-84, .cls-86, .cls-87, .cls-89, .cls-90, .cls-91, .cls-92, .cls-93, .cls-94 {
        stroke-miterlimit: 10;
      }

      .cls-2 {
        stroke: #39b3bc;
      }

      .cls-3 {
        stroke: #37afb7;
      }

      .cls-4 {
        stroke: #25797c;
      }

      .cls-5 {
        stroke: #329ea5;
      }

      .cls-6 {
        stroke: #288287;
      }

      .cls-7 {
        stroke: #34a5ac;
      }

      .cls-8 {
        stroke: #278084;
      }

      .cls-9 {
        stroke: #216f71;
      }

      .cls-9, .cls-85 {
        stroke-miterlimit: 10;
      }

      .cls-10 {
        stroke: #2b8c91;
      }

      .cls-11 {
        stroke: #35a8b0;
      }

      .cls-12 {
        stroke: #247679;
      }

      .cls-13 {
        stroke: #309aa0;
      }

      .cls-14 {
        stroke: #37adb5;
      }

      .cls-95 {
        fill: #3dbfc9;
      }

      .cls-15 {
        stroke: #2e959b;
      }

      .cls-16 {
        stroke: #2d9197;
      }

      .cls-17 {
        stroke: #3dbfc9;
      }

      .cls-18 {
        stroke: #33a3aa;
      }

      .cls-19 {
        stroke: #319ea4;
      }

      .cls-20 {
        stroke: #34a6ad;
      }

      .cls-21 {
        stroke: #25797d;
      }

      .cls-22 {
        stroke: #24777a;
      }

      .cls-23 {
        stroke: #35a8af;
      }

      .cls-24 {
        stroke: #2e9399;
      }

      .cls-96 {
        fill: #007477;
      }

      .cls-25 {
        stroke: #2e949a;
      }

      .cls-26 {
        stroke: #2b8b90;
      }

      .cls-27 {
        stroke: #2f979d;
      }

      .cls-28 {
        stroke: #30989e;
      }

      .cls-29 {
        stroke: #2d9096;
      }

      .cls-30 {
        stroke: #2d9298;
      }

      .cls-31 {
        stroke: #33a1a8;
      }

      .cls-32 {
        stroke: #3ab7c0;
      }

      .cls-33 {
        stroke: #3bbac3;
      }

      .cls-34 {
        stroke: #30999f;
      }

      .cls-35 {
        stroke: #36a9b1;
      }

      .cls-36 {
        stroke: #3cbcc6;
      }

      .cls-37 {
        stroke: #38b1b9;
      }

      .cls-38 {
        stroke: #2c8f95;
      }

      .cls-39 {
        stroke: #38b1ba;
      }

      .cls-40 {
        stroke: #288286;
      }

      .cls-41 {
        stroke: #34a4ab;
      }

      .cls-42 {
        stroke: #257a7e;
      }

      .cls-43 {
        stroke: #227072;
      }

      .cls-44 {
        stroke: #2f969c;
      }

      .cls-45 {
        stroke: #288388;
      }

      .cls-46 {
        stroke: #39b4bd;
      }

      .cls-47 {
        stroke: #267c80;
      }

      .cls-48 {
        stroke: #319ca2;
      }

      .cls-49 {
        stroke: #37aeb6;
      }

      .cls-50 {
        stroke: #206b6d;
      }

      .cls-51 {
        stroke: #39b2bb;
      }

      .cls-52 {
        stroke: #2b8a8f;
      }

      .cls-53 {
        stroke: #3bbac4;
      }

      .cls-54 {
        stroke: #267d81;
      }

      .cls-97 {
        fill: #1f9aa0;
      }

      .cls-55 {
        stroke: #267b7f;
      }

      .cls-56 {
        stroke: #3dbec8;
      }

      .cls-57 {
        stroke: #3bb8c1;
      }

      .cls-58 {
        stroke: #329fa6;
      }

      .cls-59 {
        stroke: #319ba1;
      }

      .cls-60 {
        stroke: #216e70;
      }

      .cls-61 {
        stroke: #227174;
      }

      .cls-62 {
        stroke: #33a2a9;
      }

      .cls-63 {
        stroke: #2a888d;
      }

      .cls-64 {
        stroke: #277e82;
      }

      .cls-65 {
        stroke: #3cbbc5;
      }

      .cls-66 {
        stroke: #2c8e94;
      }

      .cls-67 {
        stroke: #3ab6bf;
      }

      .cls-68 {
        stroke: #36abb3;
      }

      .cls-69 {
        stroke: #237477;
      }

      .cls-70 {
        stroke: #277f83;
      }

      .cls-71 {
        stroke: #2a898e;
      }

      .cls-72 {
        stroke: #35a7ae;
      }

      .cls-73 {
        stroke: #38b0b8;
      }

      .cls-74 {
        stroke: #319da3;
      }

      .cls-75 {
        stroke: #3bb9c2;
      }

      .cls-76 {
        stroke: #3ab5be;
      }

      .cls-77 {
        stroke: #24787b;
      }

      .cls-77, .cls-88 {
        stroke-miterlimit: 10;
      }

      .cls-78 {
        stroke: #2a878c;
      }

      .cls-79 {
        stroke: #298489;
      }

      .cls-80 {
        stroke: #237376;
      }

      .cls-81 {
        stroke: #29858a;
      }

      .cls-82 {
        stroke: #2c8c92;
      }

      .cls-83 {
        stroke: #237578;
      }

      .cls-84 {
        stroke: #278185;
      }

      .cls-85 {
        stroke: #227275;
      }

      .cls-86 {
        stroke: #2f959b;
      }

      .cls-87 {
        stroke: #36acb4;
      }

      .cls-88 {
        stroke: #216d6f;
      }

      .cls-89 {
        stroke: #29868b;
      }

      .cls-90 {
        stroke: #32a0a7;
      }

      .cls-91 {
        stroke: #206c6e;
      }

      .cls-92 {
        stroke: #3cbdc7;
      }

      .cls-93 {
        stroke: #227073;
      }

      .cls-94 {
        stroke: #36aab2;
      }
    </style>
  </defs>
  <g>
    <g>
      <path class="cls-96" d="M98.98,138.95v-21.93c5.33,0,8-1.92,8-5.76,0-3.51-2.04-5.27-6.11-5.27s-6.18,2.41-6.18,7.23v54.65h-26.41v-52.07c0-5.39,.57-9.81,1.72-13.26,1.15-3.45,3.11-6.67,5.89-9.65,3.12-3.31,7.03-5.92,11.71-7.84,4.68-1.92,9.52-2.88,14.5-2.88,9.02,0,16.6,2.86,22.73,8.58,6.14,5.72,9.2,12.8,9.2,21.26s-2.75,14.87-8.26,19.97c-5.03,4.7-12.62,7.04-22.77,7.04l-4.03-.06Z"/>
      <path class="cls-96" d="M149.41,84.24h26.41v49.68c0,3.88,.66,6.46,1.98,7.75,1.32,1.29,3.94,1.93,7.84,1.93h1.37v24.26h-7.03c-9.63,0-17.13-2.64-22.51-7.93-5.38-5.29-8.07-12.63-8.07-22.02v-53.67Z"/>
      <path class="cls-96" d="M234.38,125.9v22.06h-7.61v19.91h-26.41v-53.18c0-10.29,2.98-18.29,8.94-23.98,5.96-5.7,14.34-8.55,25.14-8.55s18.1,2.58,23.09,7.75c4.99,5.17,7.48,13.14,7.48,23.92v54.03h-26.41v-52.38c0-3.27-.41-5.53-1.24-6.8-.82-1.27-2.3-1.9-4.42-1.9-4.12,0-6.18,2.9-6.18,8.7v10.41h7.61Z"/>
      <path class="cls-96" d="M349.85,84.24l-25.11,37.19v46.44h-26.41v-46.44l-25.3-37.19h26.8l11.45,17.22,12.29-17.22h26.28Z"/>
    </g>
    <g>
      <path class="cls-97" d="M109.51,130.74v-21.93c5.33,0,8-1.92,8-5.76,0-3.51-2.04-5.27-6.11-5.27s-6.18,2.41-6.18,7.23v54.65h-26.41v-52.07c0-5.39,.57-9.81,1.72-13.26,1.15-3.45,3.1-6.68,5.89-9.65,3.11-3.32,7.03-5.92,11.71-7.84,4.68-1.92,9.52-2.88,14.5-2.88,9.02,0,16.6,2.86,22.73,8.58,6.14,5.72,9.2,12.8,9.2,21.26s-2.75,14.87-8.26,19.97c-5.03,4.7-12.62,7.04-22.77,7.04l-4.03-.06Z"/>
      <path class="cls-97" d="M159.93,76.04h26.41v49.68c0,3.88,.66,6.46,1.98,7.75,1.32,1.29,3.94,1.93,7.84,1.93h1.37v24.26h-7.03c-9.63,0-17.13-2.64-22.51-7.93-5.38-5.29-8.07-12.63-8.07-22.02v-53.67Z"/>
      <path class="cls-97" d="M244.9,117.69v22.06h-7.61v19.91h-26.41v-53.18c0-10.29,2.98-18.29,8.94-23.98,5.96-5.7,14.34-8.55,25.14-8.55s18.1,2.58,23.09,7.75c4.99,5.17,7.48,13.14,7.48,23.92v54.03h-26.41v-52.38c0-3.27-.41-5.53-1.24-6.8-.82-1.27-2.3-1.9-4.42-1.9-4.12,0-6.18,2.9-6.18,8.7v10.41h7.61Z"/>
      <polygon class="cls-97" points="360.38 76.04 335.27 113.22 335.27 159.66 308.86 159.66 308.86 113.22 283.56 76.04 310.36 76.04 321.81 93.25 334.1 76.04 360.38 76.04"/>
    </g>
    <g>
      <path class="cls-95" d="M120.03,122.54v-21.93c5.33,0,8-1.92,8-5.76,0-3.51-2.04-5.27-6.11-5.27s-6.18,2.41-6.18,7.23v54.65h-26.41v-52.07c0-5.39,.57-9.81,1.72-13.26,1.15-3.45,3.11-6.67,5.89-9.65,3.12-3.31,7.03-5.92,11.71-7.84,4.68-1.92,9.52-2.88,14.5-2.88,9.02,0,16.6,2.86,22.73,8.58,6.14,5.72,9.2,12.8,9.2,21.26s-2.75,14.87-8.26,19.97c-5.03,4.7-12.62,7.04-22.77,7.04l-4.03-.06Z"/>
      <path class="cls-95" d="M170.46,67.83h26.41v49.68c0,3.88,.66,6.46,1.98,7.75,1.32,1.29,3.94,1.93,7.84,1.93h1.37v24.26h-7.03c-9.63,0-17.13-2.64-22.51-7.93-5.38-5.29-8.07-12.63-8.07-22.02v-53.67Z"/>
      <path class="cls-95" d="M255.43,109.49v22.06h-7.61v19.91h-26.41v-53.18c0-10.29,2.98-18.29,8.94-23.98,5.96-5.7,14.34-8.55,25.14-8.55s18.1,2.58,23.09,7.75c4.99,5.17,7.48,13.14,7.48,23.92v54.03h-26.41v-52.38c0-3.27-.41-5.53-1.24-6.8-.82-1.27-2.3-1.9-4.42-1.9-4.12,0-6.18,2.9-6.18,8.7v10.41h7.61Z"/>
      <path class="cls-95" d="M370.9,67.83l-25.11,37.19v46.44h-26.41v-46.44l-25.3-37.19h26.8l11.45,17.22,12.29-17.22h26.28Z"/>
    </g>
  </g>
  <g>
    <rect class="cls-50" x="13.38" y="26.6" width="390.1" height="215.53" rx="33.4" ry="33.4"/>
    <rect class="cls-91" x="13.46" y="26.4" width="390.1" height="215.53" rx="33.4" ry="33.4"/>
    <rect class="cls-88" x="13.54" y="26.2" width="390.1" height="215.53" rx="33.4" ry="33.4"/>
    <rect class="cls-60" x="13.63" y="26" width="390.1" height="215.53" rx="33.4" ry="33.4"/>
    <rect class="cls-9" x="13.71" y="25.8" width="390.1" height="215.53" rx="33.4" ry="33.4"/>
    <rect class="cls-43" x="13.8" y="25.61" width="390.1" height="215.53" rx="33.4" ry="33.4"/>
    <rect class="cls-93" x="13.88" y="25.41" width="390.1" height="215.53" rx="33.4" ry="33.4"/>
    <rect class="cls-61" x="13.97" y="25.21" width="390.1" height="215.53" rx="33.4" ry="33.4"/>
    <rect class="cls-85" x="14.05" y="25.01" width="390.1" height="215.53" rx="33.4" ry="33.4"/>
    <rect class="cls-80" x="14.14" y="24.81" width="390.1" height="215.53" rx="33.4" ry="33.4"/>
    <rect class="cls-69" x="14.22" y="24.61" width="390.1" height="215.53" rx="33.4" ry="33.4"/>
    <rect class="cls-83" x="14.31" y="24.41" width="390.1" height="215.53" rx="33.4" ry="33.4"/>
    <rect class="cls-12" x="14.39" y="24.21" width="390.1" height="215.53" rx="33.4" ry="33.4"/>
    <rect class="cls-22" x="14.48" y="24.02" width="390.1" height="215.53" rx="33.4" ry="33.4"/>
    <rect class="cls-77" x="14.56" y="23.82" width="390.1" height="215.53" rx="33.4" ry="33.4"/>
    <rect class="cls-4" x="14.65" y="23.62" width="390.1" height="215.53" rx="33.4" ry="33.4"/>
    <rect class="cls-21" x="14.73" y="23.42" width="390.1" height="215.53" rx="33.4" ry="33.4"/>
    <rect class="cls-42" x="14.82" y="23.22" width="390.1" height="215.53" rx="33.4" ry="33.4"/>
    <rect class="cls-55" x="14.9" y="23.02" width="390.1" height="215.53" rx="33.4" ry="33.4"/>
    <rect class="cls-47" x="14.99" y="22.82" width="390.1" height="215.53" rx="33.4" ry="33.4"/>
    <rect class="cls-54" x="15.07" y="22.63" width="390.1" height="215.53" rx="33.4" ry="33.4"/>
    <rect class="cls-64" x="15.16" y="22.43" width="390.1" height="215.53" rx="33.4" ry="33.4"/>
    <rect class="cls-70" x="15.24" y="22.23" width="390.1" height="215.53" rx="33.4" ry="33.4"/>
    <rect class="cls-8" x="15.33" y="22.03" width="390.1" height="215.53" rx="33.4" ry="33.4"/>
    <rect class="cls-84" x="15.41" y="21.83" width="390.1" height="215.53" rx="33.4" ry="33.4"/>
    <rect class="cls-40" x="15.5" y="21.63" width="390.1" height="215.53" rx="33.4" ry="33.4"/>
    <rect class="cls-6" x="15.58" y="21.43" width="390.1" height="215.53" rx="33.4" ry="33.4"/>
    <rect class="cls-45" x="15.67" y="21.24" width="390.1" height="215.53" rx="33.4" ry="33.4"/>
    <rect class="cls-79" x="15.75" y="21.04" width="390.1" height="215.53" rx="33.4" ry="33.4"/>
    <rect class="cls-81" x="15.84" y="20.84" width="390.1" height="215.53" rx="33.4" ry="33.4"/>
    <rect class="cls-89" x="15.92" y="20.64" width="390.1" height="215.53" rx="33.4" ry="33.4"/>
    <rect class="cls-78" x="16.01" y="20.44" width="390.1" height="215.53" rx="33.4" ry="33.4"/>
    <rect class="cls-63" x="16.09" y="20.24" width="390.1" height="215.53" rx="33.4" ry="33.4"/>
    <rect class="cls-71" x="16.18" y="20.04" width="390.1" height="215.53" rx="33.4" ry="33.4"/>
    <rect class="cls-52" x="16.26" y="19.84" width="390.1" height="215.53" rx="33.4" ry="33.4"/>
    <rect class="cls-26" x="16.35" y="19.65" width="390.1" height="215.53" rx="33.4" ry="33.4"/>
    <rect class="cls-10" x="16.43" y="19.45" width="390.1" height="215.53" rx="33.4" ry="33.4"/>
    <rect class="cls-82" x="16.52" y="19.25" width="390.1" height="215.53" rx="33.4" ry="33.4"/>
    <rect class="cls-1" x="16.6" y="19.05" width="390.1" height="215.53" rx="33.4" ry="33.4"/>
    <rect class="cls-66" x="16.69" y="18.85" width="390.1" height="215.53" rx="33.4" ry="33.4"/>
    <rect class="cls-38" x="16.77" y="18.65" width="390.1" height="215.53" rx="33.4" ry="33.4"/>
    <rect class="cls-29" x="16.86" y="18.45" width="390.1" height="215.53" rx="33.4" ry="33.4"/>
    <rect class="cls-16" x="16.94" y="18.26" width="390.1" height="215.53" rx="33.4" ry="33.4"/>
    <rect class="cls-30" x="17.03" y="18.06" width="390.1" height="215.53" rx="33.4" ry="33.4"/>
    <rect class="cls-24" x="17.11" y="17.86" width="390.1" height="215.53" rx="33.4" ry="33.4"/>
    <rect class="cls-25" x="17.2" y="17.66" width="390.1" height="215.53" rx="33.4" ry="33.4"/>
    <rect class="cls-15" x="17.28" y="17.46" width="390.1" height="215.53" rx="33.4" ry="33.4"/>
    <rect class="cls-86" x="17.37" y="17.26" width="390.1" height="215.53" rx="33.4" ry="33.4"/>
    <rect class="cls-44" x="17.45" y="17.06" width="390.1" height="215.53" rx="33.4" ry="33.4"/>
    <rect class="cls-27" x="17.54" y="16.87" width="390.1" height="215.53" rx="33.4" ry="33.4"/>
    <rect class="cls-28" x="17.62" y="16.67" width="390.1" height="215.53" rx="33.4" ry="33.4"/>
    <rect class="cls-34" x="17.71" y="16.47" width="390.1" height="215.53" rx="33.4" ry="33.4"/>
    <rect class="cls-13" x="17.79" y="16.27" width="390.1" height="215.53" rx="33.4" ry="33.4"/>
    <rect class="cls-59" x="17.88" y="16.07" width="390.1" height="215.53" rx="33.4" ry="33.4"/>
    <rect class="cls-48" x="17.96" y="15.87" width="390.1" height="215.53" rx="33.4" ry="33.4"/>
    <rect class="cls-74" x="18.05" y="15.67" width="390.1" height="215.53" rx="33.4" ry="33.4"/>
    <rect class="cls-19" x="18.13" y="15.47" width="390.1" height="215.53" rx="33.4" ry="33.4"/>
    <rect class="cls-5" x="18.22" y="15.28" width="390.1" height="215.53" rx="33.4" ry="33.4"/>
    <rect class="cls-58" x="18.3" y="15.08" width="390.1" height="215.53" rx="33.4" ry="33.4"/>
    <rect class="cls-90" x="18.39" y="14.88" width="390.1" height="215.53" rx="33.4" ry="33.4"/>
    <rect class="cls-31" x="18.47" y="14.68" width="390.1" height="215.53" rx="33.4" ry="33.4"/>
    <rect class="cls-62" x="18.56" y="14.48" width="390.1" height="215.53" rx="33.4" ry="33.4"/>
    <rect class="cls-18" x="18.64" y="14.28" width="390.1" height="215.53" rx="33.4" ry="33.4"/>
    <rect class="cls-41" x="18.73" y="14.08" width="390.1" height="215.53" rx="33.4" ry="33.4"/>
    <rect class="cls-7" x="18.81" y="13.89" width="390.1" height="215.53" rx="33.4" ry="33.4"/>
    <rect class="cls-20" x="18.9" y="13.69" width="390.1" height="215.53" rx="33.4" ry="33.4"/>
    <rect class="cls-72" x="18.98" y="13.49" width="390.1" height="215.53" rx="33.4" ry="33.4"/>
    <rect class="cls-23" x="19.07" y="13.29" width="390.1" height="215.53" rx="33.4" ry="33.4"/>
    <rect class="cls-11" x="19.15" y="13.09" width="390.1" height="215.53" rx="33.4" ry="33.4"/>
    <rect class="cls-35" x="19.24" y="12.89" width="390.1" height="215.53" rx="33.4" ry="33.4"/>
    <rect class="cls-94" x="19.32" y="12.69" width="390.1" height="215.53" rx="33.4" ry="33.4"/>
    <rect class="cls-68" x="19.41" y="12.5" width="390.1" height="215.53" rx="33.4" ry="33.4"/>
    <rect class="cls-87" x="19.49" y="12.3" width="390.1" height="215.53" rx="33.4" ry="33.4"/>
    <rect class="cls-14" x="19.58" y="12.1" width="390.1" height="215.53" rx="33.4" ry="33.4"/>
    <rect class="cls-49" x="19.66" y="11.9" width="390.1" height="215.53" rx="33.4" ry="33.4"/>
    <rect class="cls-3" x="19.75" y="11.7" width="390.1" height="215.53" rx="33.4" ry="33.4"/>
    <rect class="cls-73" x="19.83" y="11.5" width="390.1" height="215.53" rx="33.4" ry="33.4"/>
    <rect class="cls-37" x="19.92" y="11.3" width="390.1" height="215.53" rx="33.4" ry="33.4"/>
    <rect class="cls-39" x="20" y="11.1" width="390.1" height="215.53" rx="33.4" ry="33.4"/>
    <rect class="cls-51" x="20.09" y="10.91" width="390.1" height="215.53" rx="33.4" ry="33.4"/>
    <rect class="cls-2" x="20.17" y="10.71" width="390.1" height="215.53" rx="33.4" ry="33.4"/>
    <rect class="cls-46" x="20.26" y="10.51" width="390.1" height="215.53" rx="33.4" ry="33.4"/>
    <rect class="cls-76" x="20.34" y="10.31" width="390.1" height="215.53" rx="33.4" ry="33.4"/>
    <rect class="cls-67" x="20.43" y="10.11" width="390.1" height="215.53" rx="33.4" ry="33.4"/>
    <rect class="cls-32" x="20.51" y="9.91" width="390.1" height="215.53" rx="33.4" ry="33.4"/>
    <rect class="cls-57" x="20.6" y="9.71" width="390.1" height="215.53" rx="33.4" ry="33.4"/>
    <rect class="cls-75" x="20.68" y="9.52" width="390.1" height="215.53" rx="33.4" ry="33.4"/>
    <rect class="cls-33" x="20.77" y="9.32" width="390.1" height="215.53" rx="33.4" ry="33.4"/>
    <rect class="cls-53" x="20.85" y="9.12" width="390.1" height="215.53" rx="33.4" ry="33.4"/>
    <rect class="cls-65" x="20.94" y="8.92" width="390.1" height="215.53" rx="33.4" ry="33.4"/>
    <rect class="cls-36" x="21.02" y="8.72" width="390.1" height="215.53" rx="33.4" ry="33.4"/>
    <rect class="cls-92" x="21.11" y="8.52" width="390.1" height="215.53" rx="33.4" ry="33.4"/>
    <rect class="cls-56" x="21.19" y="8.32" width="390.1" height="215.53" rx="33.4" ry="33.4"/>
    <rect class="cls-17" x="21.28" y="8.12" width="390.1" height="215.53" rx="33.4" ry="33.4"/>
  </g>
</svg>