<?xml version="1.0" encoding="UTF-8"?>
<svg id="Layer_5" data-name="Layer 5" xmlns="http://www.w3.org/2000/svg" viewBox="0 0 1920 1080">
  <defs>
    <style>
      .cls-1 {
        stroke: #f49c75;
      }

      .cls-1, .cls-2, .cls-3, .cls-4, .cls-5, .cls-6, .cls-7, .cls-8, .cls-9, .cls-10, .cls-11, .cls-12, .cls-13, .cls-14, .cls-15, .cls-16, .cls-17, .cls-18, .cls-19, .cls-20, .cls-21, .cls-22, .cls-23, .cls-24, .cls-25, .cls-26, .cls-27, .cls-28, .cls-29, .cls-30, .cls-31, .cls-32, .cls-33, .cls-34, .cls-35, .cls-36, .cls-37, .cls-38, .cls-39, .cls-40, .cls-41, .cls-42, .cls-43, .cls-44, .cls-45, .cls-46, .cls-47, .cls-48, .cls-49, .cls-50, .cls-51, .cls-52, .cls-53, .cls-54, .cls-55, .cls-56, .cls-57, .cls-58, .cls-59, .cls-60, .cls-61, .cls-62, .cls-63, .cls-64, .cls-65, .cls-66, .cls-67, .cls-68, .cls-69, .cls-70, .cls-71, .cls-72, .cls-73, .cls-74, .cls-75, .cls-76, .cls-77, .cls-78, .cls-79, .cls-80, .cls-81, .cls-82, .cls-83, .cls-84, .cls-85, .cls-86, .cls-87, .cls-88, .cls-89, .cls-90, .cls-91, .cls-92, .cls-93, .cls-94, .cls-95, .cls-96, .cls-97, .cls-98, .cls-99, .cls-100, .cls-101, .cls-102, .cls-103, .cls-104 {
        stroke-miterlimit: 10;
      }

      .cls-1, .cls-2, .cls-3, .cls-4, .cls-5, .cls-6, .cls-7, .cls-8, .cls-9, .cls-10, .cls-11, .cls-12, .cls-13, .cls-14, .cls-15, .cls-16, .cls-17, .cls-18, .cls-19, .cls-20, .cls-21, .cls-22, .cls-23, .cls-24, .cls-25, .cls-26, .cls-27, .cls-28, .cls-29, .cls-30, .cls-31, .cls-32, .cls-33, .cls-34, .cls-35, .cls-36, .cls-38, .cls-39, .cls-40, .cls-41, .cls-42, .cls-43, .cls-44, .cls-45, .cls-46, .cls-47, .cls-48, .cls-49, .cls-50, .cls-51, .cls-52, .cls-53, .cls-54, .cls-55, .cls-56, .cls-57, .cls-58, .cls-59, .cls-60, .cls-61, .cls-62, .cls-63, .cls-64, .cls-65, .cls-66, .cls-67, .cls-68, .cls-69, .cls-70, .cls-71, .cls-72, .cls-73, .cls-74, .cls-75, .cls-76, .cls-77, .cls-78, .cls-79, .cls-80, .cls-81, .cls-82, .cls-83, .cls-84, .cls-85, .cls-86, .cls-87, .cls-88, .cls-89, .cls-90, .cls-91, .cls-92, .cls-93, .cls-94, .cls-95, .cls-96, .cls-97, .cls-98, .cls-99, .cls-100, .cls-101, .cls-102, .cls-103, .cls-104 {
        fill: none;
        stroke-width: 8px;
      }

      .cls-2 {
        stroke: #facb9d;
      }

      .cls-3 {
        stroke: #f28965;
      }

      .cls-4 {
        stroke: #f1825f;
      }

      .cls-5 {
        stroke: #ef7353;
      }

      .cls-6 {
        stroke: #ef7756;
      }

      .cls-7 {
        stroke: #fbd0a1;
      }

      .cls-8 {
        stroke: #f3926d;
      }

      .cls-105 {
        fill: #fff;
      }

      .cls-9 {
        stroke: #f28e69;
      }

      .cls-10 {
        stroke: #facc9e;
      }

      .cls-11 {
        stroke: #f07e5c;
      }

      .cls-106 {
        fill: #ee6c4d;
      }

      .cls-12 {
        stroke: #f7b288;
      }

      .cls-13 {
        stroke: #f28864;
      }

      .cls-14 {
        stroke: #f9c598;
      }

      .cls-15 {
        stroke: #f49d76;
      }

      .cls-16 {
        stroke: #fbcfa0;
      }

      .cls-17 {
        stroke: #f49973;
      }

      .cls-107 {
        fill: #3dbfc9;
      }

      .cls-18 {
        stroke: #f07c5a;
      }

      .cls-19 {
        stroke: #f7af86;
      }

      .cls-20 {
        stroke: #f5a47c;
      }

      .cls-21 {
        stroke: #f9bf93;
      }

      .cls-108 {
        fill: #ffd6a1;
      }

      .cls-22 {
        stroke: #facd9f;
      }

      .cls-109 {
        fill: #fbd1a2;
      }

      .cls-23 {
        stroke: #7a7a7a;
        stroke-linecap: round;
      }

      .cls-24 {
        stroke: #f28f6a;
      }

      .cls-25 {
        stroke: #f8b98e;
      }

      .cls-26 {
        stroke: #f39670;
      }

      .cls-27 {
        stroke: #ee6c4d;
      }

      .cls-28 {
        stroke: #f7b187;
      }

      .cls-29 {
        stroke: #f49872;
      }

      .cls-30 {
        stroke: #f7b389;
      }

      .cls-31 {
        stroke: #f07f5d;
      }

      .cls-32 {
        stroke: #fac699;
      }

      .cls-33 {
        stroke: #f18764;
      }

      .cls-34 {
        stroke: #f3906b;
      }

      .cls-35 {
        stroke: #f49b74;
      }

      .cls-36 {
        stroke: #f07b5a;
      }

      .cls-37 {
        fill: #efba95;
        stroke: #d85c48;
      }

      .cls-110 {
        fill: #632d00;
      }

      .cls-38 {
        stroke: #f9be92;
      }

      .cls-39 {
        stroke: #f6ad84;
      }

      .cls-40 {
        stroke: #fac99b;
      }

      .cls-41 {
        stroke: #f8ba8f;
      }

      .cls-42 {
        stroke: #f3956f;
      }

      .cls-111 {
        fill: #f49f78;
      }

      .cls-43 {
        stroke: #f6a77f;
      }

      .cls-44 {
        stroke: #f28b67;
      }

      .cls-45 {
        stroke: #f5a079;
      }

      .cls-46 {
        stroke: #f18562;
      }

      .cls-47 {
        stroke: #f07a59;
      }

      .cls-48 {
        stroke: #f9c497;
      }

      .cls-49 {
        stroke: #ef7050;
      }

      .cls-50 {
        stroke: #f07d5b;
      }

      .cls-51 {
        stroke: #f6a981;
      }

      .cls-52 {
        stroke: #f5a17a;
      }

      .cls-53 {
        stroke: #f3936e;
      }

      .cls-54 {
        stroke: #f6ab82;
      }

      .cls-55 {
        stroke: #f6ac83;
      }

      .cls-56 {
        stroke: #fac79a;
      }

      .cls-57 {
        stroke: #ef7655;
      }

      .cls-58 {
        stroke: #ee6f50;
      }

      .cls-59 {
        stroke: #f07857;
      }

      .cls-60 {
        stroke: #f59f78;
      }

      .cls-61 {
        stroke: #f39771;
      }

      .cls-62 {
        stroke: #f8b78c;
      }

      .cls-63 {
        stroke: #ef7555;
      }

      .cls-64 {
        stroke: #f18360;
      }

      .cls-65 {
        stroke: #f3946e;
      }

      .cls-66 {
        stroke: #f6a67e;
      }

      .cls-67 {
        stroke: #f9c094;
      }

      .cls-68 {
        stroke: #f6aa81;
      }

      .cls-69 {
        stroke: #f8b68b;
      }

      .cls-70 {
        stroke: #f28d69;
      }

      .cls-112 {
        fill: #ff8de4;
      }

      .cls-71 {
        stroke: #f9c295;
      }

      .cls-72 {
        stroke: #f5a27b;
      }

      .cls-73 {
        stroke: #ef7252;
      }

      .cls-74 {
        stroke: #f9c195;
      }

      .cls-75 {
        stroke: #f49a73;
      }

      .cls-76 {
        stroke: #ef7454;
      }

      .cls-113 {
        fill: #512300;
      }

      .cls-114 {
        fill: #474747;
      }

      .cls-77 {
        stroke: #f7b58b;
      }

      .cls-78 {
        stroke: #f8bb90;
      }

      .cls-79 {
        stroke: #ee6e4f;
      }

      .cls-80 {
        stroke: #f18663;
      }

      .cls-115 {
        fill: #edeceb;
      }

      .cls-81 {
        stroke: #f5a37c;
      }

      .cls-82 {
        stroke: #f1805e;
      }

      .cls-83 {
        stroke: #f7b086;
      }

      .cls-84 {
        stroke: #f9c396;
      }

      .cls-85 {
        stroke: #f07958;
      }

      .cls-86 {
        stroke: #fac89a;
      }

      .cls-87 {
        stroke: #f28c68;
      }

      .cls-88 {
        stroke: #f49e77;
      }

      .cls-89 {
        stroke: #f18461;
      }

      .cls-90 {
        stroke: #f8bd91;
      }

      .cls-91 {
        stroke: #ee6d4e;
      }

      .cls-92 {
        stroke: #fbd1a2;
      }

      .cls-93 {
        stroke: #f1815f;
      }

      .cls-94 {
        stroke: #f7ae85;
      }

      .cls-95 {
        stroke: #f8bc90;
      }

      .cls-96 {
        stroke: #f8b88d;
      }

      .cls-97 {
        stroke: #fbce9f;
      }

      .cls-98 {
        stroke: #f7b48a;
      }

      .cls-99 {
        stroke: #f6a880;
      }

      .cls-100 {
        stroke: #faca9c;
      }

      .cls-101 {
        stroke: #f5a57d;
      }

      .cls-102 {
        stroke: #f3916c;
      }

      .cls-103 {
        stroke: #f28a66;
      }

      .cls-104 {
        stroke: #ef7151;
      }
    </style>
  </defs>
  <path class="cls-105" d="M384.12,71h0c0-7.73-6.36-14-14.19-14H149.91c-7.84,0-14.19,6.27-14.19,14v10.75c0,7.73,6.36,14,14.19,14h145.88c7.84,0,14.19,6.27,14.19,14h0c0,7.73,6.36,14,14.19,14h220.02c7.84,0,14.19-6.27,14.19-14v-10.75c0-7.73-6.36-14-14.19-14h-145.88c-7.84,0-14.19-6.27-14.19-14Z"/>
  <rect class="cls-105" x="952.99" y="94.6" width="64.8" height="22"/>
  <g>
    <rect class="cls-105" x="1031.26" y="48.42" width="36.88" height="8" rx="3.99" ry="3.99" transform="translate(2099.41 104.83) rotate(-180)"/>
    <rect class="cls-105" x="1031.2" y="48.43" width="37" height="7.98" rx="3.99" ry="3.99" transform="translate(997.29 1102.12) rotate(-90)"/>
  </g>
  <rect class="cls-107" x="1" y="2" width="1920" height="1080"/>
  <g>
    <polygon class="cls-106" points="904.77 409.18 904.75 409.14 904.88 409.11 904.77 409.18"/>
    <polygon class="cls-106" points="837.73 521.5 837.7 519.96 841.26 520.36 837.73 521.5"/>
    <polygon class="cls-106" points="904.77 409.18 904.75 409.14 904.88 409.11 904.77 409.18"/>
    <path class="cls-106" d="M823.21,518.35l.12,7.77,14.39-4.62-.03-1.53,3.56,.4-3.53,1.13,3.5,221.15,119.13-151.66,246.62,290.43-145.29-330.59,224.27-251.52-258.17,74.39L816.4,88.51l5.3,334.27-198.52,73.23,200.04,22.33Zm81.54-109.2l.13-.04-.11,.07-.02-.03Z"/>
    <polygon class="cls-106" points="837.73 521.5 837.7 519.96 841.26 520.36 837.73 521.5"/>
    <polygon class="cls-106" points="904.77 409.18 904.75 409.14 904.88 409.11 904.77 409.18"/>
  </g>
  <g>
    <path d="M462.8,656.06l126.82,124.88c2.21,2.18,2.25,5.78,.09,8.01l-22.35,23.02c-2.16,2.23-5.74,2.27-7.96,.09l-126.82-124.88c-2.21-2.18-2.25-5.78-.09-8.01l22.35-23.02c2.16-2.23,5.74-2.27,7.96-.09Z"/>
    <path d="M183.33,482.77l50.4,171.25c.88,2.99-.83,6.16-3.8,7.05l-30.64,9.19c-2.97,.89-6.11-.82-6.99-3.81l-50.4-171.25c-.88-2.99,.83-6.16,3.8-7.05l30.64-9.19c2.97-.89,6.11,.82,6.99,3.81Z"/>
    <ellipse class="cls-115" cx="426.29" cy="396.95" rx="296.57" ry="345.71" transform="translate(-146.54 502.56) rotate(-53.4)"/>
    <ellipse class="cls-108" cx="204.69" cy="218.35" rx="153.01" ry="130.13" transform="translate(-92.86 250.61) rotate(-53.04)"/>
    <path d="M419.55,159.67l-118.31-17.88c-11.54-1.74-19.81-12.51-18.36-23.92h0c1.45-11.41,12.08-19.32,23.63-17.58l118.31,17.88c11.54,1.74,19.81,12.51,18.36,23.92h0c-1.45,11.41-12.08,19.32-23.63,17.58Z"/>
    <path d="M433.88,225.15l-115.28-30.58c-11.25-2.98-17.8-14.49-14.56-25.57h0c3.24-11.08,15.09-17.7,26.34-14.72l115.28,30.58c11.25,2.98,17.8,14.49,14.56,25.57h0c-3.24,11.08-15.09,17.7-26.34,14.72Z"/>
    <ellipse class="cls-115" cx="274.44" cy="121.91" rx="56.67" ry="93.23" transform="translate(12.63 268.99) rotate(-53.28)"/>
    <ellipse class="cls-105" cx="254.27" cy="228.27" rx="34.95" ry="32.05" transform="translate(-81.19 293.28) rotate(-52.88)"/>
    <ellipse cx="272.77" cy="230.3" rx="16.06" ry="16.02" transform="translate(-84.22 231.33) rotate(-40.34)"/>
    <ellipse cx="134.91" cy="281.76" rx="16.06" ry="16.02" transform="translate(-150.31 154.32) rotate(-40.34)"/>
    <ellipse class="cls-105" cx="188.14" cy="178.87" rx="34.95" ry="32.05" transform="translate(-68.03 220.96) rotate(-52.88)"/>
    <path d="M201.39,474.25l125.5,125.89c2.19,2.2,2.18,5.8,0,8l-22.64,22.79c-2.19,2.21-5.78,2.22-7.97,.02l-125.5-125.89c-2.19-2.2-2.18-5.8,0-8l22.64-22.79c2.19-2.21,5.78-2.22,7.97-.02Z"/>
    <path d="M500.1,629.51l154.8,95.33c1.66,1.02,2.18,3.22,1.16,4.88l-19.03,31.02c-1.02,1.66-3.2,2.18-4.86,1.16l-154.8-95.33c-1.66-1.02-2.18-3.22-1.16-4.88l19.03-31.02c1.02-1.66,3.2-2.18,4.86-1.16Z"/>
    <ellipse class="cls-115" cx="738.71" cy="610.13" rx="41.56" ry="38.84" transform="translate(-193.94 829.48) rotate(-52.79)"/>
    <ellipse cx="169.29" cy="173.05" rx="16.06" ry="16.02" transform="translate(-71.76 150.73) rotate(-40.34)"/>
    <ellipse cx="194.84" cy="367.1" rx="47.23" ry="37.14" transform="translate(-215.7 302.45) rotate(-53.09)"/>
    <ellipse cx="167.02" cy="305.74" rx="16.06" ry="16.02" transform="translate(-158.2 180.81) rotate(-40.34)"/>
    <path class="cls-112" d="M201.91,359.59h0c.43-5.97,5.71-10.38,11.75-9.8l42.76,4.11c6.03,.58,10.62,5.94,10.2,11.91h0c-.43,5.97-5.71,10.38-11.75,9.8l-42.76-4.11c-6.03-.58-10.62-5.94-10.2-11.91Z"/>
    <path class="cls-112" d="M282.55,395.67h0c-1.24-5.9,2.59-11.61,8.51-12.68l41.95-7.63c5.92-1.08,11.78,2.87,13.02,8.77h0c1.24,5.9-2.59,11.61-8.51,12.68l-41.95,7.63c-5.92,1.08-11.78-2.87-13.02-8.77Z"/>
    <path class="cls-112" d="M248.85,360.08h0c4.02-4.38,11.01-4.6,15.53-.5l32.04,29.05c4.52,4.1,4.93,11.04,.92,15.41h0c-4.02,4.38-11.01,4.6-15.53,.5l-32.04-29.05c-4.52-4.1-4.93-11.04-.92-15.41Z"/>
    <path class="cls-114" d="M497.51,630.17l158,97.3c.78,.48,1.02,1.51,.54,2.29l-8.92,14.55c-.48,.78-1.5,1.02-2.28,.55l-158-97.3c-.78-.48-1.02-1.51-.54-2.29l8.92-14.55c.48-.78,1.5-1.02,2.28-.55Z"/>
    <path class="cls-114" d="M197.38,473.34l129.2,130.65c1.02,1.03,1.01,2.72-.02,3.75l-10.66,10.65c-1.03,1.03-2.71,1.03-3.74,0l-129.2-130.65c-1.02-1.03-1.01-2.72,.02-3.75l10.66-10.65c1.03-1.03,2.71-1.03,3.74,0Z"/>
    <path class="cls-114" d="M365.64,174.24l79.22,20.03c5.24,1.33,8.35,6.64,6.9,11.8l-3.24,11.56c-1.45,5.17-6.92,8.31-12.16,6.98l-79.22-20.03c-5.24-1.33-8.35-6.64-6.9-11.8l3.24-11.56c1.45-5.17,6.92-8.31,12.16-6.98Z"/>
  </g>
  <g>
    <polygon class="cls-110" points="1293.26 765.13 1134.97 592.2 1255 487.74 1413.3 660.67 1293.26 765.13"/>
    <polygon class="cls-110" points="1387.79 798.2 1284.3 685.14 1406.79 578.55 1510.27 691.6 1387.79 798.2"/>
    <ellipse class="cls-110" cx="1109.51" cy="446.11" rx="100.46" ry="108.98" transform="translate(62.03 1023) rotate(-50.75)"/>
    <path class="cls-110" d="M1406.54,756.01l-320.32-222.67c-13.72-9.54-16.95-28.1-7.21-41.46l59.82-82.01c9.74-13.36,28.77-16.46,42.49-6.92l320.32,222.67c13.72,9.54,16.95,28.1,7.21,41.46l-59.82,82.01c-9.74,13.36-28.77,16.46-42.49,6.92Z"/>
    <path class="cls-110" d="M1419.31,847.06l-61.52-67.21c-19.94-21.79-18-55.21,4.35-74.66l294.87-256.62c22.34-19.45,56.63-17.55,76.57,4.24l61.52,67.21c19.94,21.79,18,55.21-4.35,74.66l-294.87,256.62c-22.34,19.45-56.63,17.55-76.57-4.24Z"/>
    <path class="cls-110" d="M1617.54,683.79l-19.58-91.26c-3.45-16.07-19.6-26.41-36.07-23.09l-145.61,29.35c-16.47,3.32-27.03,19.04-23.58,35.12l19.58,91.26c3.45,16.07,19.6,26.41,36.07,23.09l145.61-29.35c16.47-3.32,27.03-19.04,23.58-35.12Z"/>
    <path class="cls-110" d="M1604.45,727.24l-381.91-90.78c-16.36-3.89-26.43-19.97-22.49-35.92l24.21-97.91c3.94-15.95,20.4-25.72,36.77-21.83l381.91,90.78c16.36,3.89,26.43,19.97,22.49,35.92l-24.21,97.91c-3.94,15.95-20.4,25.72-36.77,21.83Z"/>
    <polygon class="cls-110" points="1212.75 223.29 1215.38 226.16 1212.44 228.72 1209.81 225.85 1212.75 223.29"/>
    <path class="cls-110" d="M1472.8,905.5l-42.23-46.13c-19.94-21.79-18-55.21,4.35-74.66l294.87-256.62c22.34-19.45,56.63-17.55,76.57,4.24l42.23,46.13c19.94,21.79,18,55.21-4.35,74.66l-294.87,256.62c-22.34,19.45-56.63,17.55-76.57-4.24Z"/>
    <path class="cls-110" d="M1490.45,969.97l-9.13-9.97c-29.93-32.7-27.01-82.86,6.53-112.05l21.62-18.82c33.53-29.18,84.98-26.34,114.91,6.36l9.13,9.97c29.93,32.7,27.01,82.86-6.53,112.05l-21.62,18.82c-33.53,29.18-84.98,26.34-114.91-6.36Z"/>
    <path class="cls-110" d="M1608.84,930.32l-49.67-31.94c-17.4-11.19-22.24-33.99-10.82-50.93l148.22-219.79c11.42-16.94,34.79-21.6,52.19-10.41l49.67,31.94c17.4,11.19,22.24,33.99,10.82,50.93l-148.22,219.79c-11.42,16.94-34.79,21.6-52.19,10.41Z"/>
    <path class="cls-110" d="M1654.67,812.81l-13.46-14.7c-14.08-15.39-12.71-38.99,3.07-52.72l170.19-148.11c15.78-13.73,39.99-12.39,54.07,2.99l13.46,14.7c14.08,15.39,12.71,38.99-3.07,52.72l-170.19,148.11c-15.78,13.73-39.99,12.39-54.07-2.99Z"/>
    <path d="M1211.21,716.84l-230.14-251.42c-9.95-10.87-8.98-27.54,2.17-37.24l.3-.26c11.15-9.7,28.24-8.75,38.19,2.11l230.14,251.42c9.95,10.87,8.98,27.54-2.17,37.24l-.3,.26c-11.15,9.7-28.24,8.75-38.19-2.11Z"/>
    <path d="M1346.02,809.03l-122.13-78.53c-9.05-5.82-11.57-17.67-5.63-26.48l9.3-13.78c5.94-8.81,18.09-11.23,27.14-5.42l122.13,78.53c9.05,5.82,11.57,17.67,5.63,26.48l-9.3,13.78c-5.94,8.81-18.09,11.23-27.14,5.42Z"/>
    <path d="M1533.36,1011.08l-189.49-207.01c-8.1-8.84-7.31-22.41,1.77-30.31l6.84-5.95c9.07-7.89,22.99-7.12,31.08,1.72l189.49,207.01c8.1,8.84,7.31,22.41-1.77,30.31l-6.84,5.95c-9.07,7.89-22.99,7.12-31.08-1.72Z"/>
    <path d="M1497.86,1037.69l-136-148.57c-9.3-10.17-8.4-25.76,2.03-34.83l15.65-13.62c10.43-9.07,26.42-8.19,35.72,1.98l136,148.57c9.3,10.17,8.4,25.76-2.03,34.83l-15.65,13.62c-10.43,9.07-26.42,8.19-35.72-1.98Z"/>
    <path d="M985.5,485.65l-12.32-13.46c-7.5-8.19-6.76-20.75,1.63-28.06l6.82-5.94c8.4-7.31,21.28-6.6,28.78,1.59l12.32,13.46c7.5,8.19,6.76,20.75-1.63,28.06l-6.82,5.94c-8.4,7.31-21.28,6.6-28.78-1.59Z"/>
    <path d="M1031.54,535.94l-12.32-13.46c-7.5-8.19-6.76-20.75,1.63-28.06l6.82-5.94c8.4-7.31,21.28-6.6,28.78,1.59l12.32,13.46c7.5,8.19,6.76,20.75-1.63,28.06l-6.82,5.94c-8.4,7.31-21.28,6.6-28.78-1.59Z"/>
    <path d="M1080.21,589.12l-12.32-13.46c-7.5-8.19-6.76-20.75,1.63-28.06l6.82-5.94c8.4-7.31,21.28-6.6,28.78,1.59l12.32,13.46c7.5,8.19,6.76,20.75-1.63,28.06l-6.82,5.94c-8.4,7.31-21.28,6.6-28.78-1.59Z"/>
    <path d="M1127.13,640.37l-12.32-13.46c-7.5-8.19-6.76-20.75,1.63-28.06l6.82-5.94c8.4-7.31,21.28-6.6,28.78,1.59l12.32,13.46c7.5,8.19,6.76,20.75-1.63,28.06l-6.82,5.94c-8.4,7.31-21.28,6.6-28.78-1.59Z"/>
    <path d="M1454.81,1004.12l-12.32-13.46c-7.5-8.19-6.76-20.75,1.63-28.06l6.82-5.94c8.4-7.31,21.28-6.6,28.78,1.59l12.32,13.46c7.5,8.19,6.76,20.75-1.63,28.06l-6.82,5.94c-8.4,7.31-21.28,6.6-28.78-1.59Z"/>
    <path d="M1216.14,737.62l-12.32-13.46c-7.5-8.19-6.76-20.75,1.63-28.06l6.82-5.94c8.4-7.31,21.28-6.6,28.78,1.59l12.32,13.46c7.5,8.19,6.76,20.75-1.63,28.06l-6.82,5.94c-8.4,7.31-21.28,6.6-28.78-1.59Z"/>
    <path d="M1171.85,689.23l-12.32-13.46c-7.5-8.19-6.76-20.75,1.63-28.06l6.82-5.94c8.4-7.31,21.28-6.6,28.78,1.59l12.32,13.46c7.5,8.19,6.76,20.75-1.63,28.06l-6.82,5.94c-8.4,7.31-21.28,6.6-28.78-1.59Z"/>
    <path d="M1411.4,956.7l-12.32-13.46c-7.5-8.19-6.76-20.75,1.63-28.06l6.82-5.94c8.4-7.31,21.28-6.6,28.78,1.59l12.32,13.46c7.5,8.19,6.76,20.75-1.63,28.06l-6.82,5.94c-8.4,7.31-21.28,6.6-28.78-1.59Z"/>
    <path d="M1367.55,908.79l-12.32-13.46c-7.5-8.19-6.76-20.75,1.63-28.06l6.82-5.94c8.4-7.31,21.28-6.6,28.78,1.59l12.32,13.46c7.5,8.19,6.76,20.75-1.63,28.06l-6.82,5.94c-8.4,7.31-21.28,6.6-28.78-1.59Z"/>
    <path d="M1496.03,1049.15l-12.32-13.46c-7.5-8.19-6.76-20.75,1.63-28.06l6.82-5.94c8.4-7.31,21.28-6.6,28.78,1.59l12.32,13.46c7.5,8.19,6.76,20.75-1.63,28.06l-6.82,5.94c-8.4,7.31-21.28,6.6-28.78-1.59Z"/>
    <path class="cls-110" d="M1540.04,557.67l-5.6-1.61c-4.03-1.16-6.34-5.29-5.16-9.22l17.18-57.25c1.18-3.93,5.4-6.17,9.43-5.01l5.6,1.61c4.03,1.16,6.34,5.29,5.16,9.22l-17.18,57.25c-1.18,3.93-5.4,6.17-9.43,5.01Z"/>
    <path class="cls-110" d="M1559.87,495.97l-5.76,.83c-4.15,.6-8.03-2.2-8.66-6.25l-11.46-74.11c-.63-4.05,2.23-7.82,6.39-8.42l5.76-.83c4.15-.6,8.03,2.2,8.66,6.25l11.46,74.11c.63,4.05-2.23,7.82-6.39,8.42Z"/>
    <path class="cls-110" d="M1549.51,420.35h-.02c-4.83,3.14-11.34,1.86-14.55-2.84l-27.23-39.89c-3.21-4.71-1.9-11.07,2.93-14.2h.02c4.83-3.14,11.34-1.86,14.55,2.84l27.23,39.89c3.21,4.71,1.9,11.07-2.93,14.2Z"/>
    <path class="cls-113" d="M1489.8,754.21l-5.76,.83c-4.15,.6-8.03-2.2-8.66-6.25l-7.31-47.25c-.63-4.05,2.23-7.82,6.39-8.42l5.76-.83c4.15-.6,8.03,2.2,8.66,6.25l7.31,47.25c.63,4.05-2.23,7.82-6.39,8.42Z"/>
    <path class="cls-113" d="M1476.48,711.83l-5.6-1.61c-4.03-1.16-6.34-5.29-5.16-9.22l13.75-45.81c1.18-3.93,5.4-6.17,9.43-5.01l5.6,1.61c4.03,1.16,6.34,5.29,5.16,9.22l-13.75,45.81c-1.18,3.93-5.4,6.17-9.43,5.01Z"/>
    <path class="cls-113" d="M1482.32,665.03l-.05-.06c-3.86-4.22-3.48-10.69,.84-14.45l32.17-27.99c4.33-3.76,10.96-3.4,14.82,.82l.05,.06c3.86,4.22,3.48,10.69-.84,14.45l-32.17,27.99c-4.33,3.76-10.96,3.4-14.82-.82Z"/>
    <ellipse class="cls-23" cx="1323.98" cy="535.97" rx="12.98" ry="13.31" transform="translate(716.89 1828.88) rotate(-86.89)"/>
    <path class="cls-113" d="M1461.42,790.39l-5.06-2.84c-3.64-2.05-4.91-6.58-2.82-10.13l24.34-41.39c2.09-3.55,6.73-4.77,10.38-2.72l5.06,2.84c3.64,2.05,4.91,6.58,2.82,10.13l-24.34,41.39c-2.09,3.55-6.73,4.77-10.38,2.72Z"/>
    <ellipse class="cls-23" cx="1610.81" cy="525.61" rx="12.98" ry="13.31" transform="translate(998.48 2105.49) rotate(-86.89)"/>
    <ellipse class="cls-23" cx="1577.99" cy="554.18" rx="12.98" ry="13.31" transform="translate(938.91 2099.73) rotate(-86.89)"/>
    <ellipse class="cls-23" cx="1537.53" cy="585.95" rx="12.98" ry="13.31" transform="translate(868.93 2089.37) rotate(-86.89)"/>
    <ellipse class="cls-23" cx="1504.08" cy="576.33" rx="12.98" ry="13.31" transform="translate(846.9 2046.88) rotate(-86.89)"/>
    <ellipse class="cls-23" cx="1467.74" cy="568.36" rx="12.98" ry="13.31" transform="translate(820.48 2003.06) rotate(-86.89)"/>
    <ellipse class="cls-23" cx="1431.74" cy="562.69" rx="12.98" ry="13.31" transform="translate(792.1 1961.74) rotate(-86.89)"/>
    <ellipse class="cls-23" cx="1395.35" cy="555.63" rx="12.98" ry="13.31" transform="translate(764.74 1918.73) rotate(-86.89)"/>
    <ellipse class="cls-23" cx="1359.99" cy="546.81" rx="12.98" ry="13.31" transform="translate(740.11 1875.09) rotate(-86.89)"/>
    <path class="cls-113" d="M1325.41,541.88l-5.6-1.61c-4.03-1.16-6.34-5.29-5.16-9.22l11.06-36.84c1.18-3.93,5.4-6.17,9.43-5.01l5.6,1.61c4.03,1.16,6.34,5.29,5.16,9.22l-11.06,36.84c-1.18,3.93-5.4,6.17-9.43,5.01Z"/>
    <path class="cls-113" d="M1361.24,552.55l-5.6-1.61c-4.03-1.16-6.34-5.29-5.16-9.22l11.06-36.84c1.18-3.93,5.4-6.17,9.43-5.01l5.6,1.61c4.03,1.16,6.34,5.29,5.16,9.22l-11.06,36.84c-1.18,3.93-5.4,6.17-9.43,5.01Z"/>
    <path class="cls-113" d="M1396.54,562.28l-5.6-1.61c-4.03-1.16-6.34-5.29-5.16-9.22l11.06-36.84c1.18-3.93,5.4-6.17,9.43-5.01l5.6,1.61c4.03,1.16,6.34,5.29,5.16,9.22l-11.06,36.84c-1.18,3.93-5.4,6.17-9.43,5.01Z"/>
    <path class="cls-113" d="M1432.93,569.34l-5.6-1.61c-4.03-1.16-6.34-5.29-5.16-9.22l11.06-36.84c1.18-3.93,5.4-6.17,9.43-5.01l5.6,1.61c4.03,1.16,6.34,5.29,5.16,9.22l-11.06,36.84c-1.18,3.93-5.4,6.17-9.43,5.01Z"/>
    <path class="cls-113" d="M1467.85,577.68l-5.6-1.61c-4.03-1.16-6.34-5.29-5.16-9.22l11.06-36.84c1.18-3.93,5.4-6.17,9.43-5.01l5.6,1.61c4.03,1.16,6.34,5.29,5.16,9.22l-11.06,36.84c-1.18,3.93-5.4,6.17-9.43,5.01Z"/>
    <path class="cls-113" d="M1503.31,584.68l-5.6-1.61c-4.03-1.16-6.34-5.29-5.16-9.22l11.06-36.84c1.18-3.93,5.4-6.17,9.43-5.01l5.6,1.61c4.03,1.16,6.34,5.29,5.16,9.22l-11.06,36.84c-1.18,3.93-5.4,6.17-9.43,5.01Z"/>
    <path class="cls-113" d="M1524.69,637.26l-5.6-1.61c-4.03-1.16-6.34-5.29-5.16-9.22l13.75-45.81c1.18-3.93,5.4-6.17,9.43-5.01l5.6,1.61c4.03,1.16,6.34,5.29,5.16,9.22l-13.75,45.81c-1.18,3.93-5.4,6.17-9.43,5.01Z"/>
  </g>
  <g>
    <g>
      <path class="cls-106" d="M335.39,91.37v224.44h-42.42V91.37h42.42Zm81.39,0l-37.61,101.78,37.4,122.66h-47.64l-32.28-123.98,36.57-100.46h43.57Z"/>
      <path class="cls-106" d="M473.4,91.37v224.44h-42.42V91.37h42.42Z"/>
      <path class="cls-106" d="M598.35,206.14l44.4,1.81c-2.93,36.17-10.88,64.13-23.87,83.86-12.99,19.73-29.93,29.6-50.83,29.6s-39.02-11.21-53.33-33.62c-14.31-22.42-21.47-50.23-21.47-83.45s7.3-61.55,21.89-84.35c14.59-22.8,32.58-34.2,53.96-34.2s38.59,11.18,52.66,33.54c9.75,15.46,16.65,37,20.69,64.62l-45.45,4.77c-5.08-24.55-14.73-36.83-28.94-36.83-9.05,0-16.52,4.93-22.41,14.8-5.89,9.87-8.83,22.42-8.83,37.65s2.89,26.83,8.67,36.42c5.78,9.59,13.09,14.39,21.94,14.39s16.14-4.22,21.47-12.66c5.33-8.44,8.48-20.55,9.46-36.34Z"/>
      <path class="cls-106" d="M705.23,91.37v224.44h-42.42V91.37h42.42Zm81.39,0l-37.61,101.78,37.4,122.66h-47.64l-32.28-123.98,36.57-100.46h43.57Z"/>
      <path class="cls-106" d="M906.03,203.18v59.19h-12.22v53.44h-42.42V173.09c0-27.62,4.79-49.08,14.37-64.37,9.58-15.29,23.04-22.94,40.38-22.94s29.08,6.93,37.09,20.8c8.01,13.87,12.01,35.27,12.01,64.21v145.02h-42.42V175.23c0-8.77-.66-14.85-1.99-18.25-1.32-3.4-3.69-5.1-7.1-5.1-6.62,0-9.93,7.78-9.93,23.35v27.95h12.22Z"/>
      <path class="cls-106" d="M1101.4,90.39v63.96c-3.07-1.64-5.43-2.47-7.1-2.47-3.2,0-5.96,1.87-8.25,5.59-2.3,3.73-3.45,8.22-3.45,13.48,0,4.5,1.25,10.19,3.76,17.1l3.24,8.88c5.85,16.01,8.78,31.46,8.78,46.37,0,21.81-4.93,40.28-14.78,55.41-9.86,15.13-21.89,22.69-36.1,22.69-6.83,0-13.58-2.47-20.27-7.4v-64.95c4.04,4.06,7.63,6.08,10.76,6.08,3.69,0,6.77-1.67,9.25-5.01,2.47-3.34,3.71-7.54,3.71-12.58,0-3.29-1.98-10.47-5.96-21.54-6.34-17.54-9.51-35.08-9.51-52.62,0-21.15,4.79-39.38,14.37-54.67,9.58-15.29,21.02-22.94,34.32-22.94,5.85,0,11.6,1.54,17.24,4.6Z"/>
      <path class="cls-106" d="M1177.14,171.61v59.19h-11.81v85.01h-42.42V91.37h42.42v80.24h11.81Zm49.63-80.24v224.44h-42.42V91.37h42.42Z"/>
      <path class="cls-106" d="M1331.35,178.68v49.99h-27.69c-3.76,0-6.42,.88-7.99,2.63-1.57,1.75-2.35,4.71-2.35,8.88,0,4.71,.8,7.81,2.4,9.29,1.6,1.48,4.87,2.22,9.82,2.22h28.52v64.13h-33.33c-15.67,0-27.65-5.89-35.94-17.68-8.29-11.78-12.43-28.8-12.43-51.05v-87.97c0-21.48,3.92-38.15,11.75-49.99,7.84-11.84,18.86-17.76,33.07-17.76h36.88v64.46h-27.06c-7.31,0-10.97,3.73-10.97,11.18,0,4.39,.87,7.43,2.61,9.13,1.74,1.7,4.84,2.55,9.3,2.55h23.4Z"/>
      <path class="cls-106" d="M1434.46,178.68v49.99h-27.69c-3.76,0-6.42,.88-7.99,2.63-1.57,1.75-2.35,4.71-2.35,8.88,0,4.71,.8,7.81,2.4,9.29,1.6,1.48,4.87,2.22,9.82,2.22h28.52v64.13h-33.33c-15.67,0-27.65-5.89-35.94-17.68-8.29-11.78-12.43-28.8-12.43-51.05v-87.97c0-21.48,3.92-38.15,11.75-49.99,7.84-11.84,18.86-17.76,33.07-17.76h36.88v64.46h-27.06c-7.31,0-10.97,3.73-10.97,11.18,0,4.39,.87,7.43,2.61,9.13,1.74,1.7,4.84,2.55,9.3,2.55h23.4Z"/>
      <path class="cls-106" d="M1507.91,238.21v-58.86c8.57,0,12.85-5.15,12.85-15.46,0-9.43-3.27-14.14-9.82-14.14s-9.93,6.47-9.93,19.4v146.67h-42.42V176.05c0-14.47,.92-26.33,2.77-35.6,1.84-9.26,5-17.89,9.46-25.9,5.01-8.88,11.28-15.89,18.81-21.05,7.52-5.15,15.29-7.73,23.3-7.73,14.49,0,26.66,7.67,36.51,23.02,9.85,15.35,14.78,34.37,14.78,57.06s-4.42,39.9-13.27,53.6c-8.08,12.61-20.27,18.91-36.57,18.91l-6.48-.16Z"/>
    </g>
    <g>
      <path class="cls-111" d="M438.5,81.11l-37.61,101.78,37.4,122.66h-47.64l-32.28-123.98,36.57-100.46h43.57Zm-81.39,0v224.44h-42.42V81.11h42.42Z"/>
      <rect class="cls-111" x="452.71" y="81.11" width="42.42" height="224.44"/>
      <path class="cls-111" d="M620.08,195.88l44.4,1.81c-2.93,36.17-10.88,64.13-23.87,83.86-12.99,19.73-29.93,29.6-50.83,29.6s-39.02-11.21-53.33-33.62c-14.31-22.42-21.47-50.23-21.47-83.45s7.3-61.55,21.89-84.35c14.59-22.8,32.58-34.2,53.96-34.2s38.59,11.18,52.66,33.54c9.75,15.46,16.65,37,20.69,64.62l-45.45,4.77c-5.08-24.55-14.73-36.83-28.94-36.83-9.05,0-16.52,4.93-22.41,14.8-5.89,9.87-8.83,22.42-8.83,37.65s2.89,26.83,8.67,36.42c5.78,9.59,13.09,14.39,21.94,14.39s16.14-4.22,21.47-12.66c5.33-8.44,8.48-20.55,9.46-36.34Z"/>
      <path class="cls-111" d="M808.34,81.11l-37.61,101.78,37.4,122.66h-47.64l-32.28-123.98,36.57-100.46h43.57Zm-81.39,0v224.44h-42.42V81.11h42.42Z"/>
      <path class="cls-111" d="M927.76,192.92v59.19h-12.22v53.44h-42.42V162.83c0-27.62,4.79-49.08,14.37-64.37,9.58-15.29,23.04-22.94,40.38-22.94s29.08,6.93,37.09,20.8c8.01,13.87,12.01,35.27,12.01,64.21v145.02h-42.42V164.97c0-8.77-.66-14.85-1.99-18.25-1.32-3.4-3.69-5.1-7.1-5.1-6.62,0-9.93,7.78-9.93,23.35v27.95h12.22Z"/>
      <path class="cls-111" d="M1123.13,80.12v63.96c-3.07-1.64-5.43-2.47-7.1-2.47-3.2,0-5.96,1.87-8.25,5.59-2.3,3.73-3.45,8.22-3.45,13.48,0,4.5,1.25,10.19,3.76,17.1l3.24,8.88c5.85,16.01,8.78,31.46,8.78,46.37,0,21.81-4.93,40.28-14.78,55.41-9.86,15.13-21.89,22.69-36.1,22.69-6.83,0-13.58-2.47-20.27-7.4v-64.95c4.04,4.06,7.63,6.08,10.76,6.08,3.69,0,6.77-1.67,9.25-5.01,2.47-3.34,3.71-7.54,3.71-12.58,0-3.29-1.98-10.47-5.96-21.54-6.34-17.54-9.51-35.08-9.51-52.62,0-21.15,4.79-39.38,14.37-54.67,9.58-15.29,21.02-22.94,34.32-22.94,5.85,0,11.6,1.54,17.24,4.6Z"/>
      <path class="cls-111" d="M1248.5,81.11v224.44h-42.42V81.11h42.42Zm-49.63,80.24v59.19h-11.81v85.01h-42.42V81.11h42.42v80.24h11.81Z"/>
      <path class="cls-111" d="M1353.07,168.42v49.99h-27.69c-3.76,0-6.42,.88-7.99,2.63-1.57,1.75-2.35,4.71-2.35,8.88,0,4.71,.8,7.81,2.4,9.29,1.6,1.48,4.87,2.22,9.82,2.22h28.52v64.13h-33.33c-15.67,0-27.65-5.89-35.94-17.68-8.29-11.78-12.43-28.8-12.43-51.05v-87.97c0-21.48,3.92-38.15,11.75-49.99,7.84-11.84,18.86-17.76,33.07-17.76h36.88v64.46h-27.06c-7.31,0-10.97,3.73-10.97,11.18,0,4.39,.87,7.43,2.61,9.13,1.74,1.7,4.84,2.55,9.3,2.55h23.4Z"/>
      <path class="cls-111" d="M1456.19,168.42v49.99h-27.69c-3.76,0-6.42,.88-7.99,2.63-1.57,1.75-2.35,4.71-2.35,8.88,0,4.71,.8,7.81,2.4,9.29,1.6,1.48,4.87,2.22,9.82,2.22h28.52v64.13h-33.33c-15.67,0-27.65-5.89-35.94-17.68-8.29-11.78-12.43-28.8-12.43-51.05v-87.97c0-21.48,3.92-38.15,11.75-49.99,7.84-11.84,18.86-17.76,33.07-17.76h36.88v64.46h-27.06c-7.31,0-10.97,3.73-10.97,11.18,0,4.39,.87,7.43,2.61,9.13,1.74,1.7,4.84,2.55,9.3,2.55h23.4Z"/>
      <path class="cls-111" d="M1529.64,227.94v-58.86c8.57,0,12.85-5.15,12.85-15.46,0-9.43-3.27-14.14-9.82-14.14s-9.93,6.47-9.93,19.4v146.67h-42.42V165.79c0-14.47,.92-26.33,2.77-35.6,1.84-9.26,4.97-17.91,9.46-25.9,4.99-8.89,11.28-15.89,18.81-21.05,7.52-5.15,15.29-7.73,23.3-7.73,14.49,0,26.66,7.67,36.51,23.02,9.85,15.35,14.78,34.37,14.78,57.06s-4.42,39.9-13.27,53.6c-8.08,12.61-20.27,18.91-36.57,18.91l-6.48-.16Z"/>
    </g>
    <g>
      <path class="cls-109" d="M378.85,70.85v224.44h-42.42V70.85h42.42Zm81.39,0l-37.61,101.78,37.4,122.66h-47.64l-32.28-123.98,36.57-100.46h43.57Z"/>
      <path class="cls-109" d="M516.86,70.85v224.44h-42.42V70.85h42.42Z"/>
      <path class="cls-109" d="M641.81,185.62l44.4,1.81c-2.93,36.17-10.88,64.13-23.87,83.86-12.99,19.73-29.93,29.6-50.83,29.6s-39.02-11.21-53.33-33.62c-14.31-22.42-21.47-50.23-21.47-83.45s7.3-61.55,21.89-84.35c14.59-22.8,32.58-34.2,53.96-34.2s38.59,11.18,52.66,33.54c9.75,15.46,16.65,37,20.69,64.62l-45.45,4.77c-5.08-24.55-14.73-36.83-28.94-36.83-9.05,0-16.52,4.93-22.41,14.8-5.89,9.87-8.83,22.42-8.83,37.65s2.89,26.83,8.67,36.42c5.78,9.59,13.09,14.39,21.94,14.39s16.14-4.22,21.47-12.66c5.33-8.44,8.48-20.55,9.46-36.34Z"/>
      <path class="cls-109" d="M748.69,70.85v224.44h-42.42V70.85h42.42Zm81.39,0l-37.61,101.78,37.4,122.66h-47.64l-32.28-123.98,36.57-100.46h43.57Z"/>
      <path class="cls-109" d="M949.49,182.66v59.19h-12.22v53.44h-42.42V152.57c0-27.62,4.79-49.08,14.37-64.37,9.58-15.29,23.04-22.94,40.38-22.94s29.08,6.93,37.09,20.8c8.01,13.87,12.01,35.27,12.01,64.21v145.02h-42.42V154.71c0-8.77-.66-14.85-1.99-18.25-1.32-3.4-3.69-5.1-7.1-5.1-6.62,0-9.93,7.78-9.93,23.35v27.95h12.22Z"/>
      <path class="cls-109" d="M1144.85,69.86v63.96c-3.07-1.64-5.43-2.47-7.1-2.47-3.2,0-5.96,1.87-8.25,5.59-2.3,3.73-3.45,8.22-3.45,13.48,0,4.5,1.25,10.19,3.76,17.1l3.24,8.88c5.85,16.01,8.78,31.46,8.78,46.37,0,21.81-4.93,40.28-14.78,55.41-9.86,15.13-21.89,22.69-36.1,22.69-6.83,0-13.58-2.47-20.27-7.4v-64.95c4.04,4.06,7.63,6.08,10.76,6.08,3.69,0,6.77-1.67,9.25-5.01,2.47-3.34,3.71-7.54,3.71-12.58,0-3.29-1.98-10.47-5.96-21.54-6.34-17.54-9.51-35.08-9.51-52.62,0-21.15,4.79-39.38,14.37-54.67,9.58-15.29,21.02-22.94,34.32-22.94,5.85,0,11.6,1.54,17.24,4.6Z"/>
      <path class="cls-109" d="M1220.6,151.09v59.19h-11.81v85.01h-42.42V70.85h42.42v80.24h11.81Zm49.63-80.24v224.44h-42.42V70.85h42.42Z"/>
      <path class="cls-109" d="M1374.8,158.16v49.99h-27.69c-3.76,0-6.42,.88-7.99,2.63-1.57,1.75-2.35,4.71-2.35,8.88,0,4.71,.8,7.81,2.4,9.29,1.6,1.48,4.87,2.22,9.82,2.22h28.52v64.13h-33.33c-15.67,0-27.65-5.89-35.94-17.68-8.29-11.78-12.43-28.8-12.43-51.05v-87.97c0-21.48,3.92-38.15,11.75-49.99,7.84-11.84,18.86-17.76,33.07-17.76h36.88v64.46h-27.06c-7.31,0-10.97,3.73-10.97,11.18,0,4.39,.87,7.43,2.61,9.13,1.74,1.7,4.84,2.55,9.3,2.55h23.4Z"/>
      <path class="cls-109" d="M1477.92,158.16v49.99h-27.69c-3.76,0-6.42,.88-7.99,2.63-1.57,1.75-2.35,4.71-2.35,8.88,0,4.71,.8,7.81,2.4,9.29,1.6,1.48,4.87,2.22,9.82,2.22h28.52v64.13h-33.33c-15.67,0-27.65-5.89-35.94-17.68-8.29-11.78-12.43-28.8-12.43-51.05v-87.97c0-21.48,3.92-38.15,11.75-49.99,7.84-11.84,18.86-17.76,33.07-17.76h36.88v64.46h-27.06c-7.31,0-10.97,3.73-10.97,11.18,0,4.39,.87,7.43,2.61,9.13,1.74,1.7,4.84,2.55,9.3,2.55h23.4Z"/>
      <path class="cls-109" d="M1551.37,217.68v-58.86c8.57,0,12.85-5.15,12.85-15.46,0-9.43-3.27-14.14-9.82-14.14s-9.93,6.47-9.93,19.4v146.67h-42.42V155.53c0-14.47,.92-26.33,2.77-35.6,1.84-9.26,5-17.89,9.46-25.9,5.01-8.88,11.28-15.89,18.81-21.05,7.52-5.15,15.29-7.73,23.3-7.73,14.49,0,26.66,7.67,36.51,23.02,9.85,15.35,14.78,34.37,14.78,57.06s-4.42,39.9-13.27,53.6c-8.08,12.61-20.27,18.91-36.57,18.91l-6.48-.16Z"/>
    </g>
  </g>
  <g>
    <g>
      <g>
        <path class="cls-106" d="M777.57,912.13v25.62c-1.7-.66-3.02-.99-3.95-.99-1.78,0-3.31,.75-4.58,2.24s-1.92,3.29-1.92,5.4c0,1.8,.7,4.08,2.09,6.85l1.8,3.56c3.25,6.41,4.87,12.6,4.87,18.57,0,8.74-2.74,16.13-8.21,22.19-5.47,6.06-12.16,9.09-20.05,9.09-3.79,0-7.54-.99-11.26-2.96v-26.01c2.24,1.62,4.24,2.44,5.98,2.44,2.05,0,3.76-.67,5.14-2.01,1.37-1.34,2.06-3.02,2.06-5.04,0-1.32-1.1-4.19-3.31-8.63-3.52-7.02-5.28-14.05-5.28-21.07,0-8.47,2.66-15.77,7.98-21.9,5.32-6.12,11.67-9.19,19.06-9.19,3.25,0,6.44,.62,9.57,1.84Z"/>
        <path class="cls-106" d="M823.99,938.34v64.08h-23.56v-64.08h-18.04v-25.82h59.59v25.82h-17.99Z"/>
        <path class="cls-106" d="M879.4,957.31v23.71h-6.79v21.4h-23.56v-57.16c0-11.06,2.66-19.66,7.98-25.78,5.32-6.12,12.79-9.19,22.43-9.19s16.15,2.78,20.6,8.33c4.45,5.55,6.67,14.13,6.67,25.72v58.09h-23.56v-56.31c0-3.51-.37-5.95-1.1-7.31-.74-1.36-2.05-2.04-3.95-2.04-3.68,0-5.51,3.12-5.51,9.35v11.2h6.79Z"/>
        <path class="cls-106" d="M944.56,936.7v65.73h-23.56v-89.89h30.23c9.21,0,16.34,2.59,21.41,7.77,5.65,5.8,8.47,13.15,8.47,22.06s-3.5,16.75-10.5,22.98l13.58,37.08h-24.72l-11.43-28.98v-23.12h1.86c4.95,0,7.43-2.41,7.43-7.24,0-4.26-2.86-6.39-8.59-6.39h-4.18Z"/>
        <path class="cls-106" d="M1026.55,938.34v64.08h-23.56v-64.08h-18.04v-25.82h59.59v25.82h-17.99Z"/>
      </g>
      <g>
        <path class="cls-111" d="M788.24,904.63v25.62c-1.7-.66-3.02-.99-3.95-.99-1.78,0-3.31,.75-4.58,2.24s-1.92,3.29-1.92,5.4c0,1.8,.7,4.08,2.09,6.85l1.8,3.56c3.25,6.41,4.87,12.6,4.87,18.57,0,8.74-2.74,16.13-8.21,22.19-5.47,6.06-12.16,9.09-20.05,9.09-3.79,0-7.54-.99-11.26-2.96v-26.01c2.24,1.62,4.24,2.44,5.98,2.44,2.05,0,3.76-.67,5.14-2.01,1.37-1.34,2.06-3.02,2.06-5.04,0-1.32-1.1-4.19-3.31-8.63-3.52-7.02-5.28-14.05-5.28-21.07,0-8.47,2.66-15.77,7.98-21.9,5.32-6.12,11.67-9.19,19.06-9.19,3.25,0,6.44,.62,9.57,1.84Z"/>
        <polygon class="cls-111" points="834.65 930.84 834.65 994.92 811.1 994.92 811.1 930.84 793.05 930.84 793.05 905.02 852.64 905.02 852.64 930.84 834.65 930.84"/>
        <path class="cls-111" d="M890.07,949.81v23.71h-6.79v21.4h-23.56v-57.16c0-11.06,2.66-19.66,7.98-25.78,5.32-6.12,12.79-9.19,22.43-9.19s16.15,2.78,20.6,8.33c4.45,5.55,6.67,14.13,6.67,25.72v58.09h-23.56v-56.31c0-3.51-.37-5.95-1.1-7.31-.74-1.36-2.05-2.04-3.95-2.04-3.68,0-5.51,3.12-5.51,9.35v11.2h6.79Z"/>
        <path class="cls-111" d="M955.23,929.19v65.73h-23.56v-89.89h30.23c9.21,0,16.34,2.59,21.41,7.77,5.65,5.8,8.47,13.15,8.47,22.06s-3.5,16.75-10.5,22.98l13.58,37.08h-24.72l-11.43-28.98v-23.12h1.86c4.95,0,7.43-2.41,7.43-7.24,0-4.26-2.86-6.39-8.59-6.39h-4.18Z"/>
        <polygon class="cls-111" points="1037.21 930.84 1037.21 994.92 1013.66 994.92 1013.66 930.84 995.61 930.84 995.61 905.02 1055.2 905.02 1055.2 930.84 1037.21 930.84"/>
      </g>
      <g>
        <path class="cls-109" d="M798.9,897.13v25.62c-1.7-.66-3.02-.99-3.95-.99-1.78,0-3.31,.75-4.58,2.24s-1.92,3.29-1.92,5.4c0,1.8,.7,4.08,2.09,6.85l1.8,3.56c3.25,6.41,4.87,12.6,4.87,18.57,0,8.74-2.74,16.13-8.21,22.19-5.47,6.06-12.16,9.09-20.05,9.09-3.79,0-7.54-.99-11.26-2.96v-26.01c2.24,1.62,4.24,2.44,5.98,2.44,2.05,0,3.76-.67,5.14-2.01,1.37-1.34,2.06-3.02,2.06-5.04,0-1.32-1.1-4.19-3.31-8.63-3.52-7.02-5.28-14.05-5.28-21.07,0-8.47,2.66-15.77,7.98-21.9,5.32-6.12,11.67-9.19,19.06-9.19,3.25,0,6.44,.62,9.57,1.84Z"/>
        <path class="cls-109" d="M845.32,923.34v64.08h-23.56v-64.08h-18.04v-25.82h59.59v25.82h-17.99Z"/>
        <path class="cls-109" d="M900.73,942.3v23.71h-6.79v21.4h-23.56v-57.16c0-11.06,2.66-19.66,7.98-25.78,5.32-6.12,12.79-9.19,22.43-9.19s16.15,2.78,20.6,8.33c4.45,5.55,6.67,14.13,6.67,25.72v58.09h-23.56v-56.31c0-3.51-.37-5.95-1.1-7.31-.74-1.36-2.05-2.04-3.95-2.04-3.68,0-5.51,3.12-5.51,9.35v11.2h6.79Z"/>
        <path class="cls-109" d="M965.89,921.69v65.73h-23.56v-89.89h30.23c9.21,0,16.34,2.59,21.41,7.77,5.65,5.8,8.47,13.15,8.47,22.06s-3.5,16.75-10.5,22.98l13.58,37.08h-24.72l-11.43-28.98v-23.12h1.86c4.95,0,7.43-2.41,7.43-7.24,0-4.26-2.86-6.39-8.59-6.39h-4.18Z"/>
        <path class="cls-109" d="M1047.88,923.34v64.08h-23.56v-64.08h-18.04v-25.82h59.59v25.82h-17.99Z"/>
      </g>
    </g>
    <g>
      <rect class="cls-27" x="707.74" y="871" width="383.8" height="177" rx="47.2" ry="47.2"/>
      <rect class="cls-91" x="707.85" y="870.85" width="383.8" height="177" rx="47.2" ry="47.2"/>
      <rect class="cls-79" x="707.95" y="870.71" width="383.8" height="177" rx="47.2" ry="47.2"/>
      <rect class="cls-58" x="708.06" y="870.56" width="383.8" height="177" rx="47.2" ry="47.2"/>
      <rect class="cls-49" x="708.17" y="870.41" width="383.8" height="177" rx="47.2" ry="47.2"/>
      <rect class="cls-104" x="708.28" y="870.26" width="383.8" height="177" rx="47.2" ry="47.2"/>
      <rect class="cls-73" x="708.38" y="870.12" width="383.8" height="177" rx="47.2" ry="47.2"/>
      <rect class="cls-5" x="708.49" y="869.97" width="383.8" height="177" rx="47.2" ry="47.2"/>
      <rect class="cls-76" x="708.6" y="869.82" width="383.8" height="177" rx="47.2" ry="47.2"/>
      <rect class="cls-63" x="708.71" y="869.68" width="383.8" height="177" rx="47.2" ry="47.2"/>
      <rect class="cls-57" x="708.81" y="869.53" width="383.8" height="177" rx="47.2" ry="47.2"/>
      <rect class="cls-6" x="708.92" y="869.38" width="383.8" height="177" rx="47.2" ry="47.2"/>
      <rect class="cls-59" x="709.03" y="869.24" width="383.8" height="177" rx="47.2" ry="47.2"/>
      <rect class="cls-85" x="709.14" y="869.09" width="383.8" height="177" rx="47.2" ry="47.2"/>
      <rect class="cls-47" x="709.24" y="868.94" width="383.8" height="177" rx="47.2" ry="47.2"/>
      <rect class="cls-36" x="709.35" y="868.79" width="383.8" height="177" rx="47.2" ry="47.2"/>
      <rect class="cls-18" x="709.46" y="868.65" width="383.8" height="177" rx="47.2" ry="47.2"/>
      <rect class="cls-50" x="709.57" y="868.5" width="383.8" height="177" rx="47.2" ry="47.2"/>
      <rect class="cls-11" x="709.67" y="868.35" width="383.8" height="177" rx="47.2" ry="47.2"/>
      <rect class="cls-31" x="709.78" y="868.21" width="383.8" height="177" rx="47.2" ry="47.2"/>
      <rect class="cls-82" x="709.89" y="868.06" width="383.8" height="177" rx="47.2" ry="47.2"/>
      <rect class="cls-93" x="710" y="867.91" width="383.8" height="177" rx="47.2" ry="47.2"/>
      <rect class="cls-4" x="710.1" y="867.76" width="383.8" height="177" rx="47.2" ry="47.2"/>
      <rect class="cls-64" x="710.21" y="867.62" width="383.8" height="177" rx="47.2" ry="47.2"/>
      <rect class="cls-89" x="710.32" y="867.47" width="383.8" height="177" rx="47.2" ry="47.2"/>
      <rect class="cls-46" x="710.43" y="867.32" width="383.8" height="177" rx="47.2" ry="47.2"/>
      <rect class="cls-80" x="710.53" y="867.18" width="383.8" height="177" rx="47.2" ry="47.2"/>
      <rect class="cls-33" x="710.64" y="867.03" width="383.8" height="177" rx="47.2" ry="47.2"/>
      <rect class="cls-13" x="710.75" y="866.88" width="383.8" height="177" rx="47.2" ry="47.2"/>
      <rect class="cls-3" x="710.86" y="866.74" width="383.8" height="177" rx="47.2" ry="47.2"/>
      <rect class="cls-103" x="710.96" y="866.59" width="383.8" height="177" rx="47.2" ry="47.2"/>
      <rect class="cls-44" x="711.07" y="866.44" width="383.8" height="177" rx="47.2" ry="47.2"/>
      <rect class="cls-87" x="711.18" y="866.29" width="383.8" height="177" rx="47.2" ry="47.2"/>
      <rect class="cls-70" x="711.29" y="866.15" width="383.8" height="177" rx="47.2" ry="47.2"/>
      <rect class="cls-9" x="711.39" y="866" width="383.8" height="177" rx="47.2" ry="47.2"/>
      <rect class="cls-24" x="711.5" y="865.85" width="383.8" height="177" rx="47.2" ry="47.2"/>
      <rect class="cls-34" x="711.61" y="865.71" width="383.8" height="177" rx="47.2" ry="47.2"/>
      <rect class="cls-102" x="711.72" y="865.56" width="383.8" height="177" rx="47.2" ry="47.2"/>
      <rect class="cls-8" x="711.82" y="865.41" width="383.8" height="177" rx="47.2" ry="47.2"/>
      <rect class="cls-53" x="711.93" y="865.26" width="383.8" height="177" rx="47.2" ry="47.2"/>
      <rect class="cls-65" x="712.04" y="865.12" width="383.8" height="177" rx="47.2" ry="47.2"/>
      <rect class="cls-42" x="712.15" y="864.97" width="383.8" height="177" rx="47.2" ry="47.2"/>
      <rect class="cls-26" x="712.25" y="864.82" width="383.8" height="177" rx="47.2" ry="47.2"/>
      <rect class="cls-61" x="712.36" y="864.68" width="383.8" height="177" rx="47.2" ry="47.2"/>
      <rect class="cls-29" x="712.47" y="864.53" width="383.8" height="177" rx="47.2" ry="47.2"/>
      <rect class="cls-17" x="712.58" y="864.38" width="383.8" height="177" rx="47.2" ry="47.2"/>
      <rect class="cls-75" x="712.68" y="864.24" width="383.8" height="177" rx="47.2" ry="47.2"/>
      <rect class="cls-35" x="712.79" y="864.09" width="383.8" height="177" rx="47.2" ry="47.2"/>
      <rect class="cls-1" x="712.9" y="863.94" width="383.8" height="177" rx="47.2" ry="47.2"/>
      <rect class="cls-15" x="713.01" y="863.79" width="383.8" height="177" rx="47.2" ry="47.2"/>
      <rect class="cls-88" x="713.11" y="863.65" width="383.8" height="177" rx="47.2" ry="47.2"/>
      <rect class="cls-88" x="713.22" y="863.5" width="383.8" height="177" rx="47.2" ry="47.2"/>
      <rect class="cls-60" x="713.33" y="863.35" width="383.8" height="177" rx="47.2" ry="47.2"/>
      <rect class="cls-45" x="713.44" y="863.21" width="383.8" height="177" rx="47.2" ry="47.2"/>
      <rect class="cls-52" x="713.54" y="863.06" width="383.8" height="177" rx="47.2" ry="47.2"/>
      <rect class="cls-72" x="713.65" y="862.91" width="383.8" height="177" rx="47.2" ry="47.2"/>
      <rect class="cls-81" x="713.76" y="862.76" width="383.8" height="177" rx="47.2" ry="47.2"/>
      <rect class="cls-20" x="713.87" y="862.62" width="383.8" height="177" rx="47.2" ry="47.2"/>
      <rect class="cls-101" x="713.97" y="862.47" width="383.8" height="177" rx="47.2" ry="47.2"/>
      <rect class="cls-66" x="714.08" y="862.32" width="383.8" height="177" rx="47.2" ry="47.2"/>
      <rect class="cls-43" x="714.19" y="862.18" width="383.8" height="177" rx="47.2" ry="47.2"/>
      <rect class="cls-99" x="714.3" y="862.03" width="383.8" height="177" rx="47.2" ry="47.2"/>
      <rect class="cls-51" x="714.4" y="861.88" width="383.8" height="177" rx="47.2" ry="47.2"/>
      <rect class="cls-68" x="714.51" y="861.74" width="383.8" height="177" rx="47.2" ry="47.2"/>
      <rect class="cls-54" x="714.62" y="861.59" width="383.8" height="177" rx="47.2" ry="47.2"/>
      <rect class="cls-55" x="714.73" y="861.44" width="383.8" height="177" rx="47.2" ry="47.2"/>
      <rect class="cls-39" x="714.83" y="861.29" width="383.8" height="177" rx="47.2" ry="47.2"/>
      <rect class="cls-94" x="714.94" y="861.15" width="383.8" height="177" rx="47.2" ry="47.2"/>
      <rect class="cls-19" x="715.05" y="861" width="383.8" height="177" rx="47.2" ry="47.2"/>
      <rect class="cls-83" x="715.16" y="860.85" width="383.8" height="177" rx="47.2" ry="47.2"/>
      <rect class="cls-28" x="715.26" y="860.71" width="383.8" height="177" rx="47.2" ry="47.2"/>
      <rect class="cls-12" x="715.37" y="860.56" width="383.8" height="177" rx="47.2" ry="47.2"/>
      <rect class="cls-30" x="715.48" y="860.41" width="383.8" height="177" rx="47.2" ry="47.2"/>
      <rect class="cls-98" x="715.59" y="860.26" width="383.8" height="177" rx="47.2" ry="47.2"/>
      <rect class="cls-77" x="715.69" y="860.12" width="383.8" height="177" rx="47.2" ry="47.2"/>
      <rect class="cls-69" x="715.8" y="859.97" width="383.8" height="177" rx="47.2" ry="47.2"/>
      <rect class="cls-62" x="715.91" y="859.82" width="383.8" height="177" rx="47.2" ry="47.2"/>
      <rect class="cls-96" x="716.02" y="859.68" width="383.8" height="177" rx="47.2" ry="47.2"/>
      <rect class="cls-25" x="716.12" y="859.53" width="383.8" height="177" rx="47.2" ry="47.2"/>
      <rect class="cls-41" x="716.23" y="859.38" width="383.8" height="177" rx="47.2" ry="47.2"/>
      <rect class="cls-78" x="716.34" y="859.24" width="383.8" height="177" rx="47.2" ry="47.2"/>
      <rect class="cls-95" x="716.45" y="859.09" width="383.8" height="177" rx="47.2" ry="47.2"/>
      <rect class="cls-90" x="716.55" y="858.94" width="383.8" height="177" rx="47.2" ry="47.2"/>
      <rect class="cls-38" x="716.66" y="858.79" width="383.8" height="177" rx="47.2" ry="47.2"/>
      <rect class="cls-21" x="716.77" y="858.65" width="383.8" height="177" rx="47.2" ry="47.2"/>
      <rect class="cls-67" x="716.88" y="858.5" width="383.8" height="177" rx="47.2" ry="47.2"/>
      <rect class="cls-74" x="716.98" y="858.35" width="383.8" height="177" rx="47.2" ry="47.2"/>
      <rect class="cls-71" x="717.09" y="858.21" width="383.8" height="177" rx="47.2" ry="47.2"/>
      <rect class="cls-84" x="717.2" y="858.06" width="383.8" height="177" rx="47.2" ry="47.2"/>
      <rect class="cls-48" x="717.31" y="857.91" width="383.8" height="177" rx="47.2" ry="47.2"/>
      <rect class="cls-14" x="717.41" y="857.76" width="383.8" height="177" rx="47.2" ry="47.2"/>
      <rect class="cls-32" x="717.52" y="857.62" width="383.8" height="177" rx="47.2" ry="47.2"/>
      <rect class="cls-56" x="717.63" y="857.47" width="383.8" height="177" rx="47.2" ry="47.2"/>
      <rect class="cls-86" x="717.74" y="857.32" width="383.8" height="177" rx="47.2" ry="47.2"/>
      <rect class="cls-40" x="717.84" y="857.18" width="383.8" height="177" rx="47.2" ry="47.2"/>
      <rect class="cls-100" x="717.95" y="857.03" width="383.8" height="177" rx="47.2" ry="47.2"/>
      <rect class="cls-2" x="718.06" y="856.88" width="383.8" height="177" rx="47.2" ry="47.2"/>
      <rect class="cls-10" x="718.17" y="856.74" width="383.8" height="177" rx="47.2" ry="47.2"/>
      <rect class="cls-22" x="718.27" y="856.59" width="383.8" height="177" rx="47.2" ry="47.2"/>
      <rect class="cls-97" x="718.38" y="856.44" width="383.8" height="177" rx="47.2" ry="47.2"/>
      <rect class="cls-16" x="718.49" y="856.29" width="383.8" height="177" rx="47.2" ry="47.2"/>
      <rect class="cls-7" x="718.6" y="856.15" width="383.8" height="177" rx="47.2" ry="47.2"/>
      <rect class="cls-92" x="718.7" y="856" width="383.8" height="177" rx="47.2" ry="47.2"/>
    </g>
  </g>
  <g>
    <path class="cls-37" d="M417.08,394.39v27.56h-12.02v-38.66h15.67c6.87,0,12.25,1.49,16.14,4.47,4.62,3.57,6.93,8.41,6.93,14.53s-1.97,10.63-5.92,14.33c-3.95,3.7-9.03,5.55-15.25,5.55-.73,0-1.92-.04-3.58-.11v-11.36h1.92c7.01,0,10.51-2.8,10.51-8.41,0-5.27-3.45-7.9-10.33-7.9h-4.06Z"/>
    <path class="cls-37" d="M448.62,394.1h11.08v15.94c0,1.6,.7,2.41,2.1,2.41s2.07-.8,2.07-2.41v-15.94h11.08v15.75c0,3.66-1.27,6.75-3.82,9.27-2.55,2.52-5.67,3.78-9.36,3.78-4.21,0-7.59-1.46-10.16-4.39-1.99-2.28-2.99-5.46-2.99-9.52v-14.9Z"/>
    <path class="cls-37" d="M515.07,394.1v11.16c-1.56,0-2.63,.28-3.21,.83-.58,.56-.95,1.66-1.11,3.3-.51,5.46-2.72,9.31-6.63,11.55-2.07,1.17-5.01,1.76-8.82,1.76h-1.54v-11.21h.5c1.78,0,3.04-.35,3.81-1.06,.76-.71,1.2-1.95,1.32-3.72,.16-2.89,.44-4.92,.84-6.09s1.23-2.33,2.47-3.48c2.17-2.02,5.18-3.03,9.03-3.03h3.35Z"/>
    <path class="cls-37" d="M529.76,383.29v38.66h-11.08v-38.66h11.08Zm16.97,10.42l-5.42,10.28,8.05,17.96h-12.26l-6.93-18.44,5.03-9.8h11.52Z"/>
    <path class="cls-37" d="M567.78,411.35v10.96c-.91,.15-1.74,.23-2.49,.23-4.44,0-8.14-1.4-11.1-4.19s-4.44-6.3-4.44-10.51,1.5-7.57,4.49-10.42,6.63-4.28,10.91-4.28c4.78,0,8.54,1.34,11.3,4.01,2.75,2.67,4.13,6.32,4.13,10.95v13.85h-11.08v-13.08c0-1.49-.38-2.68-1.14-3.57-.76-.89-1.78-1.33-3.06-1.33-1.17,0-2.17,.41-3.02,1.22s-1.27,1.77-1.27,2.89c0,1.17,.38,2.13,1.15,2.89s1.75,1.13,2.93,1.13c.97,0,1.87-.25,2.69-.74Z"/>
    <path class="cls-37" d="M598.11,383.29v38.66h-11.08v-38.66h11.08Z"/>
    <path class="cls-37" d="M638.26,394.1v11.16c-1.56,0-2.63,.28-3.21,.83-.58,.56-.95,1.66-1.11,3.3-.51,5.46-2.72,9.31-6.63,11.55-2.07,1.17-5.01,1.76-8.82,1.76h-1.54v-11.21h.5c1.78,0,3.04-.35,3.81-1.06,.76-.71,1.2-1.95,1.32-3.72,.16-2.89,.44-4.92,.84-6.09s1.23-2.33,2.47-3.48c2.17-2.02,5.18-3.03,9.03-3.03h3.35Z"/>
    <path class="cls-37" d="M652.3,432.39h-11.08v-23.56c0-4.32,1.18-7.84,3.55-10.56,1.36-1.57,3.09-2.81,5.2-3.74s4.26-1.39,6.47-1.39c4.4,0,8.11,1.42,11.13,4.25s4.53,6.31,4.53,10.42-1.5,7.46-4.5,10.37-6.55,4.36-10.66,4.36c-.67,0-1.66-.07-2.96-.2v-11.67c.91,.7,1.82,1.05,2.72,1.05,1.15,0,2.13-.41,2.95-1.22,.82-.81,1.23-1.77,1.23-2.89s-.42-2.06-1.27-2.85c-.85-.78-1.87-1.18-3.05-1.18-2.84,0-4.26,1.88-4.26,5.64v23.17Z"/>
    <path class="cls-37" d="M693.37,411.35v10.96c-.91,.15-1.74,.23-2.49,.23-4.44,0-8.14-1.4-11.1-4.19s-4.44-6.3-4.44-10.51,1.5-7.57,4.49-10.42,6.63-4.28,10.91-4.28c4.78,0,8.54,1.34,11.3,4.01,2.75,2.67,4.13,6.32,4.13,10.95v13.85h-11.08v-13.08c0-1.49-.38-2.68-1.14-3.57-.76-.89-1.78-1.33-3.06-1.33-1.17,0-2.17,.41-3.02,1.22s-1.27,1.77-1.27,2.89c0,1.17,.38,2.13,1.15,2.89s1.75,1.13,2.93,1.13c.97,0,1.87-.25,2.69-.74Z"/>
    <path class="cls-37" d="M728.82,393.42v11.33c-.77-.42-1.47-.62-2.1-.62-2.01,0-3.02,1.47-3.02,4.42v13.4h-11.08v-15.43c0-4.08,1.17-7.33,3.49-9.76,2.33-2.43,5.44-3.64,9.33-3.64,.87,0,1.99,.1,3.38,.31Z"/>
    <path class="cls-37" d="M743.15,383.29v38.66h-11.08v-38.66h11.08Zm16.97,10.42l-5.42,10.28,8.05,17.96h-12.26l-6.93-18.44,5.03-9.8h11.52Z"/>
    <path class="cls-37" d="M793.79,409.54h-16.79c-.26-.81-.38-1.56-.38-2.24,0-.94,.18-1.87,.53-2.78h5.63c-.4-2.1-1.63-3.14-3.7-3.14-1.38,0-2.51,.56-3.38,1.69-.87,1.12-1.3,2.56-1.3,4.32s.42,3.31,1.26,4.45c.84,1.13,1.94,1.7,3.3,1.7,1.11,0,2.17-.53,3.2-1.59l6.31,7.25c-2.94,2.21-6.21,3.31-9.8,3.31-4.38,0-8.06-1.41-11.05-4.22-2.98-2.81-4.47-6.3-4.47-10.45s1.5-7.63,4.52-10.48c3.01-2.85,6.71-4.28,11.09-4.28s7.88,1.39,10.79,4.18c2.91,2.79,4.37,6.22,4.37,10.29,0,.42-.04,1.08-.12,1.98Z"/>
    <path class="cls-37" d="M832.05,394.1v11.16c-1.56,0-2.63,.28-3.21,.83-.58,.56-.95,1.66-1.11,3.3-.51,5.46-2.72,9.31-6.63,11.55-2.07,1.17-5.01,1.76-8.82,1.76h-1.54v-11.21h.5c1.78,0,3.04-.35,3.81-1.06,.76-.71,1.2-1.95,1.32-3.72,.16-2.89,.44-4.92,.84-6.09s1.23-2.33,2.47-3.48c2.17-2.02,5.18-3.03,9.03-3.03h3.35Z"/>
    <path class="cls-37" d="M852.06,411.35v10.96c-.91,.15-1.74,.23-2.49,.23-4.44,0-8.14-1.4-11.1-4.19s-4.44-6.3-4.44-10.51,1.5-7.57,4.49-10.42,6.63-4.28,10.91-4.28c4.78,0,8.54,1.34,11.3,4.01,2.75,2.67,4.13,6.32,4.13,10.95v13.85h-11.08v-13.08c0-1.49-.38-2.68-1.14-3.57-.76-.89-1.78-1.33-3.06-1.33-1.17,0-2.17,.41-3.02,1.22s-1.27,1.77-1.27,2.89c0,1.17,.38,2.13,1.15,2.89s1.75,1.13,2.93,1.13c.97,0,1.87-.25,2.69-.74Zm-1.81-31.04c1.56,0,2.9,.53,4.01,1.6,1.12,1.07,1.67,2.36,1.67,3.87s-.56,2.8-1.67,3.87c-1.12,1.07-2.45,1.6-4.01,1.6s-2.93-.53-4.04-1.6c-1.12-1.07-1.67-2.36-1.67-3.87s.56-2.8,1.67-3.87c1.12-1.07,2.46-1.6,4.04-1.6Zm-.03,3.71c-.51,0-.95,.17-1.3,.51s-.53,.75-.53,1.25,.18,.91,.53,1.25,.79,.51,1.3,.51,.92-.17,1.27-.51c.36-.34,.53-.75,.53-1.25s-.18-.91-.53-1.25c-.35-.34-.78-.51-1.27-.51Z"/>
    <path class="cls-37" d="M926.98,421.94h-11.08v-15.24c0-1.17-.13-1.98-.38-2.44-.26-.45-.72-.68-1.39-.68-1.24,0-1.87,1.05-1.87,3.14v15.21h-11.08v-15.24c0-1.17-.13-1.98-.4-2.44s-.74-.68-1.41-.68c-1.22,0-1.84,1.05-1.84,3.14v15.21h-11.08v-17.39c0-3.17,1.12-5.87,3.35-8.09,2.23-2.22,4.94-3.33,8.11-3.33s6.22,1.32,8.82,3.96c2.9-2.64,5.8-3.96,8.71-3.96,3.69,0,6.65,1.28,8.88,3.85,1.76,2,2.64,4.92,2.64,8.75v16.2Z"/>
    <path class="cls-37" d="M949.87,411.35v10.96c-.91,.15-1.74,.23-2.49,.23-4.44,0-8.14-1.4-11.1-4.19s-4.44-6.3-4.44-10.51,1.5-7.57,4.49-10.42,6.63-4.28,10.91-4.28c4.78,0,8.54,1.34,11.3,4.01,2.75,2.67,4.13,6.32,4.13,10.95v13.85h-11.08v-13.08c0-1.49-.38-2.68-1.14-3.57-.76-.89-1.78-1.33-3.06-1.33-1.17,0-2.17,.41-3.02,1.22s-1.27,1.77-1.27,2.89c0,1.17,.38,2.13,1.15,2.89s1.75,1.13,2.93,1.13c.97,0,1.87-.25,2.69-.74Z"/>
    <path class="cls-37" d="M995.45,421.94h-11.08v-15.94c0-1.62-.7-2.44-2.1-2.44s-2.07,.81-2.07,2.44v15.94h-11.08v-15.75c0-3.68,1.27-6.78,3.82-9.3,2.55-2.52,5.67-3.78,9.36-3.78,4.22,0,7.61,1.46,10.16,4.39,1.99,2.28,2.99,5.47,2.99,9.54v14.9Z"/>
    <path class="cls-37" d="M1017.66,410.3v9.71c-1.6,.57-3.13,.85-4.59,.85-3.57,0-6.6-1.29-9.08-3.88s-3.72-5.75-3.72-9.49c0-4.04,1.49-7.45,4.47-10.22,2.98-2.78,6.64-4.16,10.99-4.16,2.31,0,4.52,.44,6.63,1.33,2.11,.89,3.77,2.08,4.98,3.57,2.01,2.47,3.02,6.06,3.02,10.76v9.29c0,5.04-1.5,9.13-4.49,12.28-2.99,3.14-6.88,4.72-11.68,4.72-1.46,0-3.31-.35-5.54-1.05v-9.63c1.44,.75,2.9,1.13,4.38,1.13,1.99,0,3.53-.63,4.62-1.88,1.09-1.26,1.63-3.05,1.63-5.4v-10.62c0-2.96-1.25-4.45-3.76-4.45-1.07,0-2,.39-2.8,1.17-.8,.78-1.2,1.69-1.2,2.71,0,1.08,.38,1.97,1.14,2.69s1.7,1.08,2.83,1.08c.75,0,1.47-.17,2.16-.51Z"/>
    <path class="cls-37" d="M1065.9,409.54h-16.79c-.26-.81-.38-1.56-.38-2.24,0-.94,.18-1.87,.53-2.78h5.63c-.4-2.1-1.63-3.14-3.7-3.14-1.38,0-2.51,.56-3.38,1.69-.87,1.12-1.3,2.56-1.3,4.32s.42,3.31,1.26,4.45c.84,1.13,1.94,1.7,3.3,1.7,1.11,0,2.17-.53,3.2-1.59l6.31,7.25c-2.94,2.21-6.21,3.31-9.8,3.31-4.38,0-8.06-1.41-11.05-4.22-2.98-2.81-4.47-6.3-4.47-10.45s1.5-7.63,4.52-10.48c3.01-2.85,6.71-4.28,11.09-4.28s7.88,1.39,10.79,4.18c2.91,2.79,4.37,6.22,4.37,10.29,0,.42-.04,1.08-.12,1.98Z"/>
    <path class="cls-37" d="M1101.67,399.97v11.1h-4.95v10.88h-11.08v-23.99c0-2.7,.48-5,1.45-6.91,1.22-2.44,3.08-4.42,5.58-5.96,2.5-1.54,5.1-2.31,7.8-2.31l1.18,.03v11.1c-.26-.02-.44-.03-.56-.03-1.4,0-2.48,.44-3.24,1.33-.76,.89-1.14,2.15-1.14,3.79v.96h4.95Z"/>
    <path class="cls-37" d="M1122.93,411.35v10.96c-.91,.15-1.74,.23-2.49,.23-4.44,0-8.14-1.4-11.1-4.19s-4.44-6.3-4.44-10.51,1.5-7.57,4.49-10.42,6.63-4.28,10.91-4.28c4.78,0,8.54,1.34,11.3,4.01,2.75,2.67,4.13,6.32,4.13,10.95v13.85h-11.08v-13.08c0-1.49-.38-2.68-1.14-3.57-.76-.89-1.78-1.33-3.06-1.33-1.17,0-2.17,.41-3.02,1.22s-1.27,1.77-1.27,2.89c0,1.17,.38,2.13,1.15,2.89s1.75,1.13,2.93,1.13c.97,0,1.87-.25,2.69-.74Zm-1.81-31.04c1.56,0,2.9,.53,4.01,1.6,1.12,1.07,1.67,2.36,1.67,3.87s-.56,2.8-1.67,3.87c-1.12,1.07-2.45,1.6-4.01,1.6s-2.93-.53-4.04-1.6c-1.12-1.07-1.67-2.36-1.67-3.87s.56-2.8,1.67-3.87c1.12-1.07,2.46-1.6,4.04-1.6Zm-.03,3.71c-.51,0-.95,.17-1.3,.51s-.53,.75-.53,1.25,.18,.91,.53,1.25,.79,.51,1.3,.51,.92-.17,1.27-.51c.36-.34,.53-.75,.53-1.25s-.18-.91-.53-1.25c-.35-.34-.78-.51-1.27-.51Z"/>
    <path class="cls-37" d="M1158.38,393.42v11.33c-.77-.42-1.47-.62-2.1-.62-2.01,0-3.02,1.47-3.02,4.42v13.4h-11.08v-15.43c0-4.08,1.17-7.33,3.49-9.76,2.33-2.43,5.44-3.64,9.33-3.64,.87,0,1.99,.1,3.38,.31Z"/>
    <path class="cls-37" d="M1195.3,394.1v11.16c-1.56,0-2.63,.28-3.21,.83-.58,.56-.95,1.66-1.11,3.3-.51,5.46-2.72,9.31-6.63,11.55-2.07,1.17-5.01,1.76-8.82,1.76h-1.54v-11.21h.5c1.78,0,3.04-.35,3.81-1.06,.76-.71,1.2-1.95,1.32-3.72,.16-2.89,.44-4.92,.84-6.09s1.23-2.33,2.47-3.48c2.17-2.02,5.18-3.03,9.03-3.03h3.35Z"/>
    <path class="cls-37" d="M1212.92,393.11c4.19,0,7.77,1.44,10.76,4.32,2.99,2.88,4.49,6.33,4.49,10.35s-1.52,7.55-4.55,10.42c-3.03,2.87-6.69,4.3-10.97,4.3s-7.95-1.44-10.99-4.32c-3.04-2.88-4.56-6.35-4.56-10.41s1.52-7.61,4.56-10.44c3.04-2.82,6.79-4.23,11.25-4.23Zm-.3,10.45c-1.18,0-2.19,.41-3.02,1.23-.83,.82-1.24,1.83-1.24,3.02s.42,2.17,1.26,3c.84,.83,1.84,1.25,3.01,1.25s2.2-.42,3.04-1.25c.84-.83,1.26-1.83,1.26-3s-.41-2.19-1.24-3.02c-.83-.82-1.85-1.23-3.05-1.23Z"/>
    <path class="cls-37" d="M1273.3,421.94h-11.08v-15.24c0-1.17-.13-1.98-.38-2.44-.26-.45-.72-.68-1.39-.68-1.24,0-1.87,1.05-1.87,3.14v15.21h-11.08v-15.24c0-1.17-.13-1.98-.4-2.44s-.74-.68-1.41-.68c-1.22,0-1.84,1.05-1.84,3.14v15.21h-11.08v-17.39c0-3.17,1.12-5.87,3.35-8.09,2.23-2.22,4.94-3.33,8.11-3.33s6.22,1.32,8.82,3.96c2.9-2.64,5.8-3.96,8.71-3.96,3.69,0,6.65,1.28,8.88,3.85,1.76,2,2.64,4.92,2.64,8.75v16.2Z"/>
    <path class="cls-37" d="M1313.13,383.29h11.08v23.53c0,4.32-1.18,7.84-3.55,10.56-1.36,1.57-3.09,2.81-5.2,3.74s-4.26,1.39-6.47,1.39c-4.4,0-8.11-1.42-11.13-4.25s-4.53-6.31-4.53-10.42,1.5-7.43,4.5-10.34c3-2.91,6.55-4.36,10.66-4.36,.65,0,1.64,.06,2.96,.17v11.67c-.91-.68-1.82-1.02-2.72-1.02-1.15,0-2.13,.4-2.95,1.2-.82,.8-1.23,1.77-1.23,2.9s.42,2.03,1.27,2.82c.85,.78,1.87,1.17,3.05,1.17,2.84,0,4.26-1.88,4.26-5.64v-23.14Z"/>
    <path class="cls-37" d="M1330.04,394.1h11.08v15.94c0,1.6,.7,2.41,2.1,2.41s2.07-.8,2.07-2.41v-15.94h11.08v15.75c0,3.66-1.27,6.75-3.82,9.27-2.55,2.52-5.67,3.78-9.36,3.78-4.21,0-7.59-1.46-10.16-4.39-1.99-2.28-2.99-5.46-2.99-9.52v-14.9Z"/>
    <path class="cls-37" d="M1389.06,383.29v38.66h-11.08v-38.66h11.08Zm16.97,10.42l-5.42,10.28,8.05,17.96h-12.26l-6.93-18.44,5.03-9.8h11.52Z"/>
    <path class="cls-37" d="M1427.08,411.35v10.96c-.91,.15-1.74,.23-2.49,.23-4.44,0-8.14-1.4-11.1-4.19s-4.44-6.3-4.44-10.51,1.5-7.57,4.49-10.42,6.63-4.28,10.91-4.28c4.78,0,8.54,1.34,11.3,4.01,2.75,2.67,4.13,6.32,4.13,10.95v13.85h-11.08v-13.08c0-1.49-.38-2.68-1.14-3.57-.76-.89-1.78-1.33-3.06-1.33-1.17,0-2.17,.41-3.02,1.22s-1.27,1.77-1.27,2.89c0,1.17,.38,2.13,1.15,2.89s1.75,1.13,2.93,1.13c.97,0,1.87-.25,2.69-.74Z"/>
    <path class="cls-37" d="M1472.65,421.94h-11.08v-15.94c0-1.62-.7-2.44-2.1-2.44s-2.07,.81-2.07,2.44v15.94h-11.08v-15.75c0-3.68,1.27-6.78,3.82-9.3,2.55-2.52,5.67-3.78,9.36-3.78,4.22,0,7.61,1.46,10.16,4.39,1.99,2.28,2.99,5.47,2.99,9.54v14.9Z"/>
    <path class="cls-37" d="M414.66,501.99h-11.08v-23.56c0-4.32,1.18-7.84,3.55-10.56,1.36-1.57,3.09-2.81,5.2-3.74s4.26-1.39,6.47-1.39c4.4,0,8.11,1.42,11.13,4.25s4.53,6.31,4.53,10.42-1.5,7.46-4.5,10.37-6.55,4.36-10.66,4.36c-.67,0-1.66-.07-2.96-.2v-11.67c.91,.7,1.82,1.05,2.72,1.05,1.15,0,2.13-.41,2.95-1.22,.82-.81,1.23-1.77,1.23-2.89s-.42-2.06-1.27-2.85c-.85-.78-1.87-1.18-3.05-1.18-2.84,0-4.26,1.88-4.26,5.64v23.17Z"/>
    <path class="cls-37" d="M455.73,480.95v10.96c-.91,.15-1.74,.23-2.49,.23-4.44,0-8.14-1.4-11.1-4.19s-4.44-6.3-4.44-10.51,1.5-7.57,4.49-10.42,6.63-4.28,10.91-4.28c4.78,0,8.54,1.34,11.3,4.01,2.75,2.67,4.13,6.32,4.13,10.95v13.85h-11.08v-13.08c0-1.49-.38-2.68-1.14-3.57-.76-.89-1.78-1.33-3.06-1.33-1.17,0-2.17,.41-3.02,1.22s-1.27,1.77-1.27,2.89c0,1.17,.38,2.13,1.15,2.89s1.75,1.13,2.93,1.13c.97,0,1.87-.25,2.69-.74Zm-1.81-31.04c1.56,0,2.9,.53,4.01,1.6,1.12,1.07,1.67,2.36,1.67,3.87s-.56,2.8-1.67,3.87c-1.12,1.07-2.45,1.6-4.01,1.6s-2.93-.53-4.04-1.6c-1.12-1.07-1.67-2.36-1.67-3.87s.56-2.8,1.67-3.87c1.12-1.07,2.46-1.6,4.04-1.6Zm-.03,3.71c-.51,0-.95,.17-1.3,.51s-.53,.75-.53,1.25,.18,.91,.53,1.25,.79,.51,1.3,.51,.92-.17,1.27-.51c.36-.34,.53-.75,.53-1.25s-.18-.91-.53-1.25c-.35-.34-.78-.51-1.27-.51Z"/>
    <path class="cls-37" d="M493.43,452.89h21.41l-6.6,14.87c2.37,1.53,4.09,3.21,5.17,5.03,1.08,1.82,1.61,3.98,1.61,6.47,0,3.72-1.43,6.86-4.29,9.42-2.86,2.56-6.39,3.84-10.57,3.84-2.31,0-4.6-.42-6.87-1.25v-10.93c1.72,1.02,3.21,1.53,4.47,1.53,1.38,0,2.54-.47,3.48-1.42,.94-.94,1.41-2.11,1.41-3.51,0-1.6-.7-2.88-2.1-3.84-1.4-.95-3.28-1.43-5.63-1.43l2.99-7.62h-4.47v-11.16Z"/>
    <path class="cls-37" d="M524.19,476.45v-8.5c0-4.95,1.29-8.85,3.86-11.72s6.09-4.3,10.53-4.3,7.96,1.43,10.54,4.3c2.59,2.87,3.88,6.78,3.88,11.72v8.5c0,4.95-1.29,8.86-3.88,11.74-2.59,2.88-6.1,4.32-10.54,4.32s-7.95-1.44-10.53-4.32c-2.58-2.88-3.86-6.79-3.86-11.74Zm11.52-10.76v13.03c0,2.36,.96,3.54,2.87,3.54s2.9-1.18,2.9-3.54v-13.03c0-2.36-.97-3.54-2.9-3.54s-2.87,1.18-2.87,3.54Z"/>
    <path class="cls-37" d="M592.75,463.7v11.16c-1.56,0-2.63,.28-3.21,.83-.58,.56-.95,1.66-1.11,3.3-.51,5.46-2.72,9.31-6.63,11.55-2.07,1.17-5.01,1.76-8.82,1.76h-1.54v-11.21h.5c1.78,0,3.04-.35,3.81-1.06,.76-.71,1.2-1.95,1.32-3.72,.16-2.89,.44-4.92,.84-6.09s1.23-2.33,2.47-3.48c2.17-2.02,5.18-3.03,9.03-3.03h3.35Z"/>
    <path class="cls-37" d="M625.38,479.14h-16.79c-.26-.81-.38-1.56-.38-2.24,0-.94,.18-1.87,.53-2.78h5.63c-.4-2.1-1.63-3.14-3.7-3.14-1.38,0-2.51,.56-3.38,1.69-.87,1.12-1.3,2.56-1.3,4.32s.42,3.31,1.26,4.45c.84,1.13,1.94,1.7,3.3,1.7,1.11,0,2.17-.53,3.2-1.59l6.31,7.25c-2.94,2.21-6.21,3.31-9.8,3.31-4.38,0-8.06-1.41-11.05-4.22-2.98-2.81-4.47-6.3-4.47-10.45s1.5-7.63,4.52-10.48c3.01-2.85,6.71-4.28,11.09-4.28s7.88,1.39,10.79,4.18c2.91,2.79,4.37,6.22,4.37,10.29,0,.42-.04,1.08-.12,1.98Z"/>
    <path class="cls-37" d="M641.04,452.89v38.66h-11.08v-38.66h11.08Zm16.97,10.42l-5.42,10.28,8.05,17.96h-12.26l-6.93-18.44,5.03-9.8h11.52Z"/>
    <path class="cls-37" d="M662.66,463.7h11.08v15.94c0,1.6,.7,2.41,2.1,2.41s2.07-.8,2.07-2.41v-15.94h11.08v15.75c0,3.66-1.27,6.75-3.82,9.27-2.55,2.52-5.67,3.78-9.36,3.78-4.21,0-7.59-1.46-10.16-4.39-1.99-2.28-2.99-5.46-2.99-9.52v-14.9Z"/>
    <path class="cls-37" d="M721.77,491.54h-11.08v-15.94c0-1.62-.7-2.44-2.1-2.44s-2.07,.81-2.07,2.44v15.94h-11.08v-15.75c0-3.68,1.27-6.78,3.82-9.3,2.55-2.52,5.67-3.78,9.36-3.78,4.22,0,7.61,1.46,10.16,4.39,1.99,2.28,2.99,5.47,2.99,9.54v14.9Z"/>
    <path class="cls-37" d="M746.41,452.89h11.08v23.53c0,4.32-1.18,7.84-3.55,10.56-1.36,1.57-3.09,2.81-5.2,3.74s-4.26,1.39-6.47,1.39c-4.4,0-8.11-1.42-11.13-4.25s-4.53-6.31-4.53-10.42,1.5-7.43,4.5-10.34c3-2.91,6.55-4.36,10.66-4.36,.65,0,1.64,.06,2.96,.17v11.67c-.91-.68-1.82-1.02-2.72-1.02-1.15,0-2.13,.4-2.95,1.2-.82,.8-1.23,1.77-1.23,2.9s.42,2.03,1.27,2.82c.85,.78,1.87,1.17,3.05,1.17,2.84,0,4.26-1.88,4.26-5.64v-23.14Z"/>
    <path class="cls-37" d="M792.33,479.14h-16.79c-.26-.81-.38-1.56-.38-2.24,0-.94,.18-1.87,.53-2.78h5.63c-.4-2.1-1.63-3.14-3.7-3.14-1.38,0-2.51,.56-3.38,1.69-.87,1.12-1.3,2.56-1.3,4.32s.42,3.31,1.26,4.45c.84,1.13,1.94,1.7,3.3,1.7,1.11,0,2.17-.53,3.2-1.59l6.31,7.25c-2.94,2.21-6.21,3.31-9.8,3.31-4.38,0-8.06-1.41-11.05-4.22-2.98-2.81-4.47-6.3-4.47-10.45s1.5-7.63,4.52-10.48c3.01-2.85,6.71-4.28,11.09-4.28s7.88,1.39,10.79,4.18c2.91,2.79,4.37,6.22,4.37,10.29,0,.42-.04,1.08-.12,1.98Z"/>
    <path class="cls-37" d="M813.12,463.02v11.33c-.77-.42-1.47-.62-2.1-.62-2.01,0-3.02,1.47-3.02,4.42v13.4h-11.08v-15.43c0-4.08,1.17-7.33,3.49-9.76,2.33-2.43,5.44-3.64,9.33-3.64,.87,0,1.99,.1,3.38,.31Z"/>
    <path class="cls-37" d="M824.58,478.86c1.93,0,3.6,.67,4.99,2.01,1.39,1.34,2.09,2.94,2.09,4.79s-.69,3.42-2.07,4.71c-1.38,1.29-3.05,1.94-5,1.94s-3.71-.63-5.02-1.88c-1.31-1.25-1.97-2.86-1.97-4.8s.68-3.49,2.04-4.8c1.36-1.31,3.01-1.97,4.95-1.97Z"/>
    <path class="cls-37" d="M852.18,463.99v27.56h-12.02v-38.66h15.67c6.87,0,12.25,1.49,16.14,4.47,4.62,3.57,6.93,8.41,6.93,14.53s-1.97,10.63-5.92,14.33c-3.95,3.7-9.03,5.55-15.25,5.55-.73,0-1.92-.04-3.58-.11v-11.36h1.92c7.01,0,10.51-2.8,10.51-8.41,0-5.27-3.45-7.9-10.33-7.9h-4.06Z"/>
    <path class="cls-37" d="M883.72,463.7h11.08v15.94c0,1.6,.7,2.41,2.1,2.41s2.07-.8,2.07-2.41v-15.94h11.08v15.75c0,3.66-1.27,6.75-3.82,9.27-2.55,2.52-5.67,3.78-9.36,3.78-4.21,0-7.59-1.46-10.16-4.39-1.99-2.28-2.99-5.46-2.99-9.52v-14.9Z"/>
    <path class="cls-37" d="M947.68,469.57v11.1h-4.95v10.88h-11.08v-23.99c0-2.7,.48-5,1.45-6.91,1.22-2.44,3.08-4.42,5.58-5.96,2.5-1.54,5.1-2.31,7.8-2.31l1.18,.03v11.1c-.26-.02-.44-.03-.56-.03-1.4,0-2.48,.44-3.24,1.33-.76,.89-1.14,2.15-1.14,3.79v.96h4.95Z"/>
    <path class="cls-37" d="M968.94,480.95v10.96c-.91,.15-1.74,.23-2.49,.23-4.44,0-8.14-1.4-11.1-4.19s-4.44-6.3-4.44-10.51,1.5-7.57,4.49-10.42,6.63-4.28,10.91-4.28c4.78,0,8.54,1.34,11.3,4.01,2.75,2.67,4.13,6.32,4.13,10.95v13.85h-11.08v-13.08c0-1.49-.38-2.68-1.14-3.57-.76-.89-1.78-1.33-3.06-1.33-1.17,0-2.17,.41-3.02,1.22s-1.27,1.77-1.27,2.89c0,1.17,.38,2.13,1.15,2.89s1.75,1.13,2.93,1.13c.97,0,1.87-.25,2.69-.74Zm-1.81-31.04c1.56,0,2.9,.53,4.01,1.6,1.12,1.07,1.67,2.36,1.67,3.87s-.56,2.8-1.67,3.87c-1.12,1.07-2.45,1.6-4.01,1.6s-2.93-.53-4.04-1.6c-1.12-1.07-1.67-2.36-1.67-3.87s.56-2.8,1.67-3.87c1.12-1.07,2.46-1.6,4.04-1.6Zm-.03,3.71c-.51,0-.95,.17-1.3,.51s-.53,.75-.53,1.25,.18,.91,.53,1.25,.79,.51,1.3,.51,.92-.17,1.27-.51c.36-.34,.53-.75,.53-1.25s-.18-.91-.53-1.25c-.35-.34-.78-.51-1.27-.51Z"/>
    <path class="cls-37" d="M1004.39,463.02v11.33c-.77-.42-1.47-.62-2.1-.62-2.01,0-3.02,1.47-3.02,4.42v13.4h-11.08v-15.43c0-4.08,1.17-7.33,3.49-9.76,2.33-2.43,5.44-3.64,9.33-3.64,.87,0,1.99,.1,3.38,.31Z"/>
    <path class="cls-37" d="M1027.4,452.89v38.66h-11.46v-38.66h11.46Z"/>
    <path class="cls-37" d="M1067.7,501.99h-11.08v-23.56c0-4.32,1.18-7.84,3.55-10.56,1.36-1.57,3.09-2.81,5.2-3.74s4.26-1.39,6.47-1.39c4.4,0,8.11,1.42,11.13,4.25s4.53,6.31,4.53,10.42-1.5,7.46-4.5,10.37-6.55,4.36-10.66,4.36c-.67,0-1.66-.07-2.96-.2v-11.67c.91,.7,1.82,1.05,2.72,1.05,1.15,0,2.13-.41,2.95-1.22,.82-.81,1.23-1.77,1.23-2.89s-.42-2.06-1.27-2.85c-.85-.78-1.87-1.18-3.05-1.18-2.84,0-4.26,1.88-4.26,5.64v23.17Z"/>
    <path class="cls-37" d="M1106.38,462.71c4.19,0,7.77,1.44,10.76,4.32,2.99,2.88,4.49,6.33,4.49,10.35s-1.52,7.55-4.55,10.42c-3.03,2.87-6.69,4.3-10.97,4.3s-7.95-1.44-10.99-4.32c-3.04-2.88-4.56-6.35-4.56-10.41s1.52-7.61,4.56-10.44c3.04-2.82,6.79-4.23,11.25-4.23Zm-.3,10.45c-1.18,0-2.19,.41-3.02,1.23-.83,.82-1.24,1.83-1.24,3.02s.42,2.17,1.26,3c.84,.83,1.84,1.25,3.01,1.25s2.2-.42,3.04-1.25c.84-.83,1.26-1.83,1.26-3s-.41-2.19-1.24-3.02c-.83-.82-1.85-1.23-3.05-1.23Z"/>
    <path class="cls-37" d="M1137.32,463.31v28.24h-11.08v-28.24h11.08Zm-5.51-12.6c1.5,0,2.8,.5,3.89,1.52,1.1,1.01,1.64,2.2,1.64,3.58,0,1.47-.52,2.68-1.55,3.62s-2.36,1.42-3.98,1.42-2.95-.47-3.98-1.42-1.55-2.15-1.55-3.62c0-1.38,.55-2.57,1.64-3.58,1.1-1.01,2.39-1.52,3.89-1.52Z"/>
    <path class="cls-37" d="M1170.16,491.54h-11.08v-15.94c0-1.62-.7-2.44-2.1-2.44s-2.07,.81-2.07,2.44v15.94h-11.08v-15.75c0-3.68,1.27-6.78,3.82-9.3,2.55-2.52,5.67-3.78,9.36-3.78,4.22,0,7.61,1.46,10.16,4.39,1.99,2.28,2.99,5.47,2.99,9.54v14.9Z"/>
    <path class="cls-37" d="M1186.48,452.89v10.82h4.97v11.19h-4.97c0,2.25,.37,3.79,1.11,4.64s2.1,1.27,4.07,1.27v11.13c-.57,.02-1,.03-1.27,.03-2.51,0-4.87-.56-7.09-1.67-2.22-1.11-4-2.62-5.34-4.53-1.7-2.44-2.55-5.66-2.55-9.69v-23.19h11.08Z"/>
    <path class="cls-37" d="M1223.14,452.89v11.81c1.88-1.3,3.75-1.95,5.63-1.95,2.84,0,5.1,.98,6.77,2.95,1.67,1.96,2.5,4.62,2.5,7.96v17.9h-11.07v-14.92c0-1.21-.13-2.02-.4-2.44s-.78-.62-1.55-.62c-1.24,0-1.87,.88-1.87,2.63v15.35h-11.08v-38.66h11.08Z"/>
    <path class="cls-37" d="M1266.67,463.31l-13.8,29.34-13.62-29.34h10.57l3.14,7.62,3.44-7.62h10.28Z"/>
    <path class="cls-37" d="M1296.87,479.14h-16.79c-.26-.81-.38-1.56-.38-2.24,0-.94,.18-1.87,.53-2.78h5.63c-.4-2.1-1.63-3.14-3.7-3.14-1.38,0-2.51,.56-3.38,1.69-.87,1.12-1.3,2.56-1.3,4.32s.42,3.31,1.26,4.45c.84,1.13,1.94,1.7,3.3,1.7,1.11,0,2.17-.53,3.2-1.59l6.31,7.25c-2.94,2.21-6.21,3.31-9.8,3.31-4.38,0-8.06-1.41-11.05-4.22-2.98-2.81-4.47-6.3-4.47-10.45s1.5-7.63,4.52-10.48c3.01-2.85,6.71-4.28,11.09-4.28s7.88,1.39,10.79,4.18c2.91,2.79,4.37,6.22,4.37,10.29,0,.42-.04,1.08-.12,1.98Z"/>
    <path class="cls-37" d="M1317.66,463.02v11.33c-.77-.42-1.47-.62-2.1-.62-2.01,0-3.02,1.47-3.02,4.42v13.4h-11.08v-15.43c0-4.08,1.17-7.33,3.49-9.76,2.33-2.43,5.44-3.64,9.33-3.64,.87,0,1.99,.1,3.38,.31Z"/>
    <path class="cls-37" d="M1351.83,479.9v9.71c-1.6,.57-3.13,.85-4.59,.85-3.57,0-6.6-1.29-9.08-3.88s-3.72-5.75-3.72-9.49c0-4.04,1.49-7.45,4.47-10.22,2.98-2.78,6.64-4.16,10.99-4.16,2.31,0,4.52,.44,6.63,1.33,2.11,.89,3.77,2.08,4.98,3.57,2.01,2.47,3.02,6.06,3.02,10.76v9.29c0,5.04-1.5,9.13-4.49,12.28-2.99,3.14-6.88,4.72-11.68,4.72-1.46,0-3.31-.35-5.54-1.05v-9.63c1.44,.75,2.9,1.13,4.38,1.13,1.99,0,3.53-.63,4.62-1.88,1.09-1.26,1.63-3.05,1.63-5.4v-10.62c0-2.96-1.25-4.45-3.76-4.45-1.07,0-2,.39-2.8,1.17-.8,.78-1.2,1.69-1.2,2.71,0,1.08,.38,1.97,1.14,2.69s1.7,1.08,2.83,1.08c.75,0,1.47-.17,2.16-.51Z"/>
    <path class="cls-37" d="M1387.46,480.95v10.96c-.91,.15-1.74,.23-2.49,.23-4.44,0-8.14-1.4-11.1-4.19s-4.44-6.3-4.44-10.51,1.5-7.57,4.49-10.42,6.63-4.28,10.91-4.28c4.78,0,8.54,1.34,11.3,4.01,2.75,2.67,4.13,6.32,4.13,10.95v13.85h-11.08v-13.08c0-1.49-.38-2.68-1.14-3.57-.76-.89-1.78-1.33-3.06-1.33-1.17,0-2.17,.41-3.02,1.22s-1.27,1.77-1.27,2.89c0,1.17,.38,2.13,1.15,2.89s1.75,1.13,2.93,1.13c.97,0,1.87-.25,2.69-.74Z"/>
    <path class="cls-37" d="M1433.03,491.54h-11.08v-15.94c0-1.62-.7-2.44-2.1-2.44s-2.07,.81-2.07,2.44v15.94h-11.08v-15.75c0-3.68,1.27-6.78,3.82-9.3,2.55-2.52,5.67-3.78,9.36-3.78,4.22,0,7.61,1.46,10.16,4.39,1.99,2.28,2.99,5.47,2.99,9.54v14.9Z"/>
    <path class="cls-37" d="M1455.24,479.9v9.71c-1.6,.57-3.13,.85-4.59,.85-3.57,0-6.6-1.29-9.08-3.88s-3.72-5.75-3.72-9.49c0-4.04,1.49-7.45,4.47-10.22,2.98-2.78,6.64-4.16,10.99-4.16,2.31,0,4.52,.44,6.63,1.33,2.11,.89,3.77,2.08,4.98,3.57,2.01,2.47,3.02,6.06,3.02,10.76v9.29c0,5.04-1.5,9.13-4.49,12.28-2.99,3.14-6.88,4.72-11.68,4.72-1.46,0-3.31-.35-5.54-1.05v-9.63c1.44,.75,2.9,1.13,4.38,1.13,1.99,0,3.53-.63,4.62-1.88,1.09-1.26,1.63-3.05,1.63-5.4v-10.62c0-2.96-1.25-4.45-3.76-4.45-1.07,0-2,.39-2.8,1.17-.8,.78-1.2,1.69-1.2,2.71,0,1.08,.38,1.97,1.14,2.69s1.7,1.08,2.83,1.08c.75,0,1.47-.17,2.16-.51Z"/>
    <path class="cls-37" d="M422.41,522.49h11.08v23.53c0,4.32-1.18,7.84-3.55,10.56-1.36,1.57-3.09,2.81-5.2,3.74s-4.26,1.39-6.47,1.39c-4.4,0-8.11-1.42-11.13-4.25s-4.53-6.31-4.53-10.42,1.5-7.43,4.5-10.34c3-2.91,6.55-4.36,10.66-4.36,.65,0,1.64,.06,2.96,.17v11.67c-.91-.68-1.82-1.02-2.72-1.02-1.15,0-2.13,.4-2.95,1.2-.82,.8-1.23,1.77-1.23,2.9s.42,2.03,1.27,2.82c.85,.78,1.87,1.17,3.05,1.17,2.84,0,4.26-1.88,4.26-5.64v-23.14Z"/>
    <path class="cls-37" d="M439.32,533.3h11.08v15.94c0,1.6,.7,2.41,2.1,2.41s2.07-.8,2.07-2.41v-15.94h11.08v15.75c0,3.66-1.27,6.75-3.82,9.27-2.55,2.52-5.67,3.78-9.36,3.78-4.21,0-7.59-1.46-10.16-4.39-1.99-2.28-2.99-5.46-2.99-9.52v-14.9Z"/>
    <path class="cls-37" d="M505.77,533.3v11.16c-1.56,0-2.63,.28-3.21,.83-.58,.56-.95,1.66-1.11,3.3-.51,5.46-2.72,9.31-6.63,11.55-2.07,1.17-5.01,1.76-8.82,1.76h-1.54v-11.21h.5c1.78,0,3.04-.35,3.81-1.06,.76-.71,1.2-1.95,1.32-3.72,.16-2.89,.44-4.92,.84-6.09s1.23-2.33,2.47-3.48c2.17-2.02,5.18-3.03,9.03-3.03h3.35Z"/>
    <path class="cls-37" d="M519.81,571.59h-11.08v-23.56c0-4.32,1.18-7.84,3.55-10.56,1.36-1.57,3.09-2.81,5.2-3.74s4.26-1.39,6.47-1.39c4.4,0,8.11,1.42,11.13,4.25s4.53,6.31,4.53,10.42-1.5,7.46-4.5,10.37-6.55,4.36-10.66,4.36c-.67,0-1.66-.07-2.96-.2v-11.67c.91,.7,1.82,1.05,2.72,1.05,1.15,0,2.13-.41,2.95-1.22,.82-.81,1.23-1.77,1.23-2.89s-.42-2.06-1.27-2.85c-.85-.78-1.87-1.18-3.05-1.18-2.84,0-4.26,1.88-4.26,5.64v23.17Z"/>
    <path class="cls-37" d="M560.88,550.55v10.96c-.91,.15-1.74,.23-2.49,.23-4.44,0-8.14-1.4-11.1-4.19s-4.44-6.3-4.44-10.51,1.5-7.57,4.49-10.42,6.63-4.28,10.91-4.28c4.78,0,8.54,1.34,11.3,4.01,2.75,2.67,4.13,6.32,4.13,10.95v13.85h-11.08v-13.08c0-1.49-.38-2.68-1.14-3.57-.76-.89-1.78-1.33-3.06-1.33-1.17,0-2.17,.41-3.02,1.22s-1.27,1.77-1.27,2.89c0,1.17,.38,2.13,1.15,2.89s1.75,1.13,2.93,1.13c.97,0,1.87-.25,2.69-.74Z"/>
    <path class="cls-37" d="M596.33,532.62v11.33c-.77-.42-1.47-.62-2.1-.62-2.01,0-3.02,1.47-3.02,4.42v13.4h-11.08v-15.43c0-4.08,1.17-7.33,3.49-9.76,2.33-2.43,5.44-3.64,9.33-3.64,.87,0,1.99,.1,3.38,.31Z"/>
    <path class="cls-37" d="M610.66,522.49v38.66h-11.08v-38.66h11.08Zm16.97,10.42l-5.42,10.28,8.05,17.96h-12.26l-6.93-18.44,5.03-9.8h11.52Z"/>
    <path class="cls-37" d="M661.3,548.74h-16.79c-.26-.81-.38-1.56-.38-2.24,0-.94,.18-1.87,.53-2.78h5.63c-.4-2.1-1.63-3.14-3.7-3.14-1.38,0-2.51,.56-3.38,1.69-.87,1.12-1.3,2.56-1.3,4.32s.42,3.31,1.26,4.45c.84,1.13,1.94,1.7,3.3,1.7,1.11,0,2.17-.53,3.2-1.59l6.31,7.25c-2.94,2.21-6.21,3.31-9.8,3.31-4.38,0-8.06-1.41-11.05-4.22-2.98-2.81-4.47-6.3-4.47-10.45s1.5-7.63,4.52-10.48c3.01-2.85,6.71-4.28,11.09-4.28s7.88,1.39,10.79,4.18c2.91,2.79,4.37,6.22,4.37,10.29,0,.42-.04,1.08-.12,1.98Z"/>
    <path class="cls-37" d="M682.09,532.62v11.33c-.77-.42-1.47-.62-2.1-.62-2.01,0-3.02,1.47-3.02,4.42v13.4h-11.08v-15.43c0-4.08,1.17-7.33,3.49-9.76,2.33-2.43,5.44-3.64,9.33-3.64,.87,0,1.99,.1,3.38,.31Z"/>
    <path class="cls-37" d="M729.53,548.74h-16.79c-.26-.81-.38-1.56-.38-2.24,0-.94,.18-1.87,.53-2.78h5.63c-.4-2.1-1.63-3.14-3.7-3.14-1.38,0-2.51,.56-3.38,1.69-.87,1.12-1.3,2.56-1.3,4.32s.42,3.31,1.26,4.45c.84,1.13,1.94,1.7,3.3,1.7,1.11,0,2.17-.53,3.2-1.59l6.31,7.25c-2.94,2.21-6.21,3.31-9.8,3.31-4.38,0-8.06-1.41-11.05-4.22-2.98-2.81-4.47-6.3-4.47-10.45s1.5-7.63,4.52-10.48c3.01-2.85,6.71-4.28,11.09-4.28s7.88,1.39,10.79,4.18c2.91,2.79,4.37,6.22,4.37,10.29,0,.42-.04,1.08-.12,1.98Z"/>
    <path class="cls-37" d="M743.98,522.49v10.82h4.97v11.19h-4.97c0,2.25,.37,3.79,1.11,4.64s2.1,1.27,4.07,1.27v11.13c-.57,.02-1,.03-1.27,.03-2.51,0-4.87-.56-7.09-1.67-2.22-1.11-4-2.62-5.34-4.53-1.7-2.44-2.55-5.66-2.55-9.69v-23.19h11.08Z"/>
    <path class="cls-37" d="M785.58,539.17v11.1h-4.95v10.88h-11.08v-23.99c0-2.7,.48-5,1.45-6.91,1.22-2.44,3.08-4.42,5.58-5.96,2.5-1.54,5.1-2.31,7.8-2.31l1.18,.03v11.1c-.26-.02-.44-.03-.56-.03-1.4,0-2.48,.44-3.24,1.33-.76,.89-1.14,2.15-1.14,3.79v.96h4.95Z"/>
    <path class="cls-37" d="M806.85,550.55v10.96c-.91,.15-1.74,.23-2.49,.23-4.44,0-8.14-1.4-11.1-4.19s-4.44-6.3-4.44-10.51,1.5-7.57,4.49-10.42,6.63-4.28,10.91-4.28c4.78,0,8.54,1.34,11.3,4.01,2.75,2.67,4.13,6.32,4.13,10.95v13.85h-11.08v-13.08c0-1.49-.38-2.68-1.14-3.57-.76-.89-1.78-1.33-3.06-1.33-1.17,0-2.17,.41-3.02,1.22s-1.27,1.77-1.27,2.89c0,1.17,.38,2.13,1.15,2.89s1.75,1.13,2.93,1.13c.97,0,1.87-.25,2.69-.74Zm-1.81-31.04c1.56,0,2.9,.53,4.01,1.6,1.12,1.07,1.67,2.36,1.67,3.87s-.56,2.8-1.67,3.87c-1.12,1.07-2.45,1.6-4.01,1.6s-2.93-.53-4.04-1.6c-1.12-1.07-1.67-2.36-1.67-3.87s.56-2.8,1.67-3.87c1.12-1.07,2.46-1.6,4.04-1.6Zm-.03,3.71c-.51,0-.95,.17-1.3,.51s-.53,.75-.53,1.25,.18,.91,.53,1.25,.79,.51,1.3,.51,.92-.17,1.27-.51c.36-.34,.53-.75,.53-1.25s-.18-.91-.53-1.25c-.35-.34-.78-.51-1.27-.51Z"/>
    <path class="cls-37" d="M842.29,532.62v11.33c-.77-.42-1.47-.62-2.1-.62-2.01,0-3.02,1.47-3.02,4.42v13.4h-11.08v-15.43c0-4.08,1.17-7.33,3.49-9.76,2.33-2.43,5.44-3.64,9.33-3.64,.87,0,1.99,.1,3.38,.31Z"/>
    <path class="cls-37" d="M853.75,548.46c1.93,0,3.6,.67,4.99,2.01,1.39,1.34,2.09,2.94,2.09,4.79s-.69,3.42-2.07,4.71c-1.38,1.29-3.05,1.94-5,1.94s-3.71-.63-5.02-1.88c-1.31-1.25-1.97-2.86-1.97-4.8s.68-3.49,2.04-4.8c1.36-1.31,3.01-1.97,4.95-1.97Z"/>
    <path class="cls-37" d="M884.7,536.31v10.2h-3.35v14.64h-12.02v-38.66h12.02v13.82h3.35Zm14.07-13.82v38.66h-12.02v-38.66h12.02Z"/>
    <path class="cls-37" d="M928.2,532.91l-13.8,29.34-13.62-29.34h10.57l3.14,7.62,3.44-7.62h10.28Z"/>
    <path class="cls-37" d="M940.46,532.91v28.24h-11.08v-28.24h11.08Zm-5.51-12.6c1.5,0,2.8,.5,3.89,1.52,1.1,1.01,1.64,2.2,1.64,3.58,0,1.47-.52,2.68-1.55,3.62s-2.36,1.42-3.98,1.42-2.95-.47-3.98-1.42-1.55-2.15-1.55-3.62c0-1.38,.55-2.57,1.64-3.58,1.1-1.01,2.39-1.52,3.89-1.52Z"/>
    <path class="cls-37" d="M965.48,533.3v11.16c-1.56,0-2.63,.28-3.21,.83-.58,.56-.95,1.66-1.11,3.3-.51,5.46-2.72,9.31-6.63,11.55-2.07,1.17-5.01,1.76-8.82,1.76h-1.54v-11.21h.5c1.78,0,3.04-.35,3.81-1.06,.76-.71,1.2-1.95,1.32-3.72,.16-2.89,.44-4.92,.84-6.09s1.23-2.33,2.47-3.48c2.17-2.02,5.18-3.03,9.03-3.03h3.35Z"/>
    <path class="cls-37" d="M1002.44,522.49h11.08v23.53c0,4.32-1.18,7.84-3.55,10.56-1.36,1.57-3.09,2.81-5.2,3.74s-4.26,1.39-6.47,1.39c-4.4,0-8.11-1.42-11.13-4.25s-4.53-6.31-4.53-10.42,1.5-7.43,4.5-10.34c3-2.91,6.55-4.36,10.66-4.36,.65,0,1.64,.06,2.96,.17v11.67c-.91-.68-1.82-1.02-2.72-1.02-1.15,0-2.13,.4-2.95,1.2-.82,.8-1.23,1.77-1.23,2.9s.42,2.03,1.27,2.82c.85,.78,1.87,1.17,3.05,1.17,2.84,0,4.26-1.88,4.26-5.64v-23.14Z"/>
    <path class="cls-37" d="M1019.34,533.3h11.08v15.94c0,1.6,.7,2.41,2.1,2.41s2.07-.8,2.07-2.41v-15.94h11.08v15.75c0,3.66-1.27,6.75-3.82,9.27-2.55,2.52-5.67,3.78-9.36,3.78-4.21,0-7.59-1.46-10.16-4.39-1.99-2.28-2.99-5.46-2.99-9.52v-14.9Z"/>
    <path class="cls-37" d="M1085.8,533.3v11.16c-1.56,0-2.63,.28-3.21,.83-.58,.56-.95,1.66-1.11,3.3-.51,5.46-2.72,9.31-6.63,11.55-2.07,1.17-5.01,1.76-8.82,1.76h-1.54v-11.21h.5c1.78,0,3.04-.35,3.81-1.06,.76-.71,1.2-1.95,1.32-3.72,.16-2.89,.44-4.92,.84-6.09s1.23-2.33,2.47-3.48c2.17-2.02,5.18-3.03,9.03-3.03h3.35Z"/>
    <path class="cls-37" d="M1099.83,571.59h-11.08v-23.56c0-4.32,1.18-7.84,3.55-10.56,1.36-1.57,3.09-2.81,5.2-3.74s4.26-1.39,6.47-1.39c4.4,0,8.11,1.42,11.13,4.25s4.53,6.31,4.53,10.42-1.5,7.46-4.5,10.37-6.55,4.36-10.66,4.36c-.67,0-1.66-.07-2.96-.2v-11.67c.91,.7,1.82,1.05,2.72,1.05,1.15,0,2.13-.41,2.95-1.22,.82-.81,1.23-1.77,1.23-2.89s-.42-2.06-1.27-2.85c-.85-.78-1.87-1.18-3.05-1.18-2.84,0-4.26,1.88-4.26,5.64v23.17Z"/>
    <path class="cls-37" d="M1140.9,550.55v10.96c-.91,.15-1.74,.23-2.49,.23-4.44,0-8.14-1.4-11.1-4.19s-4.44-6.3-4.44-10.51,1.5-7.57,4.49-10.42,6.63-4.28,10.91-4.28c4.78,0,8.54,1.34,11.3,4.01,2.75,2.67,4.13,6.32,4.13,10.95v13.85h-11.08v-13.08c0-1.49-.38-2.68-1.14-3.57-.76-.89-1.78-1.33-3.06-1.33-1.17,0-2.17,.41-3.02,1.22s-1.27,1.77-1.27,2.89c0,1.17,.38,2.13,1.15,2.89s1.75,1.13,2.93,1.13c.97,0,1.87-.25,2.69-.74Z"/>
    <path class="cls-37" d="M1176.35,532.62v11.33c-.77-.42-1.47-.62-2.1-.62-2.01,0-3.02,1.47-3.02,4.42v13.4h-11.08v-15.43c0-4.08,1.17-7.33,3.49-9.76,2.33-2.43,5.44-3.64,9.33-3.64,.87,0,1.99,.1,3.38,.31Z"/>
    <path class="cls-37" d="M1190.68,522.49v38.66h-11.08v-38.66h11.08Zm16.97,10.42l-5.42,10.28,8.05,17.96h-12.26l-6.93-18.44,5.03-9.8h11.52Z"/>
    <path class="cls-37" d="M1241.32,548.74h-16.79c-.26-.81-.38-1.56-.38-2.24,0-.94,.18-1.87,.53-2.78h5.63c-.4-2.1-1.63-3.14-3.7-3.14-1.38,0-2.51,.56-3.38,1.69-.87,1.12-1.3,2.56-1.3,4.32s.42,3.31,1.26,4.45c.84,1.13,1.94,1.7,3.3,1.7,1.11,0,2.17-.53,3.2-1.59l6.31,7.25c-2.94,2.21-6.21,3.31-9.8,3.31-4.38,0-8.06-1.41-11.05-4.22-2.98-2.81-4.47-6.3-4.47-10.45s1.5-7.63,4.52-10.48c3.01-2.85,6.71-4.28,11.09-4.28s7.88,1.39,10.79,4.18c2.91,2.79,4.37,6.22,4.37,10.29,0,.42-.04,1.08-.12,1.98Z"/>
    <path class="cls-37" d="M1262.11,532.62v11.33c-.77-.42-1.47-.62-2.1-.62-2.01,0-3.02,1.47-3.02,4.42v13.4h-11.08v-15.43c0-4.08,1.17-7.33,3.49-9.76,2.33-2.43,5.44-3.64,9.33-3.64,.87,0,1.99,.1,3.38,.31Z"/>
    <path class="cls-37" d="M1309.55,548.74h-16.79c-.26-.81-.38-1.56-.38-2.24,0-.94,.18-1.87,.53-2.78h5.63c-.4-2.1-1.63-3.14-3.7-3.14-1.38,0-2.51,.56-3.38,1.69-.87,1.12-1.3,2.56-1.3,4.32s.42,3.31,1.26,4.45c.84,1.13,1.94,1.7,3.3,1.7,1.11,0,2.17-.53,3.2-1.59l6.31,7.25c-2.94,2.21-6.21,3.31-9.8,3.31-4.38,0-8.06-1.41-11.05-4.22-2.98-2.81-4.47-6.3-4.47-10.45s1.5-7.63,4.52-10.48c3.01-2.85,6.71-4.28,11.09-4.28s7.88,1.39,10.79,4.18c2.91,2.79,4.37,6.22,4.37,10.29,0,.42-.04,1.08-.12,1.98Z"/>
    <path class="cls-37" d="M1340.46,561.14h-11.08v-15.94c0-1.62-.7-2.44-2.1-2.44s-2.07,.81-2.07,2.44v15.94h-11.08v-15.75c0-3.68,1.27-6.78,3.82-9.3,2.55-2.52,5.67-3.78,9.36-3.78,4.22,0,7.61,1.46,10.16,4.39,1.99,2.28,2.99,5.47,2.99,9.54v14.9Z"/>
    <path class="cls-37" d="M1373.16,522.49v11.81c1.88-1.3,3.75-1.95,5.63-1.95,2.84,0,5.1,.98,6.77,2.95,1.67,1.96,2.5,4.62,2.5,7.96v17.9h-11.07v-14.92c0-1.21-.13-2.02-.4-2.44s-.78-.62-1.55-.62c-1.24,0-1.87,.88-1.87,2.63v15.35h-11.08v-38.66h11.08Z"/>
    <path class="cls-37" d="M1394.51,533.3h11.08v15.94c0,1.6,.7,2.41,2.1,2.41s2.07-.8,2.07-2.41v-15.94h11.08v15.75c0,3.66-1.27,6.75-3.82,9.27-2.55,2.52-5.67,3.78-9.36,3.78-4.21,0-7.59-1.46-10.16-4.39-1.99-2.28-2.99-5.46-2.99-9.52v-14.9Z"/>
    <path class="cls-37" d="M1453.61,561.14h-11.08v-15.94c0-1.62-.7-2.44-2.1-2.44s-2.07,.81-2.07,2.44v15.94h-11.08v-15.75c0-3.68,1.27-6.78,3.82-9.3,2.55-2.52,5.67-3.78,9.36-3.78,4.22,0,7.61,1.46,10.16,4.39,1.99,2.28,2.99,5.47,2.99,9.54v14.9Z"/>
    <path class="cls-37" d="M1478.25,522.49h11.08v23.53c0,4.32-1.18,7.84-3.55,10.56-1.36,1.57-3.09,2.81-5.2,3.74s-4.26,1.39-6.47,1.39c-4.4,0-8.11-1.42-11.13-4.25s-4.53-6.31-4.53-10.42,1.5-7.43,4.5-10.34c3-2.91,6.55-4.36,10.66-4.36,.65,0,1.64,.06,2.96,.17v11.67c-.91-.68-1.82-1.02-2.72-1.02-1.15,0-2.13,.4-2.95,1.2-.82,.8-1.23,1.77-1.23,2.9s.42,2.03,1.27,2.82c.85,.78,1.87,1.17,3.05,1.17,2.84,0,4.26-1.88,4.26-5.64v-23.14Z"/>
    <path class="cls-37" d="M1503.07,564.09v-2.07c-1.97-.11-3.58-.78-4.83-2.01s-1.87-2.75-1.87-4.56c0-1.91,.67-3.51,2-4.8,1.33-1.29,2.99-1.94,4.96-1.94s3.52,.65,4.83,1.95c1.3,1.3,1.95,2.92,1.95,4.84s-.64,3.78-1.91,5.32-2.99,2.63-5.14,3.26Z"/>
    <path class="cls-37" d="M444.74,630.74h-11.08v-15.24c0-1.17-.13-1.98-.38-2.44-.26-.45-.72-.68-1.39-.68-1.24,0-1.87,1.05-1.87,3.14v15.21h-11.08v-15.24c0-1.17-.13-1.98-.4-2.44s-.74-.68-1.41-.68c-1.22,0-1.84,1.05-1.84,3.14v15.21h-11.08v-17.39c0-3.17,1.12-5.87,3.35-8.09,2.23-2.22,4.94-3.33,8.11-3.33s6.22,1.32,8.82,3.96c2.9-2.64,5.8-3.96,8.71-3.96,3.69,0,6.65,1.28,8.88,3.85,1.76,2,2.64,4.92,2.64,8.75v16.2Z"/>
    <path class="cls-37" d="M462.3,602.51v28.24h-11.08v-28.24h11.08Zm-5.51-12.6c1.5,0,2.8,.5,3.89,1.52,1.1,1.01,1.64,2.2,1.64,3.58,0,1.47-.52,2.68-1.55,3.62s-2.36,1.42-3.98,1.42-2.95-.47-3.98-1.42-1.55-2.15-1.55-3.62c0-1.38,.55-2.57,1.64-3.58,1.1-1.01,2.39-1.52,3.89-1.52Z"/>
    <path class="cls-37" d="M487.33,602.9v11.16c-1.56,0-2.63,.28-3.21,.83-.58,.56-.95,1.66-1.11,3.3-.51,5.46-2.72,9.31-6.63,11.55-2.07,1.17-5.01,1.76-8.82,1.76h-1.54v-11.21h.5c1.78,0,3.04-.35,3.81-1.06,.76-.71,1.2-1.95,1.32-3.72,.16-2.89,.44-4.92,.84-6.09s1.23-2.33,2.47-3.48c2.17-2.02,5.18-3.03,9.03-3.03h3.35Z"/>
    <path class="cls-37" d="M500.8,592.09v10.82h4.97v11.19h-4.97c0,2.25,.37,3.79,1.11,4.64s2.1,1.27,4.07,1.27v11.13c-.57,.02-1,.03-1.27,.03-2.51,0-4.87-.56-7.09-1.67-2.22-1.11-4-2.62-5.34-4.53-1.7-2.44-2.55-5.66-2.55-9.69v-23.19h11.08Z"/>
    <path class="cls-37" d="M540.24,618.34h-16.79c-.26-.81-.38-1.56-.38-2.24,0-.94,.18-1.87,.53-2.78h5.63c-.4-2.1-1.63-3.14-3.7-3.14-1.38,0-2.51,.56-3.38,1.69-.87,1.12-1.3,2.56-1.3,4.32s.42,3.31,1.26,4.45c.84,1.13,1.94,1.7,3.3,1.7,1.11,0,2.17-.53,3.2-1.59l6.31,7.25c-2.94,2.21-6.21,3.31-9.8,3.31-4.38,0-8.06-1.41-11.05-4.22-2.98-2.81-4.47-6.3-4.47-10.45s1.5-7.63,4.52-10.48c3.01-2.85,6.71-4.28,11.09-4.28s7.88,1.39,10.79,4.18c2.91,2.79,4.37,6.22,4.37,10.29,0,.42-.04,1.08-.12,1.98Z"/>
    <path class="cls-37" d="M561.03,602.22v11.33c-.77-.42-1.47-.62-2.1-.62-2.01,0-3.02,1.47-3.02,4.42v13.4h-11.08v-15.43c0-4.08,1.17-7.33,3.49-9.76,2.33-2.43,5.44-3.64,9.33-3.64,.87,0,1.99,.1,3.38,.31Z"/>
    <path class="cls-37" d="M597.63,592.09h11.08v23.53c0,4.32-1.18,7.84-3.55,10.56-1.36,1.57-3.09,2.81-5.2,3.74s-4.26,1.39-6.47,1.39c-4.4,0-8.11-1.42-11.13-4.25s-4.53-6.31-4.53-10.42,1.5-7.43,4.5-10.34c3-2.91,6.55-4.36,10.66-4.36,.65,0,1.64,.06,2.96,.17v11.67c-.91-.68-1.82-1.02-2.72-1.02-1.15,0-2.13,.4-2.95,1.2-.82,.8-1.23,1.77-1.23,2.9s.42,2.03,1.27,2.82c.85,.78,1.87,1.17,3.05,1.17,2.84,0,4.26-1.88,4.26-5.64v-23.14Z"/>
    <path class="cls-37" d="M614.54,602.9h11.08v15.94c0,1.6,.7,2.41,2.1,2.41s2.07-.8,2.07-2.41v-15.94h11.08v15.75c0,3.66-1.27,6.75-3.82,9.27-2.55,2.52-5.67,3.78-9.36,3.78-4.21,0-7.59-1.46-10.16-4.39-1.99-2.28-2.99-5.46-2.99-9.52v-14.9Z"/>
    <path class="cls-37" d="M682.24,592.09v38.66h-11.46v-38.66h11.46Z"/>
    <path class="cls-37" d="M723.19,592.09v38.66h-11.08v-38.66h11.08Z"/>
    <path class="cls-37" d="M740.75,602.51v28.24h-11.08v-28.24h11.08Zm-5.51-12.6c1.5,0,2.8,.5,3.89,1.52,1.1,1.01,1.64,2.2,1.64,3.58,0,1.47-.52,2.68-1.55,3.62s-2.36,1.42-3.98,1.42-2.95-.47-3.98-1.42-1.55-2.15-1.55-3.62c0-1.38,.55-2.57,1.64-3.58,1.1-1.01,2.39-1.52,3.89-1.52Z"/>
    <path class="cls-37" d="M769.44,602.51l-13.8,29.34-13.62-29.34h10.57l3.14,7.62,3.44-7.62h10.28Z"/>
    <path class="cls-37" d="M778.83,618.06c1.93,0,3.6,.67,4.99,2.01,1.39,1.34,2.09,2.94,2.09,4.79s-.69,3.42-2.07,4.71c-1.38,1.29-3.05,1.94-5,1.94s-3.71-.63-5.02-1.88c-1.31-1.25-1.97-2.86-1.97-4.8s.68-3.49,2.04-4.8c1.36-1.31,3.01-1.97,4.95-1.97Z"/>
    <path class="cls-37" d="M824.94,605.91v10.2h-3.35v14.64h-12.02v-38.66h12.02v13.82h3.35Zm14.07-13.82v38.66h-12.02v-38.66h12.02Z"/>
    <path class="cls-37" d="M868.44,602.51l-13.8,29.34-13.62-29.34h10.57l3.14,7.62,3.44-7.62h10.28Z"/>
    <path class="cls-37" d="M880.7,602.51v28.24h-11.08v-28.24h11.08Zm-5.51-12.6c1.5,0,2.8,.5,3.89,1.52,1.1,1.01,1.64,2.2,1.64,3.58,0,1.47-.52,2.68-1.55,3.62s-2.36,1.42-3.98,1.42-2.95-.47-3.98-1.42-1.55-2.15-1.55-3.62c0-1.38,.55-2.57,1.64-3.58,1.1-1.01,2.39-1.52,3.89-1.52Z"/>
    <path class="cls-37" d="M905.72,602.9v11.16c-1.56,0-2.63,.28-3.21,.83-.58,.56-.95,1.66-1.11,3.3-.51,5.46-2.72,9.31-6.63,11.55-2.07,1.17-5.01,1.76-8.82,1.76h-1.54v-11.21h.5c1.78,0,3.04-.35,3.81-1.06,.76-.71,1.2-1.95,1.32-3.72,.16-2.89,.44-4.92,.84-6.09s1.23-2.33,2.47-3.48c2.17-2.02,5.18-3.03,9.03-3.03h3.35Z"/>
    <path class="cls-37" d="M942.68,592.09h11.08v23.53c0,4.32-1.18,7.84-3.55,10.56-1.36,1.57-3.09,2.81-5.2,3.74s-4.26,1.39-6.47,1.39c-4.4,0-8.11-1.42-11.13-4.25s-4.53-6.31-4.53-10.42,1.5-7.43,4.5-10.34c3-2.91,6.55-4.36,10.66-4.36,.65,0,1.64,.06,2.96,.17v11.67c-.91-.68-1.82-1.02-2.72-1.02-1.15,0-2.13,.4-2.95,1.2-.82,.8-1.23,1.77-1.23,2.9s.42,2.03,1.27,2.82c.85,.78,1.87,1.17,3.05,1.17,2.84,0,4.26-1.88,4.26-5.64v-23.14Z"/>
    <path class="cls-37" d="M959.59,602.9h11.08v15.94c0,1.6,.7,2.41,2.1,2.41s2.07-.8,2.07-2.41v-15.94h11.08v15.75c0,3.66-1.27,6.75-3.82,9.27-2.55,2.52-5.67,3.78-9.36,3.78-4.21,0-7.59-1.46-10.16-4.39-1.99-2.28-2.99-5.46-2.99-9.52v-14.9Z"/>
    <path class="cls-37" d="M1048.04,630.74h-11.08v-15.24c0-1.17-.13-1.98-.38-2.44-.26-.45-.72-.68-1.39-.68-1.24,0-1.87,1.05-1.87,3.14v15.21h-11.08v-15.24c0-1.17-.13-1.98-.4-2.44s-.74-.68-1.41-.68c-1.22,0-1.84,1.05-1.84,3.14v15.21h-11.08v-17.39c0-3.17,1.12-5.87,3.35-8.09,2.23-2.22,4.94-3.33,8.11-3.33s6.22,1.32,8.82,3.96c2.9-2.64,5.8-3.96,8.71-3.96,3.69,0,6.65,1.28,8.88,3.85,1.76,2,2.64,4.92,2.64,8.75v16.2Z"/>
    <path class="cls-37" d="M1065.6,602.51v28.24h-11.08v-28.24h11.08Zm-5.51-12.6c1.5,0,2.8,.5,3.89,1.52,1.1,1.01,1.64,2.2,1.64,3.58,0,1.47-.52,2.68-1.55,3.62s-2.36,1.42-3.98,1.42-2.95-.47-3.98-1.42-1.55-2.15-1.55-3.62c0-1.38,.55-2.57,1.64-3.58,1.1-1.01,2.39-1.52,3.89-1.52Z"/>
    <path class="cls-37" d="M1090.62,602.9v11.16c-1.56,0-2.63,.28-3.21,.83-.58,.56-.95,1.66-1.11,3.3-.51,5.46-2.72,9.31-6.63,11.55-2.07,1.17-5.01,1.76-8.82,1.76h-1.54v-11.21h.5c1.78,0,3.04-.35,3.81-1.06,.76-.71,1.2-1.95,1.32-3.72,.16-2.89,.44-4.92,.84-6.09s1.23-2.33,2.47-3.48c2.17-2.02,5.18-3.03,9.03-3.03h3.35Z"/>
    <path class="cls-37" d="M1104.1,592.09v10.82h4.97v11.19h-4.97c0,2.25,.37,3.79,1.11,4.64s2.1,1.27,4.07,1.27v11.13c-.57,.02-1,.03-1.27,.03-2.51,0-4.87-.56-7.09-1.67-2.22-1.11-4-2.62-5.34-4.53-1.7-2.44-2.55-5.66-2.55-9.69v-23.19h11.08Z"/>
    <path class="cls-37" d="M1143.54,618.34h-16.79c-.26-.81-.38-1.56-.38-2.24,0-.94,.18-1.87,.53-2.78h5.63c-.4-2.1-1.63-3.14-3.7-3.14-1.38,0-2.51,.56-3.38,1.69-.87,1.12-1.3,2.56-1.3,4.32s.42,3.31,1.26,4.45c.84,1.13,1.94,1.7,3.3,1.7,1.11,0,2.17-.53,3.2-1.59l6.31,7.25c-2.94,2.21-6.21,3.31-9.8,3.31-4.38,0-8.06-1.41-11.05-4.22-2.98-2.81-4.47-6.3-4.47-10.45s1.5-7.63,4.52-10.48c3.01-2.85,6.71-4.28,11.09-4.28s7.88,1.39,10.79,4.18c2.91,2.79,4.37,6.22,4.37,10.29,0,.42-.04,1.08-.12,1.98Z"/>
    <path class="cls-37" d="M1164.33,602.22v11.33c-.77-.42-1.47-.62-2.1-.62-2.01,0-3.02,1.47-3.02,4.42v13.4h-11.08v-15.43c0-4.08,1.17-7.33,3.49-9.76,2.33-2.43,5.44-3.64,9.33-3.64,.87,0,1.99,.1,3.38,.31Z"/>
    <path class="cls-37" d="M1186.03,592.09h21.41l-6.6,14.87c2.37,1.53,4.09,3.21,5.17,5.03,1.08,1.82,1.61,3.98,1.61,6.47,0,3.72-1.43,6.86-4.29,9.42-2.86,2.56-6.39,3.84-10.57,3.84-2.31,0-4.6-.42-6.87-1.25v-10.93c1.72,1.02,3.21,1.53,4.47,1.53,1.38,0,2.54-.47,3.48-1.42,.94-.94,1.41-2.11,1.41-3.51,0-1.6-.7-2.88-2.1-3.84-1.4-.95-3.28-1.43-5.63-1.43l2.99-7.62h-4.47v-11.16Z"/>
    <path class="cls-37" d="M1243.45,592.09v38.66h-11.08v-38.66h11.08Z"/>
    <path class="cls-37" d="M1261.01,602.51v28.24h-11.08v-28.24h11.08Zm-5.51-12.6c1.5,0,2.8,.5,3.89,1.52,1.1,1.01,1.64,2.2,1.64,3.58,0,1.47-.52,2.68-1.55,3.62s-2.36,1.42-3.98,1.42-2.95-.47-3.98-1.42-1.55-2.15-1.55-3.62c0-1.38,.55-2.57,1.64-3.58,1.1-1.01,2.39-1.52,3.89-1.52Z"/>
    <path class="cls-37" d="M1289.71,602.51l-13.8,29.34-13.62-29.34h10.57l3.14,7.62,3.44-7.62h10.28Z"/>
    <path class="cls-37" d="M1335.07,618.34h-16.79c-.26-.81-.38-1.56-.38-2.24,0-.94,.18-1.87,.53-2.78h5.63c-.4-2.1-1.63-3.14-3.7-3.14-1.38,0-2.51,.56-3.38,1.69-.87,1.12-1.3,2.56-1.3,4.32s.42,3.31,1.26,4.45c.84,1.13,1.94,1.7,3.3,1.7,1.11,0,2.17-.53,3.2-1.59l6.31,7.25c-2.94,2.21-6.21,3.31-9.8,3.31-4.38,0-8.06-1.41-11.05-4.22-2.98-2.81-4.47-6.3-4.47-10.45s1.5-7.63,4.52-10.48c3.01-2.85,6.71-4.28,11.09-4.28s7.88,1.39,10.79,4.18c2.91,2.79,4.37,6.22,4.37,10.29,0,.42-.04,1.08-.12,1.98Z"/>
    <path class="cls-37" d="M1350.74,592.09v38.66h-11.08v-38.66h11.08Z"/>
    <path class="cls-37" d="M1368.3,592.09v38.66h-11.08v-38.66h11.08Z"/>
    <path class="cls-37" d="M1403.8,618.34h-16.79c-.26-.81-.38-1.56-.38-2.24,0-.94,.18-1.87,.53-2.78h5.63c-.4-2.1-1.63-3.14-3.7-3.14-1.38,0-2.51,.56-3.38,1.69-.87,1.12-1.3,2.56-1.3,4.32s.42,3.31,1.26,4.45c.84,1.13,1.94,1.7,3.3,1.7,1.11,0,2.17-.53,3.2-1.59l6.31,7.25c-2.94,2.21-6.21,3.31-9.8,3.31-4.38,0-8.06-1.41-11.05-4.22-2.98-2.81-4.47-6.3-4.47-10.45s1.5-7.63,4.52-10.48c3.01-2.85,6.71-4.28,11.09-4.28s7.88,1.39,10.79,4.18c2.91,2.79,4.37,6.22,4.37,10.29,0,.42-.04,1.08-.12,1.98Z"/>
    <path class="cls-37" d="M1424.59,602.22v11.33c-.77-.42-1.47-.62-2.1-.62-2.01,0-3.02,1.47-3.02,4.42v13.4h-11.08v-15.43c0-4.08,1.17-7.33,3.49-9.76,2.33-2.43,5.44-3.64,9.33-3.64,.87,0,1.99,.1,3.38,.31Z"/>
    <path class="cls-37" d="M1459.03,608.77v11.1h-4.95v10.88h-11.08v-23.99c0-2.7,.48-5,1.45-6.91,1.22-2.44,3.08-4.42,5.58-5.96,2.5-1.54,5.1-2.31,7.8-2.31l1.18,.03v11.1c-.26-.02-.44-.03-.56-.03-1.4,0-2.48,.44-3.24,1.33-.76,.89-1.14,2.15-1.14,3.79v.96h4.95Z"/>
    <path class="cls-37" d="M1480.29,620.15v10.96c-.91,.15-1.74,.23-2.49,.23-4.44,0-8.14-1.4-11.1-4.19s-4.44-6.3-4.44-10.51,1.5-7.57,4.49-10.42,6.63-4.28,10.91-4.28c4.78,0,8.54,1.34,11.3,4.01,2.75,2.67,4.13,6.32,4.13,10.95v13.85h-11.08v-13.08c0-1.49-.38-2.68-1.14-3.57-.76-.89-1.78-1.33-3.06-1.33-1.17,0-2.17,.41-3.02,1.22s-1.27,1.77-1.27,2.89c0,1.17,.38,2.13,1.15,2.89s1.75,1.13,2.93,1.13c.97,0,1.87-.25,2.69-.74Zm-1.81-31.04c1.56,0,2.9,.53,4.01,1.6,1.12,1.07,1.67,2.36,1.67,3.87s-.56,2.8-1.67,3.87c-1.12,1.07-2.45,1.6-4.01,1.6s-2.93-.53-4.04-1.6c-1.12-1.07-1.67-2.36-1.67-3.87s.56-2.8,1.67-3.87c1.12-1.07,2.46-1.6,4.04-1.6Zm-.03,3.71c-.51,0-.95,.17-1.3,.51s-.53,.75-.53,1.25,.18,.91,.53,1.25,.79,.51,1.3,.51,.92-.17,1.27-.51c.36-.34,.53-.75,.53-1.25s-.18-.91-.53-1.25c-.35-.34-.78-.51-1.27-.51Z"/>
    <path class="cls-37" d="M1515.74,602.22v11.33c-.77-.42-1.47-.62-2.1-.62-2.01,0-3.02,1.47-3.02,4.42v13.4h-11.08v-15.43c0-4.08,1.17-7.33,3.49-9.76,2.33-2.43,5.44-3.64,9.33-3.64,.87,0,1.99,.1,3.38,.31Z"/>
    <path class="cls-37" d="M404.23,672.5h11.08v15.94c0,1.6,.7,2.41,2.1,2.41s2.07-.8,2.07-2.41v-15.94h11.08v15.75c0,3.66-1.27,6.75-3.82,9.27-2.55,2.52-5.67,3.78-9.36,3.78-4.21,0-7.59-1.46-10.16-4.39-1.99-2.28-2.99-5.46-2.99-9.52v-14.9Z"/>
    <path class="cls-37" d="M463.34,700.34h-11.08v-15.94c0-1.62-.7-2.44-2.1-2.44s-2.07,.81-2.07,2.44v15.94h-11.08v-15.75c0-3.68,1.27-6.78,3.82-9.3,2.55-2.52,5.67-3.78,9.36-3.78,4.22,0,7.61,1.46,10.16,4.39,1.99,2.28,2.99,5.47,2.99,9.54v14.9Z"/>
    <path class="cls-37" d="M487.98,661.69h11.08v23.53c0,4.32-1.18,7.84-3.55,10.56-1.36,1.57-3.09,2.81-5.2,3.74s-4.26,1.39-6.47,1.39c-4.4,0-8.11-1.42-11.13-4.25s-4.53-6.31-4.53-10.42,1.5-7.43,4.5-10.34c3-2.91,6.55-4.36,10.66-4.36,.65,0,1.64,.06,2.96,.17v11.67c-.91-.68-1.82-1.02-2.72-1.02-1.15,0-2.13,.4-2.95,1.2-.82,.8-1.23,1.77-1.23,2.9s.42,2.03,1.27,2.82c.85,.78,1.87,1.17,3.05,1.17,2.84,0,4.26-1.88,4.26-5.64v-23.14Z"/>
    <path class="cls-37" d="M533.91,687.94h-16.79c-.26-.81-.38-1.56-.38-2.24,0-.94,.18-1.87,.53-2.78h5.63c-.4-2.1-1.63-3.14-3.7-3.14-1.38,0-2.51,.56-3.38,1.69-.87,1.12-1.3,2.56-1.3,4.32s.42,3.31,1.26,4.45c.84,1.13,1.94,1.7,3.3,1.7,1.11,0,2.17-.53,3.2-1.59l6.31,7.25c-2.94,2.21-6.21,3.31-9.8,3.31-4.38,0-8.06-1.41-11.05-4.22-2.98-2.81-4.47-6.3-4.47-10.45s1.5-7.63,4.52-10.48c3.01-2.85,6.71-4.28,11.09-4.28s7.88,1.39,10.79,4.18c2.91,2.79,4.37,6.22,4.37,10.29,0,.42-.04,1.08-.12,1.98Z"/>
    <path class="cls-37" d="M554.69,671.83v11.33c-.77-.42-1.47-.62-2.1-.62-2.01,0-3.02,1.47-3.02,4.42v13.4h-11.08v-15.43c0-4.08,1.17-7.33,3.49-9.76,2.33-2.43,5.44-3.64,9.33-3.64,.87,0,1.99,.1,3.38,.31Z"/>
    <path class="cls-37" d="M592.86,661.69v38.66h-11.46v-38.66h11.46Z"/>
    <path class="cls-37" d="M607.17,685.25v-8.5c0-4.95,1.29-8.85,3.86-11.72s6.09-4.3,10.53-4.3,7.96,1.43,10.54,4.3c2.59,2.87,3.88,6.78,3.88,11.72v8.5c0,4.95-1.29,8.86-3.88,11.74-2.59,2.88-6.1,4.32-10.54,4.32s-7.95-1.44-10.53-4.32c-2.58-2.88-3.86-6.79-3.86-11.74Zm11.52-10.76v13.03c0,2.36,.96,3.54,2.87,3.54s2.9-1.18,2.9-3.54v-13.03c0-2.36-.97-3.54-2.9-3.54s-2.87,1.18-2.87,3.54Z"/>
    <path class="cls-37" d="M667.64,710.79h-11.08v-23.56c0-4.32,1.18-7.84,3.55-10.56,1.36-1.57,3.09-2.81,5.2-3.74s4.26-1.39,6.47-1.39c4.4,0,8.11,1.42,11.13,4.25s4.53,6.31,4.53,10.42-1.5,7.46-4.5,10.37-6.55,4.36-10.66,4.36c-.67,0-1.66-.07-2.96-.2v-11.67c.91,.7,1.82,1.05,2.72,1.05,1.15,0,2.13-.41,2.95-1.22,.82-.81,1.23-1.77,1.23-2.89s-.42-2.06-1.27-2.85c-.85-.78-1.87-1.18-3.05-1.18-2.84,0-4.26,1.88-4.26,5.64v23.17Z"/>
    <path class="cls-37" d="M706.31,671.51c4.19,0,7.77,1.44,10.76,4.32,2.99,2.88,4.49,6.33,4.49,10.35s-1.52,7.55-4.55,10.42c-3.03,2.87-6.69,4.3-10.97,4.3s-7.95-1.44-10.99-4.32c-3.04-2.88-4.56-6.35-4.56-10.41s1.52-7.61,4.56-10.44c3.04-2.82,6.79-4.23,11.25-4.23Zm-.3,10.45c-1.18,0-2.19,.41-3.02,1.23-.83,.82-1.24,1.83-1.24,3.02s.42,2.17,1.26,3c.84,.83,1.84,1.25,3.01,1.25s2.2-.42,3.04-1.25c.84-.83,1.26-1.83,1.26-3s-.41-2.19-1.24-3.02c-.83-.82-1.85-1.23-3.05-1.23Z"/>
    <path class="cls-37" d="M737.26,672.11v28.24h-11.08v-28.24h11.08Zm-5.51-12.6c1.5,0,2.8,.5,3.89,1.52,1.1,1.01,1.64,2.2,1.64,3.58,0,1.47-.52,2.68-1.55,3.62s-2.36,1.42-3.98,1.42-2.95-.47-3.98-1.42-1.55-2.15-1.55-3.62c0-1.38,.55-2.57,1.64-3.58,1.1-1.01,2.39-1.52,3.89-1.52Z"/>
    <path class="cls-37" d="M770.1,700.34h-11.08v-15.94c0-1.62-.7-2.44-2.1-2.44s-2.07,.81-2.07,2.44v15.94h-11.08v-15.75c0-3.68,1.27-6.78,3.82-9.3,2.55-2.52,5.67-3.78,9.36-3.78,4.22,0,7.61,1.46,10.16,4.39,1.99,2.28,2.99,5.47,2.99,9.54v14.9Z"/>
    <path class="cls-37" d="M786.41,661.69v10.82h4.97v11.19h-4.97c0,2.25,.37,3.79,1.11,4.64s2.1,1.27,4.07,1.27v11.13c-.57,.02-1,.03-1.27,.03-2.51,0-4.87-.56-7.09-1.67-2.22-1.11-4-2.62-5.34-4.53-1.7-2.44-2.55-5.66-2.55-9.69v-23.19h11.08Z"/>
    <path class="cls-37" d="M815.34,672.5v11.16c-1.56,0-2.63,.28-3.21,.83-.58,.56-.95,1.66-1.11,3.3-.51,5.46-2.72,9.31-6.63,11.55-2.07,1.17-5.01,1.76-8.82,1.76h-1.54v-11.21h.5c1.78,0,3.04-.35,3.81-1.06,.76-.71,1.2-1.95,1.32-3.72,.16-2.89,.44-4.92,.84-6.09s1.23-2.33,2.47-3.48c2.17-2.02,5.18-3.03,9.03-3.03h3.35Z"/>
    <path class="cls-37" d="M826.86,703.29v-2.07c-1.97-.11-3.58-.78-4.83-2.01s-1.87-2.75-1.87-4.56c0-1.91,.67-3.51,2-4.8,1.33-1.29,2.99-1.94,4.96-1.94s3.52,.65,4.83,1.95c1.3,1.3,1.95,2.92,1.95,4.84s-.64,3.78-1.91,5.32-2.99,2.63-5.14,3.26Z"/>
    <path class="cls-37" d="M867.79,661.69v11.81c1.88-1.3,3.75-1.95,5.63-1.95,2.84,0,5.1,.98,6.77,2.95,1.67,1.96,2.5,4.62,2.5,7.96v17.9h-11.07v-14.92c0-1.21-.13-2.02-.4-2.44s-.78-.62-1.55-.62c-1.24,0-1.87,.88-1.87,2.63v15.35h-11.08v-38.66h11.08Z"/>
    <path class="cls-37" d="M905.54,689.75v10.96c-.91,.15-1.74,.23-2.49,.23-4.44,0-8.14-1.4-11.1-4.19s-4.44-6.3-4.44-10.51,1.5-7.57,4.49-10.42,6.63-4.28,10.91-4.28c4.78,0,8.54,1.34,11.3,4.01,2.75,2.67,4.13,6.32,4.13,10.95v13.85h-11.08v-13.08c0-1.49-.38-2.68-1.14-3.57-.76-.89-1.78-1.33-3.06-1.33-1.17,0-2.17,.41-3.02,1.22s-1.27,1.77-1.27,2.89c0,1.17,.38,2.13,1.15,2.89s1.75,1.13,2.93,1.13c.97,0,1.87-.25,2.69-.74Z"/>
    <path class="cls-37" d="M940.99,671.83v11.33c-.77-.42-1.47-.62-2.1-.62-2.01,0-3.02,1.47-3.02,4.42v13.4h-11.08v-15.43c0-4.08,1.17-7.33,3.49-9.76,2.33-2.43,5.44-3.64,9.33-3.64,.87,0,1.99,.1,3.38,.31Z"/>
    <path class="cls-37" d="M977.59,661.69h11.08v23.53c0,4.32-1.18,7.84-3.55,10.56-1.36,1.57-3.09,2.81-5.2,3.74s-4.26,1.39-6.47,1.39c-4.4,0-8.11-1.42-11.13-4.25s-4.53-6.31-4.53-10.42,1.5-7.43,4.5-10.34c3-2.91,6.55-4.36,10.66-4.36,.65,0,1.64,.06,2.96,.17v11.67c-.91-.68-1.82-1.02-2.72-1.02-1.15,0-2.13,.4-2.95,1.2-.82,.8-1.23,1.77-1.23,2.9s.42,2.03,1.27,2.82c.85,.78,1.87,1.17,3.05,1.17,2.84,0,4.26-1.88,4.26-5.64v-23.14Z"/>
    <path class="cls-37" d="M994.5,672.5h11.08v15.94c0,1.6,.7,2.41,2.1,2.41s2.07-.8,2.07-2.41v-15.94h11.08v15.75c0,3.66-1.27,6.75-3.82,9.27-2.55,2.52-5.67,3.78-9.36,3.78-4.21,0-7.59-1.46-10.16-4.39-1.99-2.28-2.99-5.46-2.99-9.52v-14.9Z"/>
    <path class="cls-37" d="M1052.3,661.69v10.82h4.97v11.19h-4.97c0,2.25,.37,3.79,1.11,4.64s2.1,1.27,4.07,1.27v11.13c-.57,.02-1,.03-1.27,.03-2.51,0-4.87-.56-7.09-1.67-2.22-1.11-4-2.62-5.34-4.53-1.7-2.44-2.55-5.66-2.55-9.69v-23.19h11.08Z"/>
    <path class="cls-37" d="M1079.13,689.75v10.96c-.91,.15-1.74,.23-2.49,.23-4.44,0-8.14-1.4-11.1-4.19s-4.44-6.3-4.44-10.51,1.5-7.57,4.49-10.42,6.63-4.28,10.91-4.28c4.78,0,8.54,1.34,11.3,4.01,2.75,2.67,4.13,6.32,4.13,10.95v13.85h-11.08v-13.08c0-1.49-.38-2.68-1.14-3.57-.76-.89-1.78-1.33-3.06-1.33-1.17,0-2.17,.41-3.02,1.22s-1.27,1.77-1.27,2.89c0,1.17,.38,2.13,1.15,2.89s1.75,1.13,2.93,1.13c.97,0,1.87-.25,2.69-.74Z"/>
    <path class="cls-37" d="M1108.8,661.69v23.14c0,3.76,1.41,5.64,4.23,5.64,1.2,0,2.23-.39,3.06-1.17,.84-.78,1.26-1.73,1.26-2.85s-.4-2.12-1.18-2.9c-.79-.78-1.76-1.17-2.9-1.17-.81,0-1.74,.34-2.78,1.02v-11.67c1.3-.11,2.29-.17,2.96-.17,4.17,0,7.73,1.43,10.7,4.3s4.46,6.33,4.46,10.37-1.51,7.62-4.53,10.45-6.73,4.25-11.13,4.25c-2.21,0-4.37-.46-6.47-1.39s-3.83-2.17-5.2-3.74c-2.37-2.72-3.55-6.24-3.55-10.56v-23.53h11.08Z"/>
    <path class="cls-37" d="M1143.33,661.69v10.82h4.97v11.19h-4.97c0,2.25,.37,3.79,1.11,4.64s2.1,1.27,4.07,1.27v11.13c-.57,.02-1,.03-1.27,.03-2.51,0-4.87-.56-7.09-1.67-2.22-1.11-4-2.62-5.34-4.53-1.7-2.44-2.55-5.66-2.55-9.69v-23.19h11.08Z"/>
    <path class="cls-37" d="M1161.96,687.66c1.93,0,3.6,.67,4.99,2.01,1.39,1.34,2.09,2.94,2.09,4.79s-.69,3.42-2.07,4.71c-1.38,1.29-3.05,1.94-5,1.94s-3.71-.63-5.02-1.88c-1.31-1.25-1.97-2.86-1.97-4.8s.68-3.49,2.04-4.8c1.36-1.31,3.01-1.97,4.95-1.97Z"/>
  </g>
</svg>