<?xml version="1.0" encoding="UTF-8"?>
<svg id="Layer_5" data-name="Layer 5" xmlns="http://www.w3.org/2000/svg" viewBox="0 0 1300 850">
  <defs>
    <style>
      .cls-1 {
        fill: #fff;
      }

      .cls-2 {
        fill: #ee6c4d;
      }

      .cls-3 {
        fill: #3dbfc9;
      }

      .cls-4 {
        fill: #ff7300;
      }

      .cls-5 {
        fill: #ffd6a1;
      }

      .cls-6 {
        fill: #fbd1a2;
      }

      .cls-7 {
        fill: #05f;
      }

      .cls-8 {
        fill: #a05300;
      }

      .cls-9 {
        fill: #824401;
      }

      .cls-10 {
        fill: #257072;
      }

      .cls-11 {
        fill: #ffe3c5;
      }

      .cls-12 {
        fill: #31989e;
      }

      .cls-13 {
        fill: #d3d3d3;
      }

      .cls-14 {
        fill: #7a3f00;
      }

      .cls-15 {
        fill: #f28d61;
      }

      .cls-16 {
        fill: #ff55af;
      }

      .cls-17 {
        fill: #3d7eff;
      }

      .cls-18 {
        fill: #ff8929;
      }
    </style>
  </defs>
  <g>
    <rect class="cls-2" x="37" y="65.25" width="1177" height="766" rx="226.82" ry="226.82"/>
    <rect class="cls-15" x="53" y="43.25" width="1177" height="766" rx="226.82" ry="226.82"/>
    <rect class="cls-6" x="75" y="26.25" width="1177" height="766" rx="226.82" ry="226.82"/>
  </g>
  <g>
    <ellipse class="cls-1" cx="261.37" cy="428.98" rx="39.21" ry="39.48"/>
    <ellipse class="cls-5" cx="295.09" cy="353.39" rx="6.96" ry="9.11"/>
    <ellipse class="cls-5" cx="225.46" cy="354.73" rx="6.96" ry="9.11"/>
    <path class="cls-5" d="M262.94,405.09h0c-12.07,.13-23.96-9.73-26.8-23.99l-4.3-21.6c-4.44-22.3,7.32-44.93,27.12-44.93h0c19.71,0,33.3,22.45,30.86,44.62l-2.36,21.5c-1.56,14.22-12.48,24.27-24.51,24.4Z"/>
    <rect class="cls-8" x="197.97" y="330.1" width="125.34" height="7.42" rx="3.59" ry="3.59"/>
    <path class="cls-8" d="M239.63,304.25h55.74v29.62h-54.45c-8.53,0-15.46-6.93-15.46-15.46h0c0-7.82,6.35-14.17,14.17-14.17Z"/>
    <ellipse cx="247.87" cy="351.42" rx="5.44" ry="4.78"/>
    <ellipse cx="273.11" cy="351.57" rx="5.44" ry="4.78"/>
    <rect class="cls-4" x="284.46" y="336.17" width="10.99" height="18.9" rx="5.3" ry="5.3"/>
    <rect class="cls-4" x="224.36" y="334.82" width="10.99" height="18.9" rx="5.3" ry="5.3"/>
    <path class="cls-4" d="M254.31,342.06l-12.04,2.97c-.97,.24-1.98-.3-2.24-1.19h0c-.26-.9,.32-1.83,1.3-2.07l12.04-2.97c.97-.24,1.98,.3,2.24,1.19h0c.26,.9-.32,1.83-1.3,2.07Z"/>
    <path class="cls-4" d="M279.01,345.03l-12.04-2.97c-.97-.24-1.56-1.17-1.3-2.07h0c.26-.9,1.27-1.43,2.24-1.19l12.04,2.97c.97,.24,1.56,1.17,1.3,2.07h0c-.26,.9-1.27,1.43-2.24,1.19Z"/>
    <ellipse class="cls-13" cx="261.37" cy="422.9" rx="39.21" ry="33.41"/>
    <rect class="cls-4" x="235.35" y="363.17" width="52.04" height="51.97" rx="25.07" ry="25.07"/>
    <rect class="cls-16" x="252.94" y="354.4" width="14.66" height="18.22" rx="7.06" ry="7.06"/>
    <ellipse class="cls-1" cx="261.37" cy="377.68" rx="9.16" ry="5.06"/>
    <rect class="cls-11" x="333.19" y="340.97" width="22.72" height="74.24" rx="10.95" ry="10.95" transform="translate(392.73 -131.17) rotate(47.75)"/>
    <rect class="cls-11" x="162.64" y="340.97" width="22.72" height="74.24" rx="10.95" ry="10.95" transform="translate(-240.94 345.65) rotate(-60.82)"/>
    <ellipse class="cls-7" cx="262.11" cy="479.26" rx="50.94" ry="53.32"/>
    <rect class="cls-7" x="221.43" y="400.97" width="13.93" height="54" rx="6.71" ry="6.71"/>
    <rect class="cls-7" x="287.39" y="400.97" width="13.93" height="54" rx="6.71" ry="6.71"/>
    <rect class="cls-7" x="222.16" y="506.93" width="38.85" height="82.34" rx="12" ry="12"/>
    <rect class="cls-7" x="261.74" y="506.93" width="39.58" height="82.34" rx="12" ry="12"/>
    <rect class="cls-8" x="222.16" y="575.1" width="38.11" height="39.15" rx="12" ry="12"/>
    <rect class="cls-8" x="262.47" y="575.1" width="38.11" height="39.15" rx="12" ry="12"/>
    <rect class="cls-8" x="196.51" y="589.28" width="51.31" height="24.97" rx="12" ry="12"/>
    <rect class="cls-8" x="274.93" y="589.28" width="51.31" height="24.97" rx="12" ry="12"/>
    <ellipse class="cls-1" cx="261.37" cy="428.98" rx="39.21" ry="39.48"/>
    <ellipse class="cls-11" cx="295.09" cy="353.39" rx="6.96" ry="9.11"/>
    <ellipse class="cls-11" cx="225.46" cy="354.73" rx="6.96" ry="9.11"/>
    <path class="cls-11" d="M262.94,405.09h0c-12.07,.13-23.96-9.73-26.8-23.99l-4.3-21.6c-4.44-22.3,7.32-44.93,27.12-44.93h0c19.71,0,33.3,22.45,30.86,44.62l-2.36,21.5c-1.56,14.22-12.48,24.27-24.51,24.4Z"/>
    <rect class="cls-8" x="197.97" y="330.1" width="125.34" height="7.42" rx="3.59" ry="3.59"/>
    <path class="cls-8" d="M239.63,304.25h55.74v29.62h-54.45c-8.53,0-15.46-6.93-15.46-15.46h0c0-7.82,6.35-14.17,14.17-14.17Z"/>
    <ellipse cx="247.87" cy="351.42" rx="5.44" ry="4.78"/>
    <ellipse cx="273.11" cy="351.57" rx="5.44" ry="4.78"/>
    <rect class="cls-4" x="284.46" y="336.17" width="10.99" height="18.9" rx="5.3" ry="5.3"/>
    <rect class="cls-4" x="224.36" y="334.82" width="10.99" height="18.9" rx="5.3" ry="5.3"/>
    <path class="cls-4" d="M254.05,341.73l-12.4-.25c-1-.02-1.84-.8-1.86-1.73h0c-.02-.93,.78-1.68,1.79-1.66l12.4,.25c1,.02,1.84,.8,1.86,1.73h0c.02,.93-.78,1.68-1.79,1.66Z"/>
    <path class="cls-4" d="M279.46,342.03l-12.37-.87c-1-.07-1.73-.89-1.63-1.82h0c.1-.93,1.01-1.63,2.01-1.56l12.37,.87c1,.07,1.73,.89,1.63,1.82h0c-.1,.93-1.01,1.63-2.01,1.56Z"/>
    <ellipse class="cls-13" cx="261.37" cy="422.9" rx="39.21" ry="33.41"/>
    <rect class="cls-4" x="235.35" y="363.17" width="52.04" height="51.97" rx="25.07" ry="25.07"/>
    <rect class="cls-16" x="252.94" y="354.4" width="14.66" height="18.22" rx="7.06" ry="7.06"/>
    <ellipse class="cls-7" cx="262.11" cy="474.26" rx="50.94" ry="53.32"/>
    <path class="cls-13" d="M216.47,382.97h.88c4.68,0,8.47,3.8,8.47,8.47v18.15c0,4.68-3.8,8.47-8.47,8.47h-7.24c-4.68,0-8.47-3.8-8.47-8.47v-11.79c0-8.19,6.65-14.83,14.83-14.83Z" transform="translate(666.11 362.49) rotate(113.28)"/>
    <rect class="cls-7" x="221.43" y="400.97" width="13.93" height="54" rx="6.71" ry="6.71"/>
    <path class="cls-13" d="M305.93,388.97h.88c8.19,0,14.83,6.65,14.83,14.83v11.79c0,4.68-3.8,8.47-8.47,8.47h-7.24c-4.68,0-8.47-3.8-8.47-8.47v-18.15c0-4.68,3.8-8.47,8.47-8.47Z" transform="translate(193.18 904.05) rotate(-129.55)"/>
    <rect class="cls-7" x="287.39" y="400.97" width="13.93" height="54" rx="6.71" ry="6.71"/>
    <rect class="cls-7" x="222.16" y="506.93" width="38.85" height="82.34" rx="12" ry="12"/>
    <rect class="cls-7" x="261.74" y="506.93" width="39.58" height="82.34" rx="12" ry="12"/>
    <rect class="cls-8" x="222.16" y="575.1" width="38.11" height="39.15" rx="12" ry="12"/>
    <rect class="cls-8" x="262.47" y="575.1" width="38.11" height="39.15" rx="12" ry="12"/>
    <rect class="cls-8" x="196.51" y="589.28" width="51.31" height="24.97" rx="12" ry="12"/>
    <rect class="cls-8" x="274.93" y="589.28" width="51.31" height="24.97" rx="12" ry="12"/>
    <rect class="cls-17" x="285.11" y="519.09" width="13.83" height="58.23" rx="6.92" ry="6.92"/>
    <rect class="cls-14" x="291.97" y="304.27" width="6.8" height="59.21" rx="3.29" ry="3.29" transform="translate(-38.5 629.25) rotate(-90)"/>
    <rect class="cls-9" x="196.5" y="591.25" width="19.5" height="22" rx="8.69" ry="8.69" transform="translate(412.51 1204.5) rotate(180)"/>
    <rect class="cls-9" x="307.35" y="592.34" width="19.16" height="22.59" rx="8" ry="8" transform="translate(633.85 1207.27) rotate(180)"/>
    <rect class="cls-18" x="244.09" y="381.32" width="6.92" height="27.4" rx="3.46" ry="3.46" transform="translate(495.1 790.05) rotate(180)"/>
    <rect class="cls-18" x="262.31" y="385.41" width="6.92" height="27.4" rx="3.46" ry="3.46" transform="translate(531.54 798.23) rotate(180)"/>
    <rect class="cls-18" x="277.92" y="381.32" width="6.92" height="27.4" rx="3.46" ry="3.46" transform="translate(562.76 790.05) rotate(180)"/>
    <path class="cls-14" d="M281.38,333.98s0-20.78,0-20.78c0-.76,2.22-1.37,4.96-1.37,2.74,0,3.71,.62,3.71,1.37l6.25,20.09c.09,1.78-15.02,2.48-14.93,.69Z"/>
    <path class="cls-17" d="M313.46,473.21s3.47,6.42,3.47,6.42c.08,7.21-13.88,29.83-20.6,28.9-5.77,0-.87-12.52-.87-18.19l.87-14.91c-24-29.63,10.33-18.21,17.14-2.22Z"/>
    <rect class="cls-17" x="295.46" y="408.73" width="6.97" height="31.69" rx="3.48" ry="3.48"/>
    <path class="cls-1" d="M272,375.25c-12.82,20.66-23.51-.69-23.51-.69"/>
  </g>
  <g>
    <g>
      <path class="cls-10" d="M357.75,145.96v96.51h-32.23v-96.51h-24.69v-38.88h81.54v38.88h-24.61Z"/>
      <path class="cls-10" d="M426.51,107.07V242.46h-32.23V107.07h32.23Z"/>
      <path class="cls-10" d="M445.96,107.07h32.23v80.44c0,6.28,.81,10.46,2.42,12.55,1.61,2.08,4.8,3.12,9.57,3.12h1.67v39.28h-8.57c-11.75,0-20.91-4.28-27.47-12.84-6.56-8.56-9.84-20.45-9.84-35.66V107.07Z"/>
      <path class="cls-10" d="M500.5,107.07h32.23v80.44c0,6.28,.81,10.46,2.42,12.55,1.61,2.08,4.8,3.12,9.57,3.12h1.67v39.28h-8.57c-11.75,0-20.91-4.28-27.47-12.84-6.56-8.56-9.84-20.45-9.84-35.66V107.07Z"/>
      <path class="cls-10" d="M633.64,107.07l-30.65,60.21v75.18h-32.23v-75.18l-30.88-60.21h32.71l13.97,27.87,15-27.87h32.08Z"/>
      <path class="cls-10" d="M671.28,107.07V242.46h-32.23V107.07h32.23Zm61.85,0l-28.58,61.4,28.42,73.99h-36.2l-24.53-74.79,27.79-60.6h33.11Z"/>
      <path class="cls-10" d="M776.15,107.07V242.46h-32.23V107.07h32.23Zm61.85,0l-28.58,61.4,28.42,73.99h-36.2l-24.53-74.79,27.79-60.6h33.11Z"/>
      <path class="cls-10" d="M906.6,159.74v30.15h-21.04c-2.86,0-4.88,.53-6.07,1.59-1.19,1.06-1.79,2.84-1.79,5.36,0,2.84,.61,4.71,1.83,5.6s3.7,1.34,7.46,1.34h21.67v38.68h-25.33c-11.91,0-21.01-3.55-27.31-10.66-6.3-7.11-9.45-17.37-9.45-30.8v-53.07c0-12.96,2.98-23.01,8.93-30.15,5.95-7.14,14.33-10.71,25.13-10.71h28.03v38.88h-20.56c-5.56,0-8.34,2.25-8.34,6.74,0,2.65,.66,4.48,1.99,5.5,1.32,1.03,3.68,1.54,7.07,1.54h17.78Z"/>
      <path class="cls-10" d="M991.94,198.03c5.19,0,9.65,2.35,13.38,7.04,3.73,4.7,5.6,10.28,5.6,16.76s-1.85,11.99-5.56,16.51c-3.71,4.53-8.18,6.79-13.42,6.79s-9.94-2.2-13.46-6.6c-3.52-4.4-5.28-10-5.28-16.81s1.83-12.22,5.48-16.81c3.65-4.6,8.07-6.89,13.26-6.89Zm15.32-90.96l-.56,84.01h-28.18l-1.67-84.01h30.41Z"/>
    </g>
    <g>
      <polygon class="cls-12" points="372.7 134 372.7 230.51 340.46 230.51 340.46 134 315.77 134 315.77 95.12 397.31 95.12 397.31 134 372.7 134"/>
      <rect class="cls-12" x="409.22" y="95.12" width="32.23" height="135.39"/>
      <path class="cls-12" d="M460.9,95.12h32.23v80.44c0,6.28,.81,10.46,2.42,12.55,1.61,2.08,4.8,3.12,9.57,3.12h1.67v39.28h-8.57c-11.75,0-20.91-4.28-27.47-12.84-6.56-8.56-9.84-20.45-9.84-35.66V95.12Z"/>
      <path class="cls-12" d="M515.44,95.12h32.23v80.44c0,6.28,.81,10.46,2.42,12.55,1.61,2.08,4.8,3.12,9.57,3.12h1.67v39.28h-8.57c-11.75,0-20.91-4.28-27.47-12.84-6.56-8.56-9.84-20.45-9.84-35.66V95.12Z"/>
      <polygon class="cls-12" points="648.59 95.12 617.94 155.33 617.94 230.51 585.71 230.51 585.71 155.33 554.82 95.12 587.53 95.12 601.51 122.99 616.51 95.12 648.59 95.12"/>
      <path class="cls-12" d="M748.07,95.12l-28.58,61.4,28.42,73.99h-36.2l-24.53-74.79,27.79-60.6h33.11Zm-61.85,0V230.51h-32.23V95.12h32.23Z"/>
      <path class="cls-12" d="M852.94,95.12l-28.58,61.4,28.42,73.99h-36.2l-24.53-74.79,27.79-60.6h33.11Zm-61.85,0V230.51h-32.23V95.12h32.23Z"/>
      <path class="cls-12" d="M921.54,147.79v30.15h-21.04c-2.86,0-4.88,.53-6.07,1.59-1.19,1.06-1.79,2.84-1.79,5.36,0,2.84,.61,4.71,1.83,5.6s3.7,1.34,7.46,1.34h21.67v38.68h-25.33c-11.91,0-21.01-3.55-27.31-10.66-6.3-7.11-9.45-17.37-9.45-30.8v-53.07c0-12.96,2.98-23.01,8.93-30.15,5.95-7.14,14.33-10.71,25.13-10.71h28.03v38.88h-20.56c-5.56,0-8.34,2.25-8.34,6.74,0,2.65,.66,4.48,1.99,5.5,1.32,1.03,3.68,1.54,7.07,1.54h17.78Z"/>
      <path class="cls-12" d="M1022.21,95.12l-.56,84.01h-28.18l-1.67-84.01h30.41Zm-15.32,90.96c5.19,0,9.65,2.35,13.38,7.04,3.73,4.7,5.6,10.28,5.6,16.76s-1.85,11.99-5.56,16.51c-3.71,4.53-8.18,6.79-13.42,6.79s-9.94-2.2-13.46-6.6c-3.52-4.4-5.28-10-5.28-16.81s1.83-12.22,5.48-16.81c3.65-4.6,8.07-6.89,13.26-6.89Z"/>
    </g>
    <g>
      <path class="cls-3" d="M387.64,122.05v96.51h-32.23V122.05h-24.69v-38.88h81.54v38.88h-24.61Z"/>
      <path class="cls-3" d="M456.39,83.17V218.56h-32.23V83.17h32.23Z"/>
      <path class="cls-3" d="M475.84,83.17h32.23v80.44c0,6.28,.81,10.46,2.42,12.55,1.61,2.08,4.8,3.12,9.57,3.12h1.67v39.28h-8.57c-11.75,0-20.91-4.28-27.47-12.84-6.56-8.56-9.84-20.45-9.84-35.66V83.17Z"/>
      <path class="cls-3" d="M530.39,83.17h32.23v80.44c0,6.28,.81,10.46,2.42,12.55,1.61,2.08,4.8,3.12,9.57,3.12h1.67v39.28h-8.57c-11.75,0-20.91-4.28-27.47-12.84-6.56-8.56-9.84-20.45-9.84-35.66V83.17Z"/>
      <path class="cls-3" d="M663.53,83.17l-30.65,60.21v75.18h-32.23v-75.18l-30.88-60.21h32.71l13.97,27.87,15-27.87h32.08Z"/>
      <path class="cls-3" d="M701.16,83.17V218.56h-32.23V83.17h32.23Zm61.85,0l-28.58,61.4,28.42,73.99h-36.2l-24.53-74.79,27.79-60.6h33.11Z"/>
      <path class="cls-3" d="M806.04,83.17V218.56h-32.23V83.17h32.23Zm61.85,0l-28.58,61.4,28.42,73.99h-36.2l-24.53-74.79,27.79-60.6h33.11Z"/>
      <path class="cls-3" d="M936.48,135.84v30.15h-21.04c-2.86,0-4.88,.53-6.07,1.59-1.19,1.06-1.79,2.84-1.79,5.36,0,2.84,.61,4.71,1.83,5.6s3.7,1.34,7.46,1.34h21.67v38.68h-25.33c-11.91,0-21.01-3.55-27.31-10.66-6.3-7.11-9.45-17.37-9.45-30.8v-53.07c0-12.96,2.98-23.01,8.93-30.15,5.95-7.14,14.33-10.71,25.13-10.71h28.03v38.88h-20.56c-5.56,0-8.34,2.25-8.34,6.74,0,2.65,.66,4.48,1.99,5.5,1.32,1.03,3.68,1.54,7.07,1.54h17.78Z"/>
      <path class="cls-3" d="M1021.83,174.13c5.19,0,9.65,2.35,13.38,7.04,3.73,4.7,5.6,10.28,5.6,16.76s-1.85,11.99-5.56,16.51c-3.71,4.53-8.18,6.79-13.42,6.79s-9.94-2.2-13.46-6.6c-3.52-4.4-5.28-10-5.28-16.81s1.83-12.22,5.48-16.81c3.65-4.6,8.07-6.89,13.26-6.89Zm15.32-90.96l-.56,84.01h-28.18l-1.67-84.01h30.41Z"/>
    </g>
  </g>
</svg>