<?xml version="1.0" encoding="UTF-8"?>
<svg id="Layer_5" data-name="Layer 5" xmlns="http://www.w3.org/2000/svg" viewBox="0 0 111 172">
  <defs>
    <style>
      .cls-1 {
        stroke: #fbcfa0;
      }

      .cls-1, .cls-2, .cls-3, .cls-4, .cls-5, .cls-6, .cls-7, .cls-8, .cls-9, .cls-10, .cls-11, .cls-12, .cls-13, .cls-14, .cls-15, .cls-16, .cls-17, .cls-18, .cls-19, .cls-20, .cls-21, .cls-22, .cls-23, .cls-24, .cls-25, .cls-26, .cls-27, .cls-28, .cls-29, .cls-30, .cls-31, .cls-32, .cls-33, .cls-34, .cls-35, .cls-36, .cls-37, .cls-38, .cls-39, .cls-40, .cls-41, .cls-42, .cls-43, .cls-44, .cls-45, .cls-46, .cls-47, .cls-48, .cls-49, .cls-50, .cls-51, .cls-52, .cls-53, .cls-54, .cls-55, .cls-56, .cls-57, .cls-58, .cls-59, .cls-60, .cls-61, .cls-62, .cls-63, .cls-64, .cls-65, .cls-66, .cls-67, .cls-68, .cls-69, .cls-70, .cls-71, .cls-72, .cls-73, .cls-74, .cls-75, .cls-76, .cls-77, .cls-78, .cls-79, .cls-80, .cls-81, .cls-82, .cls-83, .cls-84, .cls-85, .cls-86, .cls-87, .cls-88, .cls-89, .cls-90, .cls-91, .cls-92, .cls-93, .cls-94, .cls-95, .cls-96, .cls-97, .cls-98, .cls-99, .cls-100, .cls-101, .cls-102 {
        fill: none;
        stroke-miterlimit: 10;
        stroke-width: 10px;
      }

      .cls-2 {
        stroke: #f5a27b;
      }

      .cls-3 {
        stroke: #f9bf93;
      }

      .cls-4 {
        stroke: #f7af86;
      }

      .cls-5 {
        stroke: #ef7555;
      }

      .cls-6 {
        stroke: #f7b086;
      }

      .cls-7 {
        stroke: #f1815f;
      }

      .cls-8 {
        stroke: #f5a47c;
      }

      .cls-9 {
        stroke: #f8bd91;
      }

      .cls-10 {
        stroke: #f7b58b;
      }

      .cls-11 {
        stroke: #ef7252;
      }

      .cls-12 {
        stroke: #ef7454;
      }

      .cls-13 {
        stroke: #f9c497;
      }

      .cls-14 {
        stroke: #ef7353;
      }

      .cls-15 {
        stroke: #f3946e;
      }

      .cls-16 {
        stroke: #f9c094;
      }

      .cls-17 {
        stroke: #f8b98e;
      }

      .cls-18 {
        stroke: #fac99b;
      }

      .cls-19 {
        stroke: #f6ad84;
      }

      .cls-20 {
        stroke: #f6aa81;
      }

      .cls-21 {
        stroke: #f9c295;
      }

      .cls-22 {
        stroke: #f07857;
      }

      .cls-23 {
        stroke: #f18360;
      }

      .cls-24 {
        stroke: #ee6f50;
      }

      .cls-25 {
        stroke: #f6a981;
      }

      .cls-26 {
        stroke: #f07958;
      }

      .cls-27 {
        stroke: #f39771;
      }

      .cls-28 {
        stroke: #f5a37c;
      }

      .cls-29 {
        stroke: #f3926d;
      }

      .cls-30 {
        stroke: #f18764;
      }

      .cls-31 {
        stroke: #fac89a;
      }

      .cls-32 {
        stroke: #f07a59;
      }

      .cls-33 {
        stroke: #f9c598;
      }

      .cls-34 {
        stroke: #f9be92;
      }

      .cls-35 {
        stroke: #f7ae85;
      }

      .cls-36 {
        stroke: #fbce9f;
      }

      .cls-37 {
        stroke: #f6a67e;
      }

      .cls-38 {
        stroke: #f5a17a;
      }

      .cls-39 {
        stroke: #f07d5b;
      }

      .cls-40 {
        stroke: #f28864;
      }

      .cls-41 {
        stroke: #f1805e;
      }

      .cls-42 {
        stroke: #f28f6a;
      }

      .cls-43 {
        stroke: #facc9e;
      }

      .cls-44 {
        stroke: #ef7655;
      }

      .cls-45 {
        stroke: #f9c396;
      }

      .cls-46 {
        stroke: #f7b48a;
      }

      .cls-47 {
        stroke: #f3906b;
      }

      .cls-48 {
        stroke: #f07c5a;
      }

      .cls-49 {
        stroke: #ee6d4e;
      }

      .cls-50 {
        stroke: #f8bc90;
      }

      .cls-51 {
        stroke: #fbd1a2;
      }

      .cls-52 {
        stroke: #fac79a;
      }

      .cls-53 {
        stroke: #f6a880;
      }

      .cls-54 {
        stroke: #f07b5a;
      }

      .cls-55 {
        stroke: #f18562;
      }

      .cls-56 {
        stroke: #ee6c4d;
      }

      .cls-57 {
        stroke: #f6a77f;
      }

      .cls-58 {
        stroke: #f18461;
      }

      .cls-59 {
        stroke: #f49b74;
      }

      .cls-60 {
        stroke: #ef7050;
      }

      .cls-61 {
        stroke: #f6ab82;
      }

      .cls-62 {
        stroke: #ef7756;
      }

      .cls-63 {
        stroke: #f3956f;
      }

      .cls-64 {
        stroke: #f3916c;
      }

      .cls-65 {
        stroke: #ef7151;
      }

      .cls-66 {
        stroke: #f28c68;
      }

      .cls-67 {
        stroke: #f1825f;
      }

      .cls-68 {
        stroke: #f8bb90;
      }

      .cls-69 {
        stroke: #f49c75;
      }

      .cls-70 {
        stroke: #f7b187;
      }

      .cls-71 {
        stroke: #f49d76;
      }

      .cls-72 {
        stroke: #ee6e4f;
      }

      .cls-73 {
        stroke: #facb9d;
      }

      .cls-74 {
        stroke: #f8b68b;
      }

      .cls-75 {
        stroke: #facd9f;
      }

      .cls-76 {
        stroke: #faca9c;
      }

      .cls-77 {
        stroke: #f28d69;
      }

      .cls-78 {
        stroke: #f28e69;
      }

      .cls-79 {
        stroke: #f7b288;
      }

      .cls-80 {
        stroke: #f8b78c;
      }

      .cls-81 {
        stroke: #f49973;
      }

      .cls-82 {
        stroke: #f5a079;
      }

      .cls-83 {
        stroke: #f59f78;
      }

      .cls-84 {
        stroke: #fac699;
      }

      .cls-85 {
        stroke: #f28965;
      }

      .cls-86 {
        stroke: #f39670;
      }

      .cls-87 {
        stroke: #f6ac83;
      }

      .cls-88 {
        stroke: #f8ba8f;
      }

      .cls-89 {
        stroke: #f28b67;
      }

      .cls-90 {
        stroke: #f9c195;
      }

      .cls-91 {
        stroke: #f3936e;
      }

      .cls-92 {
        stroke: #fbd0a1;
      }

      .cls-93 {
        stroke: #f5a57d;
      }

      .cls-94 {
        stroke: #f49e77;
      }

      .cls-95 {
        stroke: #f8b88d;
      }

      .cls-96 {
        stroke: #f49a73;
      }

      .cls-97 {
        stroke: #f7b389;
      }

      .cls-98 {
        stroke: #f07e5c;
      }

      .cls-99 {
        stroke: #f07f5d;
      }

      .cls-100 {
        stroke: #f28a66;
      }

      .cls-101 {
        stroke: #f18663;
      }

      .cls-102 {
        stroke: #f49872;
      }
    </style>
  </defs>
  <g id="Layer_3" data-name="Layer 3">
    <g>
      <path class="cls-56" d="M86.32,161.88H21.58c-7.17,0-11.66-7.94-8.07-14.29l32.37-57.3c.59-1.05,1.33-1.92,2.17-2.62-1.66-.96-3.11-2.39-4.17-4.27L15.02,32.29c-4.37-7.73,1.09-17.39,9.82-17.39h57.73c8.73,0,14.19,9.66,9.82,17.39l-28.86,51.1c-1,1.77-2.35,3.14-3.89,4.1,.92,.72,1.74,1.65,2.38,2.79l32.36,57.3c3.58,6.35-.9,14.29-8.07,14.29Z"/>
      <path class="cls-49" d="M86.36,161.83H21.63c-7.17,0-11.66-7.94-8.07-14.29l32.37-57.3c.59-1.05,1.33-1.92,2.17-2.62-1.66-.96-3.11-2.39-4.17-4.27L15.07,32.24c-4.37-7.73,1.09-17.39,9.82-17.39h57.73c8.73,0,14.19,9.66,9.82,17.39l-28.86,51.1c-1,1.77-2.35,3.14-3.89,4.1,.92,.72,1.74,1.65,2.38,2.79l32.36,57.3c3.58,6.35-.9,14.29-8.07,14.29Z"/>
      <path class="cls-72" d="M86.41,161.78H21.68c-7.17,0-11.66-7.94-8.07-14.29l32.37-57.3c.59-1.05,1.33-1.92,2.17-2.62-1.66-.96-3.11-2.39-4.17-4.27L15.11,32.19c-4.37-7.73,1.09-17.39,9.82-17.39h57.73c8.73,0,14.19,9.66,9.82,17.39l-28.86,51.1c-1,1.77-2.35,3.14-3.89,4.1,.92,.72,1.74,1.65,2.38,2.79l32.36,57.3c3.58,6.35-.9,14.29-8.07,14.29Z"/>
      <path class="cls-24" d="M86.46,161.73H21.72c-7.17,0-11.66-7.94-8.07-14.29l32.37-57.3c.59-1.05,1.33-1.92,2.17-2.62-1.66-.96-3.11-2.39-4.17-4.27L15.16,32.15c-4.37-7.73,1.09-17.39,9.82-17.39h57.73c8.73,0,14.19,9.66,9.82,17.39l-28.86,51.1c-1,1.77-2.35,3.14-3.89,4.1,.92,.72,1.74,1.65,2.38,2.79l32.36,57.3c3.58,6.35-.9,14.29-8.07,14.29Z"/>
      <path class="cls-60" d="M86.5,161.69H21.77c-7.17,0-11.66-7.94-8.07-14.29l32.37-57.3c.59-1.05,1.33-1.92,2.17-2.62-1.66-.96-3.11-2.39-4.17-4.27L15.21,32.1c-4.37-7.73,1.09-17.39,9.82-17.39h57.73c8.73,0,14.19,9.66,9.82,17.39l-28.86,51.1c-1,1.77-2.35,3.14-3.89,4.1,.92,.72,1.74,1.65,2.38,2.79l32.36,57.3c3.58,6.35-.9,14.29-8.07,14.29Z"/>
      <path class="cls-65" d="M86.55,161.64H21.82c-7.17,0-11.66-7.94-8.07-14.29l32.37-57.3c.59-1.05,1.33-1.92,2.17-2.62-1.66-.96-3.11-2.39-4.17-4.27L15.25,32.05c-4.37-7.73,1.09-17.39,9.82-17.39h57.73c8.73,0,14.19,9.66,9.82,17.39l-28.86,51.1c-1,1.77-2.35,3.14-3.89,4.1,.92,.72,1.74,1.65,2.38,2.79l32.36,57.3c3.58,6.35-.9,14.29-8.07,14.29Z"/>
      <path class="cls-11" d="M86.6,161.59H21.86c-7.17,0-11.66-7.94-8.07-14.29l32.37-57.3c.59-1.05,1.33-1.92,2.17-2.62-1.66-.96-3.11-2.39-4.17-4.27L15.3,32.01c-4.37-7.73,1.09-17.39,9.82-17.39h57.73c8.73,0,14.19,9.66,9.82,17.39l-28.86,51.1c-1,1.77-2.35,3.14-3.89,4.1,.92,.72,1.74,1.65,2.38,2.79l32.36,57.3c3.58,6.35-.9,14.29-8.07,14.29Z"/>
      <path class="cls-14" d="M86.64,161.55H21.91c-7.17,0-11.66-7.94-8.07-14.29l32.37-57.3c.59-1.05,1.33-1.92,2.17-2.62-1.66-.96-3.11-2.39-4.17-4.27L15.35,31.96c-4.37-7.73,1.09-17.39,9.82-17.39h57.73c8.73,0,14.19,9.66,9.82,17.39l-28.86,51.1c-1,1.77-2.35,3.14-3.89,4.1,.92,.72,1.74,1.65,2.38,2.79l32.36,57.3c3.58,6.35-.9,14.29-8.07,14.29Z"/>
      <path class="cls-12" d="M86.69,161.5H21.96c-7.17,0-11.66-7.94-8.07-14.29l32.37-57.3c.59-1.05,1.33-1.92,2.17-2.62-1.66-.96-3.11-2.39-4.17-4.27L15.39,31.91c-4.37-7.73,1.09-17.39,9.82-17.39h57.73c8.73,0,14.19,9.66,9.82,17.39l-28.86,51.1c-1,1.77-2.35,3.14-3.89,4.1,.92,.72,1.74,1.65,2.38,2.79l32.36,57.3c3.58,6.35-.9,14.29-8.07,14.29Z"/>
      <path class="cls-5" d="M86.74,161.45H22c-7.17,0-11.66-7.94-8.07-14.29l32.37-57.3c.59-1.05,1.33-1.92,2.17-2.62-1.66-.96-3.11-2.39-4.17-4.27L15.44,31.87c-4.37-7.73,1.09-17.39,9.82-17.39h57.73c8.73,0,14.19,9.66,9.82,17.39l-28.86,51.1c-1,1.77-2.35,3.14-3.89,4.1,.92,.72,1.74,1.65,2.38,2.79l32.36,57.3c3.58,6.35-.9,14.29-8.07,14.29Z"/>
      <path class="cls-44" d="M86.78,161.41H22.05c-7.17,0-11.66-7.94-8.07-14.29l32.37-57.3c.59-1.05,1.33-1.92,2.17-2.62-1.66-.96-3.11-2.39-4.17-4.27L15.49,31.82c-4.37-7.73,1.09-17.39,9.82-17.39h57.73c8.73,0,14.19,9.66,9.82,17.39l-28.86,51.1c-1,1.77-2.35,3.14-3.89,4.1,.92,.72,1.74,1.65,2.38,2.79l32.36,57.3c3.58,6.35-.9,14.29-8.07,14.29Z"/>
      <path class="cls-62" d="M86.83,161.36H22.1c-7.17,0-11.66-7.94-8.07-14.29l32.37-57.3c.59-1.05,1.33-1.92,2.17-2.62-1.66-.96-3.11-2.39-4.17-4.27L15.53,31.77c-4.37-7.73,1.09-17.39,9.82-17.39h57.73c8.73,0,14.19,9.66,9.82,17.39l-28.86,51.1c-1,1.77-2.35,3.14-3.89,4.1,.92,.72,1.74,1.65,2.38,2.79l32.36,57.3c3.58,6.35-.9,14.29-8.07,14.29Z"/>
      <path class="cls-22" d="M86.88,161.31H22.14c-7.17,0-11.66-7.94-8.07-14.29l32.37-57.3c.59-1.05,1.33-1.92,2.17-2.62-1.66-.96-3.11-2.39-4.17-4.27L15.58,31.73c-4.37-7.73,1.09-17.39,9.82-17.39h57.73c8.73,0,14.19,9.66,9.82,17.39l-28.86,51.1c-1,1.77-2.35,3.14-3.89,4.1,.92,.72,1.74,1.65,2.38,2.79l32.36,57.3c3.58,6.35-.9,14.29-8.07,14.29Z"/>
      <path class="cls-26" d="M86.92,161.27H22.19c-7.17,0-11.66-7.94-8.07-14.29l32.37-57.3c.59-1.05,1.33-1.92,2.17-2.62-1.66-.96-3.11-2.39-4.17-4.27L15.62,31.68c-4.37-7.73,1.09-17.39,9.82-17.39h57.73c8.73,0,14.19,9.66,9.82,17.39l-28.86,51.1c-1,1.77-2.35,3.14-3.89,4.1,.92,.72,1.74,1.65,2.38,2.79l32.36,57.3c3.58,6.35-.9,14.29-8.07,14.29Z"/>
      <path class="cls-32" d="M86.97,161.22H22.24c-7.17,0-11.66-7.94-8.07-14.29l32.37-57.3c.59-1.05,1.33-1.92,2.17-2.62-1.66-.96-3.11-2.39-4.17-4.27L15.67,31.63c-4.37-7.73,1.09-17.39,9.82-17.39h57.73c8.73,0,14.19,9.66,9.82,17.39l-28.86,51.1c-1,1.77-2.35,3.14-3.89,4.1,.92,.72,1.74,1.65,2.38,2.79l32.36,57.3c3.58,6.35-.9,14.29-8.07,14.29Z"/>
      <path class="cls-54" d="M87.02,161.17H22.28c-7.17,0-11.66-7.94-8.07-14.29l32.37-57.3c.59-1.05,1.33-1.92,2.17-2.62-1.66-.96-3.11-2.39-4.17-4.27L15.72,31.58c-4.37-7.73,1.09-17.39,9.82-17.39h57.73c8.73,0,14.19,9.66,9.82,17.39l-28.86,51.1c-1,1.77-2.35,3.14-3.89,4.1,.92,.72,1.74,1.65,2.38,2.79l32.36,57.3c3.58,6.35-.9,14.29-8.07,14.29Z"/>
      <path class="cls-48" d="M87.06,161.13H22.33c-7.17,0-11.66-7.94-8.07-14.29l32.37-57.3c.59-1.05,1.33-1.92,2.17-2.62-1.66-.96-3.11-2.39-4.17-4.27L15.76,31.54c-4.37-7.73,1.09-17.39,9.82-17.39h57.73c8.73,0,14.19,9.66,9.82,17.39l-28.86,51.1c-1,1.77-2.35,3.14-3.89,4.1,.92,.72,1.74,1.65,2.38,2.79l32.36,57.3c3.58,6.35-.9,14.29-8.07,14.29Z"/>
      <path class="cls-39" d="M87.11,161.08H22.38c-7.17,0-11.66-7.94-8.07-14.29l32.37-57.3c.59-1.05,1.33-1.92,2.17-2.62-1.66-.96-3.11-2.39-4.17-4.27L15.81,31.49c-4.37-7.73,1.09-17.39,9.82-17.39h57.73c8.73,0,14.19,9.66,9.82,17.39l-28.86,51.1c-1,1.77-2.35,3.14-3.89,4.1,.92,.72,1.74,1.65,2.38,2.79l32.36,57.3c3.58,6.35-.9,14.29-8.07,14.29Z"/>
      <path class="cls-98" d="M87.16,161.03H22.42c-7.17,0-11.66-7.94-8.07-14.29l32.37-57.3c.59-1.05,1.33-1.92,2.17-2.62-1.66-.96-3.11-2.39-4.17-4.27L15.86,31.44c-4.37-7.73,1.09-17.39,9.82-17.39h57.73c8.73,0,14.19,9.66,9.82,17.39l-28.86,51.1c-1,1.77-2.35,3.14-3.89,4.1,.92,.72,1.74,1.65,2.38,2.79l32.36,57.3c3.58,6.35-.9,14.29-8.07,14.29Z"/>
      <path class="cls-99" d="M87.2,160.99H22.47c-7.17,0-11.66-7.94-8.07-14.29l32.37-57.3c.59-1.05,1.33-1.92,2.17-2.62-1.66-.96-3.11-2.39-4.17-4.27L15.9,31.4c-4.37-7.73,1.09-17.39,9.82-17.39h57.73c8.73,0,14.19,9.66,9.82,17.39l-28.86,51.1c-1,1.77-2.35,3.14-3.89,4.1,.92,.72,1.74,1.65,2.38,2.79l32.36,57.3c3.58,6.35-.9,14.29-8.07,14.29Z"/>
      <path class="cls-41" d="M87.25,160.94H22.52c-7.17,0-11.66-7.94-8.07-14.29l32.37-57.3c.59-1.05,1.33-1.92,2.17-2.62-1.66-.96-3.11-2.39-4.17-4.27L15.95,31.35c-4.37-7.73,1.09-17.39,9.82-17.39h57.73c8.73,0,14.19,9.66,9.82,17.39l-28.86,51.1c-1,1.77-2.35,3.14-3.89,4.1,.92,.72,1.74,1.65,2.38,2.79l32.36,57.3c3.58,6.35-.9,14.29-8.07,14.29Z"/>
      <path class="cls-7" d="M87.3,160.89H22.56c-7.17,0-11.66-7.94-8.07-14.29l32.37-57.3c.59-1.05,1.33-1.92,2.17-2.62-1.66-.96-3.11-2.39-4.17-4.27L16,31.3c-4.37-7.73,1.09-17.39,9.82-17.39h57.73c8.73,0,14.19,9.66,9.82,17.39l-28.86,51.1c-1,1.77-2.35,3.14-3.89,4.1,.92,.72,1.74,1.65,2.38,2.79l32.36,57.3c3.58,6.35-.9,14.29-8.07,14.29Z"/>
      <path class="cls-67" d="M87.34,160.85H22.61c-7.17,0-11.66-7.94-8.07-14.29l32.37-57.3c.59-1.05,1.33-1.92,2.17-2.62-1.66-.96-3.11-2.39-4.17-4.27L16.04,31.26c-4.37-7.73,1.09-17.39,9.82-17.39h57.73c8.73,0,14.19,9.66,9.82,17.39l-28.86,51.1c-1,1.77-2.35,3.14-3.89,4.1,.92,.72,1.74,1.65,2.38,2.79l32.36,57.3c3.58,6.35-.9,14.29-8.07,14.29Z"/>
      <path class="cls-23" d="M87.39,160.8H22.66c-7.17,0-11.66-7.94-8.07-14.29l32.37-57.3c.59-1.05,1.33-1.92,2.17-2.62-1.66-.96-3.11-2.39-4.17-4.27L16.09,31.21c-4.37-7.73,1.09-17.39,9.82-17.39h57.73c8.73,0,14.19,9.66,9.82,17.39l-28.86,51.1c-1,1.77-2.35,3.14-3.89,4.1,.92,.72,1.74,1.65,2.38,2.79l32.36,57.3c3.58,6.35-.9,14.29-8.07,14.29Z"/>
      <path class="cls-58" d="M87.44,160.75H22.7c-7.17,0-11.66-7.94-8.07-14.29l32.37-57.3c.59-1.05,1.33-1.92,2.17-2.62-1.66-.96-3.11-2.39-4.17-4.27L16.14,31.16c-4.37-7.73,1.09-17.39,9.82-17.39h57.73c8.73,0,14.19,9.66,9.82,17.39l-28.86,51.1c-1,1.77-2.35,3.14-3.89,4.1,.92,.72,1.74,1.65,2.38,2.79l32.36,57.3c3.58,6.35-.9,14.29-8.07,14.29Z"/>
      <path class="cls-55" d="M87.48,160.71H22.75c-7.17,0-11.66-7.94-8.07-14.29l32.37-57.3c.59-1.05,1.33-1.92,2.17-2.62-1.66-.96-3.11-2.39-4.17-4.27L16.18,31.12c-4.37-7.73,1.09-17.39,9.82-17.39h57.73c8.73,0,14.19,9.66,9.82,17.39l-28.86,51.1c-1,1.77-2.35,3.14-3.89,4.1,.92,.72,1.74,1.65,2.38,2.79l32.36,57.3c3.58,6.35-.9,14.29-8.07,14.29Z"/>
      <path class="cls-101" d="M87.53,160.66H22.79c-7.17,0-11.66-7.94-8.07-14.29l32.37-57.3c.59-1.05,1.33-1.92,2.17-2.62-1.66-.96-3.11-2.39-4.17-4.27L16.23,31.07c-4.37-7.73,1.09-17.39,9.82-17.39h57.73c8.73,0,14.19,9.66,9.82,17.39l-28.86,51.1c-1,1.77-2.35,3.14-3.89,4.1,.92,.72,1.74,1.65,2.38,2.79l32.36,57.3c3.58,6.35-.9,14.29-8.07,14.29Z"/>
      <path class="cls-30" d="M87.58,160.61H22.84c-7.17,0-11.66-7.94-8.07-14.29l32.37-57.3c.59-1.05,1.33-1.92,2.17-2.62-1.66-.96-3.11-2.39-4.17-4.27L16.28,31.02c-4.37-7.73,1.09-17.39,9.82-17.39h57.73c8.73,0,14.19,9.66,9.82,17.39l-28.86,51.1c-1,1.77-2.35,3.14-3.89,4.1,.92,.72,1.74,1.65,2.38,2.79l32.36,57.3c3.58,6.35-.9,14.29-8.07,14.29Z"/>
      <path class="cls-40" d="M87.62,160.56H22.89c-7.17,0-11.66-7.94-8.07-14.29l32.37-57.3c.59-1.05,1.33-1.92,2.17-2.62-1.66-.96-3.11-2.39-4.17-4.27L16.32,30.98c-4.37-7.73,1.09-17.39,9.82-17.39h57.73c8.73,0,14.19,9.66,9.82,17.39l-28.86,51.1c-1,1.77-2.35,3.14-3.89,4.1,.92,.72,1.74,1.65,2.38,2.79l32.36,57.3c3.58,6.35-.9,14.29-8.07,14.29Z"/>
      <path class="cls-85" d="M87.67,160.52H22.93c-7.17,0-11.66-7.94-8.07-14.29l32.37-57.3c.59-1.05,1.33-1.92,2.17-2.62-1.66-.96-3.11-2.39-4.17-4.27L16.37,30.93c-4.37-7.73,1.09-17.39,9.82-17.39h57.73c8.73,0,14.19,9.66,9.82,17.39l-28.86,51.1c-1,1.77-2.35,3.14-3.89,4.1,.92,.72,1.74,1.65,2.38,2.79l32.36,57.3c3.58,6.35-.9,14.29-8.07,14.29Z"/>
      <path class="cls-100" d="M87.72,160.47H22.98c-7.17,0-11.66-7.94-8.07-14.29l32.37-57.3c.59-1.05,1.33-1.92,2.17-2.62-1.66-.96-3.11-2.39-4.17-4.27L16.42,30.88c-4.37-7.73,1.09-17.39,9.82-17.39h57.73c8.73,0,14.19,9.66,9.82,17.39l-28.86,51.1c-1,1.77-2.35,3.14-3.89,4.1,.92,.72,1.74,1.65,2.38,2.79l32.36,57.3c3.58,6.35-.9,14.29-8.07,14.29Z"/>
      <path class="cls-89" d="M87.76,160.42H23.03c-7.17,0-11.66-7.94-8.07-14.29l32.37-57.3c.59-1.05,1.33-1.92,2.17-2.62-1.66-.96-3.11-2.39-4.17-4.27L16.46,30.84c-4.37-7.73,1.09-17.39,9.82-17.39h57.73c8.73,0,14.19,9.66,9.82,17.39l-28.86,51.1c-1,1.77-2.35,3.14-3.89,4.1,.92,.72,1.74,1.65,2.38,2.79l32.36,57.3c3.58,6.35-.9,14.29-8.07,14.29Z"/>
      <path class="cls-66" d="M87.81,160.38H23.07c-7.17,0-11.66-7.94-8.07-14.29l32.37-57.3c.59-1.05,1.33-1.92,2.17-2.62-1.66-.96-3.11-2.39-4.17-4.27L16.51,30.79c-4.37-7.73,1.09-17.39,9.82-17.39h57.73c8.73,0,14.19,9.66,9.82,17.39l-28.86,51.1c-1,1.77-2.35,3.14-3.89,4.1,.92,.72,1.74,1.65,2.38,2.79l32.36,57.3c3.58,6.35-.9,14.29-8.07,14.29Z"/>
      <path class="cls-77" d="M87.86,160.33H23.12c-7.17,0-11.66-7.94-8.07-14.29l32.37-57.3c.59-1.05,1.33-1.92,2.17-2.62-1.66-.96-3.11-2.39-4.17-4.27L16.56,30.74c-4.37-7.73,1.09-17.39,9.82-17.39h57.73c8.73,0,14.19,9.66,9.82,17.39l-28.86,51.1c-1,1.77-2.35,3.14-3.89,4.1,.92,.72,1.74,1.65,2.38,2.79l32.36,57.3c3.58,6.35-.9,14.29-8.07,14.29Z"/>
      <path class="cls-78" d="M87.9,160.28H23.17c-7.17,0-11.66-7.94-8.07-14.29l32.37-57.3c.59-1.05,1.33-1.92,2.17-2.62-1.66-.96-3.11-2.39-4.17-4.27L16.6,30.7c-4.37-7.73,1.09-17.39,9.82-17.39h57.73c8.73,0,14.19,9.66,9.82,17.39l-28.86,51.1c-1,1.77-2.35,3.14-3.89,4.1,.92,.72,1.74,1.65,2.38,2.79l32.36,57.3c3.58,6.35-.9,14.29-8.07,14.29Z"/>
      <path class="cls-42" d="M87.95,160.24H23.21c-7.17,0-11.66-7.94-8.07-14.29l32.37-57.3c.59-1.05,1.33-1.92,2.17-2.62-1.66-.96-3.11-2.39-4.17-4.27L16.65,30.65c-4.37-7.73,1.09-17.39,9.82-17.39h57.73c8.73,0,14.19,9.66,9.82,17.39l-28.86,51.1c-1,1.77-2.35,3.14-3.89,4.1,.92,.72,1.74,1.65,2.38,2.79l32.36,57.3c3.58,6.35-.9,14.29-8.07,14.29Z"/>
      <path class="cls-47" d="M88,160.19H23.26c-7.17,0-11.66-7.94-8.07-14.29l32.37-57.3c.59-1.05,1.33-1.92,2.17-2.62-1.66-.96-3.11-2.39-4.17-4.27L16.7,30.6c-4.37-7.73,1.09-17.39,9.82-17.39h57.73c8.73,0,14.19,9.66,9.82,17.39l-28.86,51.1c-1,1.77-2.35,3.14-3.89,4.1,.92,.72,1.74,1.65,2.38,2.79l32.36,57.3c3.58,6.35-.9,14.29-8.07,14.29Z"/>
      <path class="cls-64" d="M88.04,160.14H23.31c-7.17,0-11.66-7.94-8.07-14.29l32.37-57.3c.59-1.05,1.33-1.92,2.17-2.62-1.66-.96-3.11-2.39-4.17-4.27L16.74,30.56c-4.37-7.73,1.09-17.39,9.82-17.39h57.73c8.73,0,14.19,9.66,9.82,17.39l-28.86,51.1c-1,1.77-2.35,3.14-3.89,4.1,.92,.72,1.74,1.65,2.38,2.79l32.36,57.3c3.58,6.35-.9,14.29-8.07,14.29Z"/>
      <path class="cls-29" d="M88.09,160.1H23.35c-7.17,0-11.66-7.94-8.07-14.29l32.37-57.3c.59-1.05,1.33-1.92,2.17-2.62-1.66-.96-3.11-2.39-4.17-4.27L16.79,30.51c-4.37-7.73,1.09-17.39,9.82-17.39h57.73c8.73,0,14.19,9.66,9.82,17.39l-28.86,51.1c-1,1.77-2.35,3.14-3.89,4.1,.92,.72,1.74,1.65,2.38,2.79l32.36,57.3c3.58,6.35-.9,14.29-8.07,14.29Z"/>
      <path class="cls-91" d="M88.14,160.05H23.4c-7.17,0-11.66-7.94-8.07-14.29l32.37-57.3c.59-1.05,1.33-1.92,2.17-2.62-1.66-.96-3.11-2.39-4.17-4.27L16.84,30.46c-4.37-7.73,1.09-17.39,9.82-17.39h57.73c8.73,0,14.19,9.66,9.82,17.39l-28.86,51.1c-1,1.77-2.35,3.14-3.89,4.1,.92,.72,1.74,1.65,2.38,2.79l32.36,57.3c3.58,6.35-.9,14.29-8.07,14.29Z"/>
      <path class="cls-15" d="M88.18,160H23.45c-7.17,0-11.66-7.94-8.07-14.29l32.37-57.3c.59-1.05,1.33-1.92,2.17-2.62-1.66-.96-3.11-2.39-4.17-4.27L16.88,30.42c-4.37-7.73,1.09-17.39,9.82-17.39h57.73c8.73,0,14.19,9.66,9.82,17.39l-28.86,51.1c-1,1.77-2.35,3.14-3.89,4.1,.92,.72,1.74,1.65,2.38,2.79l32.36,57.3c3.58,6.35-.9,14.29-8.07,14.29Z"/>
      <path class="cls-63" d="M88.23,159.96H23.49c-7.17,0-11.66-7.94-8.07-14.29l32.37-57.3c.59-1.05,1.33-1.92,2.17-2.62-1.66-.96-3.11-2.39-4.17-4.27L16.93,30.37c-4.37-7.73,1.09-17.39,9.82-17.39h57.73c8.73,0,14.19,9.66,9.82,17.39l-28.86,51.1c-1,1.77-2.35,3.14-3.89,4.1,.92,.72,1.74,1.65,2.38,2.79l32.36,57.3c3.58,6.35-.9,14.29-8.07,14.29Z"/>
      <path class="cls-86" d="M88.28,159.91H23.54c-7.17,0-11.66-7.94-8.07-14.29l32.37-57.3c.59-1.05,1.33-1.92,2.17-2.62-1.66-.96-3.11-2.39-4.17-4.27L16.98,30.32c-4.37-7.73,1.09-17.39,9.82-17.39h57.73c8.73,0,14.19,9.66,9.82,17.39l-28.86,51.1c-1,1.77-2.35,3.14-3.89,4.1,.92,.72,1.74,1.65,2.38,2.79l32.36,57.3c3.58,6.35-.9,14.29-8.07,14.29Z"/>
      <path class="cls-27" d="M88.32,159.86H23.59c-7.17,0-11.66-7.94-8.07-14.29l32.37-57.3c.59-1.05,1.33-1.92,2.17-2.62-1.66-.96-3.11-2.39-4.17-4.27L17.02,30.27c-4.37-7.73,1.09-17.39,9.82-17.39h57.73c8.73,0,14.19,9.66,9.82,17.39l-28.86,51.1c-1,1.77-2.35,3.14-3.89,4.1,.92,.72,1.74,1.65,2.38,2.79l32.36,57.3c3.58,6.35-.9,14.29-8.07,14.29Z"/>
      <path class="cls-102" d="M88.37,159.82H23.63c-7.17,0-11.66-7.94-8.07-14.29l32.37-57.3c.59-1.05,1.33-1.92,2.17-2.62-1.66-.96-3.11-2.39-4.17-4.27L17.07,30.23c-4.37-7.73,1.09-17.39,9.82-17.39h57.73c8.73,0,14.19,9.66,9.82,17.39l-28.86,51.1c-1,1.77-2.35,3.14-3.89,4.1,.92,.72,1.74,1.65,2.38,2.79l32.36,57.3c3.58,6.35-.9,14.29-8.07,14.29Z"/>
      <path class="cls-81" d="M88.42,159.77H23.68c-7.17,0-11.66-7.94-8.07-14.29l32.37-57.3c.59-1.05,1.33-1.92,2.17-2.62-1.66-.96-3.11-2.39-4.17-4.27L17.12,30.18c-4.37-7.73,1.09-17.39,9.82-17.39h57.73c8.73,0,14.19,9.66,9.82,17.39l-28.86,51.1c-1,1.77-2.35,3.14-3.89,4.1,.92,.72,1.74,1.65,2.38,2.79l32.36,57.3c3.58,6.35-.9,14.29-8.07,14.29Z"/>
      <path class="cls-96" d="M88.46,159.72H23.73c-7.17,0-11.66-7.94-8.07-14.29l32.37-57.3c.59-1.05,1.33-1.92,2.17-2.62-1.66-.96-3.11-2.39-4.17-4.27L17.16,30.13c-4.37-7.73,1.09-17.39,9.82-17.39h57.73c8.73,0,14.19,9.66,9.82,17.39l-28.86,51.1c-1,1.77-2.35,3.14-3.89,4.1,.92,.72,1.74,1.65,2.38,2.79l32.36,57.3c3.58,6.35-.9,14.29-8.07,14.29Z"/>
      <path class="cls-59" d="M88.51,159.68H23.77c-7.17,0-11.66-7.94-8.07-14.29l32.37-57.3c.59-1.05,1.33-1.92,2.17-2.62-1.66-.96-3.11-2.39-4.17-4.27L17.21,30.09c-4.37-7.73,1.09-17.39,9.82-17.39h57.73c8.73,0,14.19,9.66,9.82,17.39l-28.86,51.1c-1,1.77-2.35,3.14-3.89,4.1,.92,.72,1.74,1.65,2.38,2.79l32.36,57.3c3.58,6.35-.9,14.29-8.07,14.29Z"/>
      <path class="cls-69" d="M88.56,159.63H23.82c-7.17,0-11.66-7.94-8.07-14.29l32.37-57.3c.59-1.05,1.33-1.92,2.17-2.62-1.66-.96-3.11-2.39-4.17-4.27L17.26,30.04c-4.37-7.73,1.09-17.39,9.82-17.39h57.73c8.73,0,14.19,9.66,9.82,17.39l-28.86,51.1c-1,1.77-2.35,3.14-3.89,4.1,.92,.72,1.74,1.65,2.38,2.79l32.36,57.3c3.58,6.35-.9,14.29-8.07,14.29Z"/>
      <path class="cls-71" d="M88.6,159.58H23.87c-7.17,0-11.66-7.94-8.07-14.29l32.37-57.3c.59-1.05,1.33-1.92,2.17-2.62-1.66-.96-3.11-2.39-4.17-4.27L17.3,29.99c-4.37-7.73,1.09-17.39,9.82-17.39h57.73c8.73,0,14.19,9.66,9.82,17.39l-28.86,51.1c-1,1.77-2.35,3.14-3.89,4.1,.92,.72,1.74,1.65,2.38,2.79l32.36,57.3c3.58,6.35-.9,14.29-8.07,14.29Z"/>
      <path class="cls-94" d="M88.65,159.54H23.91c-7.17,0-11.66-7.94-8.07-14.29l32.37-57.3c.59-1.05,1.33-1.92,2.17-2.62-1.66-.96-3.11-2.39-4.17-4.27L17.35,29.95c-4.37-7.73,1.09-17.39,9.82-17.39h57.73c8.73,0,14.19,9.66,9.82,17.39l-28.86,51.1c-1,1.77-2.35,3.14-3.89,4.1,.92,.72,1.74,1.65,2.38,2.79l32.36,57.3c3.58,6.35-.9,14.29-8.07,14.29Z"/>
      <path class="cls-94" d="M88.7,159.49H23.96c-7.17,0-11.66-7.94-8.07-14.29l32.37-57.3c.59-1.05,1.33-1.92,2.17-2.62-1.66-.96-3.11-2.39-4.17-4.27L17.4,29.9c-4.37-7.73,1.09-17.39,9.82-17.39h57.73c8.73,0,14.19,9.66,9.82,17.39l-28.86,51.1c-1,1.77-2.35,3.14-3.89,4.1,.92,.72,1.74,1.65,2.38,2.79l32.36,57.3c3.58,6.35-.9,14.29-8.07,14.29Z"/>
      <path class="cls-83" d="M88.74,159.44H24.01c-7.17,0-11.66-7.94-8.07-14.29l32.37-57.3c.59-1.05,1.33-1.92,2.17-2.62-1.66-.96-3.11-2.39-4.17-4.27L17.44,29.85c-4.37-7.73,1.09-17.39,9.82-17.39h57.73c8.73,0,14.19,9.66,9.82,17.39l-28.86,51.1c-1,1.77-2.35,3.14-3.89,4.1,.92,.72,1.74,1.65,2.38,2.79l32.36,57.3c3.58,6.35-.9,14.29-8.07,14.29Z"/>
      <path class="cls-82" d="M88.79,159.4H24.05c-7.17,0-11.66-7.94-8.07-14.29l32.37-57.3c.59-1.05,1.33-1.92,2.17-2.62-1.66-.96-3.11-2.39-4.17-4.27L17.49,29.81c-4.37-7.73,1.09-17.39,9.82-17.39h57.73c8.73,0,14.19,9.66,9.82,17.39l-28.86,51.1c-1,1.77-2.35,3.14-3.89,4.1,.92,.72,1.74,1.65,2.38,2.79l32.36,57.3c3.58,6.35-.9,14.29-8.07,14.29Z"/>
      <path class="cls-38" d="M88.84,159.35H24.1c-7.17,0-11.66-7.94-8.07-14.29l32.37-57.3c.59-1.05,1.33-1.92,2.17-2.62-1.66-.96-3.11-2.39-4.17-4.27L17.54,29.76c-4.37-7.73,1.09-17.39,9.82-17.39h57.73c8.73,0,14.19,9.66,9.82,17.39l-28.86,51.1c-1,1.77-2.35,3.14-3.89,4.1,.92,.72,1.74,1.65,2.38,2.79l32.36,57.3c3.58,6.35-.9,14.29-8.07,14.29Z"/>
      <path class="cls-2" d="M88.88,159.3H24.15c-7.17,0-11.66-7.94-8.07-14.29l32.37-57.3c.59-1.05,1.33-1.92,2.17-2.62-1.66-.96-3.11-2.39-4.17-4.27L17.58,29.71c-4.37-7.73,1.09-17.39,9.82-17.39h57.73c8.73,0,14.19,9.66,9.82,17.39l-28.86,51.1c-1,1.77-2.35,3.14-3.89,4.1,.92,.72,1.74,1.65,2.38,2.79l32.36,57.3c3.58,6.35-.9,14.29-8.07,14.29Z"/>
      <path class="cls-28" d="M88.93,159.25H24.19c-7.17,0-11.66-7.94-8.07-14.29l32.37-57.3c.59-1.05,1.33-1.92,2.17-2.62-1.66-.96-3.11-2.39-4.17-4.27L17.63,29.67c-4.37-7.73,1.09-17.39,9.82-17.39h57.73c8.73,0,14.19,9.66,9.82,17.39l-28.86,51.1c-1,1.77-2.35,3.14-3.89,4.1,.92,.72,1.74,1.65,2.38,2.79l32.36,57.3c3.58,6.35-.9,14.29-8.07,14.29Z"/>
      <path class="cls-8" d="M88.98,159.21H24.24c-7.17,0-11.66-7.94-8.07-14.29l32.37-57.3c.59-1.05,1.33-1.92,2.17-2.62-1.66-.96-3.11-2.39-4.17-4.27L17.68,29.62c-4.37-7.73,1.09-17.39,9.82-17.39h57.73c8.73,0,14.19,9.66,9.82,17.39l-28.86,51.1c-1,1.77-2.35,3.14-3.89,4.1,.92,.72,1.74,1.65,2.38,2.79l32.36,57.3c3.58,6.35-.9,14.29-8.07,14.29Z"/>
      <path class="cls-93" d="M89.02,159.16H24.29c-7.17,0-11.66-7.94-8.07-14.29l32.37-57.3c.59-1.05,1.33-1.92,2.17-2.62-1.66-.96-3.11-2.39-4.17-4.27L17.72,29.57c-4.37-7.73,1.09-17.39,9.82-17.39h57.73c8.73,0,14.19,9.66,9.82,17.39l-28.86,51.1c-1,1.77-2.35,3.14-3.89,4.1,.92,.72,1.74,1.65,2.38,2.79l32.36,57.3c3.58,6.35-.9,14.29-8.07,14.29Z"/>
      <path class="cls-37" d="M89.07,159.11H24.33c-7.17,0-11.66-7.94-8.07-14.29l32.37-57.3c.59-1.05,1.33-1.92,2.17-2.62-1.66-.96-3.11-2.39-4.17-4.27L17.77,29.53c-4.37-7.73,1.09-17.39,9.82-17.39h57.73c8.73,0,14.19,9.66,9.82,17.39l-28.86,51.1c-1,1.77-2.35,3.14-3.89,4.1,.92,.72,1.74,1.65,2.38,2.79l32.36,57.3c3.58,6.35-.9,14.29-8.07,14.29Z"/>
      <path class="cls-57" d="M89.12,159.07H24.38c-7.17,0-11.66-7.94-8.07-14.29l32.37-57.3c.59-1.05,1.33-1.92,2.17-2.62-1.66-.96-3.11-2.39-4.17-4.27L17.82,29.48c-4.37-7.73,1.09-17.39,9.82-17.39h57.73c8.73,0,14.19,9.66,9.82,17.39l-28.86,51.1c-1,1.77-2.35,3.14-3.89,4.1,.92,.72,1.74,1.65,2.38,2.79l32.36,57.3c3.58,6.35-.9,14.29-8.07,14.29Z"/>
      <path class="cls-53" d="M89.16,159.02H24.43c-7.17,0-11.66-7.94-8.07-14.29l32.37-57.3c.59-1.05,1.33-1.92,2.17-2.62-1.66-.96-3.11-2.39-4.17-4.27L17.86,29.43c-4.37-7.73,1.09-17.39,9.82-17.39h57.73c8.73,0,14.19,9.66,9.82,17.39l-28.86,51.1c-1,1.77-2.35,3.14-3.89,4.1,.92,.72,1.74,1.65,2.38,2.79l32.36,57.3c3.58,6.35-.9,14.29-8.07,14.29Z"/>
      <path class="cls-25" d="M89.21,158.97H24.47c-7.17,0-11.66-7.94-8.07-14.29l32.37-57.3c.59-1.05,1.33-1.92,2.17-2.62-1.66-.96-3.11-2.39-4.17-4.27L17.91,29.39c-4.37-7.73,1.09-17.39,9.82-17.39h57.73c8.73,0,14.19,9.66,9.82,17.39l-28.86,51.1c-1,1.77-2.35,3.14-3.89,4.1,.92,.72,1.74,1.65,2.38,2.79l32.36,57.3c3.58,6.35-.9,14.29-8.07,14.29Z"/>
      <path class="cls-20" d="M89.25,158.93H24.52c-7.17,0-11.66-7.94-8.07-14.29l32.37-57.3c.59-1.05,1.33-1.92,2.17-2.62-1.66-.96-3.11-2.39-4.17-4.27L17.96,29.34c-4.37-7.73,1.09-17.39,9.82-17.39h57.73c8.73,0,14.19,9.66,9.82,17.39l-28.86,51.1c-1,1.77-2.35,3.14-3.89,4.1,.92,.72,1.74,1.65,2.38,2.79l32.36,57.3c3.58,6.35-.9,14.29-8.07,14.29Z"/>
      <path class="cls-61" d="M89.3,158.88H24.57c-7.17,0-11.66-7.94-8.07-14.29l32.37-57.3c.59-1.05,1.33-1.92,2.17-2.62-1.66-.96-3.11-2.39-4.17-4.27L18,29.29c-4.37-7.73,1.09-17.39,9.82-17.39h57.73c8.73,0,14.19,9.66,9.82,17.39l-28.86,51.1c-1,1.77-2.35,3.14-3.89,4.1,.92,.72,1.74,1.65,2.38,2.79l32.36,57.3c3.58,6.35-.9,14.29-8.07,14.29Z"/>
      <path class="cls-87" d="M89.35,158.83H24.61c-7.17,0-11.66-7.94-8.07-14.29l32.37-57.3c.59-1.05,1.33-1.92,2.17-2.62-1.66-.96-3.11-2.39-4.17-4.27L18.05,29.25c-4.37-7.73,1.09-17.39,9.82-17.39h57.73c8.73,0,14.19,9.66,9.82,17.39l-28.86,51.1c-1,1.77-2.35,3.14-3.89,4.1,.92,.72,1.74,1.65,2.38,2.79l32.36,57.3c3.58,6.35-.9,14.29-8.07,14.29Z"/>
      <path class="cls-19" d="M89.39,158.79H24.66c-7.17,0-11.66-7.94-8.07-14.29l32.37-57.3c.59-1.05,1.33-1.92,2.17-2.62-1.66-.96-3.11-2.39-4.17-4.27L18.1,29.2c-4.37-7.73,1.09-17.39,9.82-17.39h57.73c8.73,0,14.19,9.66,9.82,17.39l-28.86,51.1c-1,1.77-2.35,3.14-3.89,4.1,.92,.72,1.74,1.65,2.38,2.79l32.36,57.3c3.58,6.35-.9,14.29-8.07,14.29Z"/>
      <path class="cls-35" d="M89.44,158.74H24.71c-7.17,0-11.66-7.94-8.07-14.29l32.37-57.3c.59-1.05,1.33-1.92,2.17-2.62-1.66-.96-3.11-2.39-4.17-4.27L18.14,29.15c-4.37-7.73,1.09-17.39,9.82-17.39h57.73c8.73,0,14.19,9.66,9.82,17.39l-28.86,51.1c-1,1.77-2.35,3.14-3.89,4.1,.92,.72,1.74,1.65,2.38,2.79l32.36,57.3c3.58,6.35-.9,14.29-8.07,14.29Z"/>
      <path class="cls-4" d="M89.49,158.69H24.75c-7.17,0-11.66-7.94-8.07-14.29l32.37-57.3c.59-1.05,1.33-1.92,2.17-2.62-1.66-.96-3.11-2.39-4.17-4.27L18.19,29.11c-4.37-7.73,1.09-17.39,9.82-17.39h57.73c8.73,0,14.19,9.66,9.82,17.39l-28.86,51.1c-1,1.77-2.35,3.14-3.89,4.1,.92,.72,1.74,1.65,2.38,2.79l32.36,57.3c3.58,6.35-.9,14.29-8.07,14.29Z"/>
      <path class="cls-6" d="M89.53,158.65H24.8c-7.17,0-11.66-7.94-8.07-14.29l32.37-57.3c.59-1.05,1.33-1.92,2.17-2.62-1.66-.96-3.11-2.39-4.17-4.27L18.24,29.06c-4.37-7.73,1.09-17.39,9.82-17.39h57.73c8.73,0,14.19,9.66,9.82,17.39l-28.86,51.1c-1,1.77-2.35,3.14-3.89,4.1,.92,.72,1.74,1.65,2.38,2.79l32.36,57.3c3.58,6.35-.9,14.29-8.07,14.29Z"/>
      <path class="cls-70" d="M89.58,158.6H24.85c-7.17,0-11.66-7.94-8.07-14.29l32.37-57.3c.59-1.05,1.33-1.92,2.17-2.62-1.66-.96-3.11-2.39-4.17-4.27L18.28,29.01c-4.37-7.73,1.09-17.39,9.82-17.39h57.73c8.73,0,14.19,9.66,9.82,17.39l-28.86,51.1c-1,1.77-2.35,3.14-3.89,4.1,.92,.72,1.74,1.65,2.38,2.79l32.36,57.3c3.58,6.35-.9,14.29-8.07,14.29Z"/>
      <path class="cls-79" d="M89.63,158.55H24.89c-7.17,0-11.66-7.94-8.07-14.29l32.37-57.3c.59-1.05,1.33-1.92,2.17-2.62-1.66-.96-3.11-2.39-4.17-4.27L18.33,28.96c-4.37-7.73,1.09-17.39,9.82-17.39h57.73c8.73,0,14.19,9.66,9.82,17.39l-28.86,51.1c-1,1.77-2.35,3.14-3.89,4.1,.92,.72,1.74,1.65,2.38,2.79l32.36,57.3c3.58,6.35-.9,14.29-8.07,14.29Z"/>
      <path class="cls-97" d="M89.67,158.51H24.94c-7.17,0-11.66-7.94-8.07-14.29l32.37-57.3c.59-1.05,1.33-1.92,2.17-2.62-1.66-.96-3.11-2.39-4.17-4.27L18.38,28.92c-4.37-7.73,1.09-17.39,9.82-17.39h57.73c8.73,0,14.19,9.66,9.82,17.39l-28.86,51.1c-1,1.77-2.35,3.14-3.89,4.1,.92,.72,1.74,1.65,2.38,2.79l32.36,57.3c3.58,6.35-.9,14.29-8.07,14.29Z"/>
      <path class="cls-46" d="M89.72,158.46H24.99c-7.17,0-11.66-7.94-8.07-14.29l32.37-57.3c.59-1.05,1.33-1.92,2.17-2.62-1.66-.96-3.11-2.39-4.17-4.27L18.42,28.87c-4.37-7.73,1.09-17.39,9.82-17.39h57.73c8.73,0,14.19,9.66,9.82,17.39l-28.86,51.1c-1,1.77-2.35,3.14-3.89,4.1,.92,.72,1.74,1.65,2.38,2.79l32.36,57.3c3.58,6.35-.9,14.29-8.07,14.29Z"/>
      <path class="cls-10" d="M89.77,158.41H25.03c-7.17,0-11.66-7.94-8.07-14.29l32.37-57.3c.59-1.05,1.33-1.92,2.17-2.62-1.66-.96-3.11-2.39-4.17-4.27L18.47,28.82c-4.37-7.73,1.09-17.39,9.82-17.39h57.73c8.73,0,14.19,9.66,9.82,17.39l-28.86,51.1c-1,1.77-2.35,3.14-3.89,4.1,.92,.72,1.74,1.65,2.38,2.79l32.36,57.3c3.58,6.35-.9,14.29-8.07,14.29Z"/>
      <path class="cls-74" d="M89.81,158.37H25.08c-7.17,0-11.66-7.94-8.07-14.29l32.37-57.3c.59-1.05,1.33-1.92,2.17-2.62-1.66-.96-3.11-2.39-4.17-4.27L18.52,28.78c-4.37-7.73,1.09-17.39,9.82-17.39h57.73c8.73,0,14.19,9.66,9.82,17.39l-28.86,51.1c-1,1.77-2.35,3.14-3.89,4.1,.92,.72,1.74,1.65,2.38,2.79l32.36,57.3c3.58,6.35-.9,14.29-8.07,14.29Z"/>
      <path class="cls-80" d="M89.86,158.32H25.13c-7.17,0-11.66-7.94-8.07-14.29l32.37-57.3c.59-1.05,1.33-1.92,2.17-2.62-1.66-.96-3.11-2.39-4.17-4.27L18.56,28.73c-4.37-7.73,1.09-17.39,9.82-17.39h57.73c8.73,0,14.19,9.66,9.82,17.39l-28.86,51.1c-1,1.77-2.35,3.14-3.89,4.1,.92,.72,1.74,1.65,2.38,2.79l32.36,57.3c3.58,6.35-.9,14.29-8.07,14.29Z"/>
      <path class="cls-95" d="M89.91,158.27H25.17c-7.17,0-11.66-7.94-8.07-14.29l32.37-57.3c.59-1.05,1.33-1.92,2.17-2.62-1.66-.96-3.11-2.39-4.17-4.27L18.61,28.68c-4.37-7.73,1.09-17.39,9.82-17.39h57.73c8.73,0,14.19,9.66,9.82,17.39l-28.86,51.1c-1,1.77-2.35,3.14-3.89,4.1,.92,.72,1.74,1.65,2.38,2.79l32.36,57.3c3.58,6.35-.9,14.29-8.07,14.29Z"/>
      <path class="cls-17" d="M89.95,158.23H25.22c-7.17,0-11.66-7.94-8.07-14.29l32.37-57.3c.59-1.05,1.33-1.92,2.17-2.62-1.66-.96-3.11-2.39-4.17-4.27L18.66,28.64c-4.37-7.73,1.09-17.39,9.82-17.39h57.73c8.73,0,14.19,9.66,9.82,17.39l-28.86,51.1c-1,1.77-2.35,3.14-3.89,4.1,.92,.72,1.74,1.65,2.38,2.79l32.36,57.3c3.58,6.35-.9,14.29-8.07,14.29Z"/>
      <path class="cls-88" d="M90,158.18H25.27c-7.17,0-11.66-7.94-8.07-14.29l32.37-57.3c.59-1.05,1.33-1.92,2.17-2.62-1.66-.96-3.11-2.39-4.17-4.27L18.7,28.59c-4.37-7.73,1.09-17.39,9.82-17.39h57.73c8.73,0,14.19,9.66,9.82,17.39l-28.86,51.1c-1,1.77-2.35,3.14-3.89,4.1,.92,.72,1.74,1.65,2.38,2.79l32.36,57.3c3.58,6.35-.9,14.29-8.07,14.29Z"/>
      <path class="cls-68" d="M90.05,158.13H25.31c-7.17,0-11.66-7.94-8.07-14.29l32.37-57.3c.59-1.05,1.33-1.92,2.17-2.62-1.66-.96-3.11-2.39-4.17-4.27L18.75,28.54c-4.37-7.73,1.09-17.39,9.82-17.39h57.73c8.73,0,14.19,9.66,9.82,17.39l-28.86,51.1c-1,1.77-2.35,3.14-3.89,4.1,.92,.72,1.74,1.65,2.38,2.79l32.36,57.3c3.58,6.35-.9,14.29-8.07,14.29Z"/>
      <path class="cls-50" d="M90.09,158.09H25.36c-7.17,0-11.66-7.94-8.07-14.29l32.37-57.3c.59-1.05,1.33-1.92,2.17-2.62-1.66-.96-3.11-2.39-4.17-4.27L18.8,28.5c-4.37-7.73,1.09-17.39,9.82-17.39h57.73c8.73,0,14.19,9.66,9.82,17.39l-28.86,51.1c-1,1.77-2.35,3.14-3.89,4.1,.92,.72,1.74,1.65,2.38,2.79l32.36,57.3c3.58,6.35-.9,14.29-8.07,14.29Z"/>
      <path class="cls-9" d="M90.14,158.04H25.41c-7.17,0-11.66-7.94-8.07-14.29l32.37-57.3c.59-1.05,1.33-1.92,2.17-2.62-1.66-.96-3.11-2.39-4.17-4.27L18.84,28.45c-4.37-7.73,1.09-17.39,9.82-17.39h57.73c8.73,0,14.19,9.66,9.82,17.39l-28.86,51.1c-1,1.77-2.35,3.14-3.89,4.1,.92,.72,1.74,1.65,2.38,2.79l32.36,57.3c3.58,6.35-.9,14.29-8.07,14.29Z"/>
      <path class="cls-34" d="M90.19,157.99H25.45c-7.17,0-11.66-7.94-8.07-14.29l32.37-57.3c.59-1.05,1.33-1.92,2.17-2.62-1.66-.96-3.11-2.39-4.17-4.27L18.89,28.4c-4.37-7.73,1.09-17.39,9.82-17.39h57.73c8.73,0,14.19,9.66,9.82,17.39l-28.86,51.1c-1,1.77-2.35,3.14-3.89,4.1,.92,.72,1.74,1.65,2.38,2.79l32.36,57.3c3.58,6.35-.9,14.29-8.07,14.29Z"/>
      <path class="cls-3" d="M90.23,157.94H25.5c-7.17,0-11.66-7.94-8.07-14.29l32.37-57.3c.59-1.05,1.33-1.92,2.17-2.62-1.66-.96-3.11-2.39-4.17-4.27L18.94,28.36c-4.37-7.73,1.09-17.39,9.82-17.39h57.73c8.73,0,14.19,9.66,9.82,17.39l-28.86,51.1c-1,1.77-2.35,3.14-3.89,4.1,.92,.72,1.74,1.65,2.38,2.79l32.36,57.3c3.58,6.35-.9,14.29-8.07,14.29Z"/>
      <path class="cls-16" d="M90.28,157.9H25.55c-7.17,0-11.66-7.94-8.07-14.29l32.37-57.3c.59-1.05,1.33-1.92,2.17-2.62-1.66-.96-3.11-2.39-4.17-4.27L18.98,28.31c-4.37-7.73,1.09-17.39,9.82-17.39h57.73c8.73,0,14.19,9.66,9.82,17.39l-28.86,51.1c-1,1.77-2.35,3.14-3.89,4.1,.92,.72,1.74,1.65,2.38,2.79l32.36,57.3c3.58,6.35-.9,14.29-8.07,14.29Z"/>
      <path class="cls-90" d="M90.33,157.85H25.59c-7.17,0-11.66-7.94-8.07-14.29l32.37-57.3c.59-1.05,1.33-1.92,2.17-2.62-1.66-.96-3.11-2.39-4.17-4.27L19.03,28.26c-4.37-7.73,1.09-17.39,9.82-17.39h57.73c8.73,0,14.19,9.66,9.82,17.39l-28.86,51.1c-1,1.77-2.35,3.14-3.89,4.1,.92,.72,1.74,1.65,2.38,2.79l32.36,57.3c3.58,6.35-.9,14.29-8.07,14.29Z"/>
      <path class="cls-21" d="M90.37,157.8H25.64c-7.17,0-11.66-7.94-8.07-14.29l32.37-57.3c.59-1.05,1.33-1.92,2.17-2.62-1.66-.96-3.11-2.39-4.17-4.27L19.08,28.22c-4.37-7.73,1.09-17.39,9.82-17.39h57.73c8.73,0,14.19,9.66,9.82,17.39l-28.86,51.1c-1,1.77-2.35,3.14-3.89,4.1,.92,.72,1.74,1.65,2.38,2.79l32.36,57.3c3.58,6.35-.9,14.29-8.07,14.29Z"/>
      <path class="cls-45" d="M90.42,157.76H25.69c-7.17,0-11.66-7.94-8.07-14.29l32.37-57.3c.59-1.05,1.33-1.92,2.17-2.62-1.66-.96-3.11-2.39-4.17-4.27L19.12,28.17c-4.37-7.73,1.09-17.39,9.82-17.39h57.73c8.73,0,14.19,9.66,9.82,17.39l-28.86,51.1c-1,1.77-2.35,3.14-3.89,4.1,.92,.72,1.74,1.65,2.38,2.79l32.36,57.3c3.58,6.35-.9,14.29-8.07,14.29Z"/>
      <path class="cls-13" d="M90.47,157.71H25.73c-7.17,0-11.66-7.94-8.07-14.29l32.37-57.3c.59-1.05,1.33-1.92,2.17-2.62-1.66-.96-3.11-2.39-4.17-4.27L19.17,28.12c-4.37-7.73,1.09-17.39,9.82-17.39h57.73c8.73,0,14.19,9.66,9.82,17.39l-28.86,51.1c-1,1.77-2.35,3.14-3.89,4.1,.92,.72,1.74,1.65,2.38,2.79l32.36,57.3c3.58,6.35-.9,14.29-8.07,14.29Z"/>
      <path class="cls-33" d="M90.51,157.66H25.78c-7.17,0-11.66-7.94-8.07-14.29l32.37-57.3c.59-1.05,1.33-1.92,2.17-2.62-1.66-.96-3.11-2.39-4.17-4.27L19.22,28.08c-4.37-7.73,1.09-17.39,9.82-17.39h57.73c8.73,0,14.19,9.66,9.82,17.39l-28.86,51.1c-1,1.77-2.35,3.14-3.89,4.1,.92,.72,1.74,1.65,2.38,2.79l32.36,57.3c3.58,6.35-.9,14.29-8.07,14.29Z"/>
      <path class="cls-84" d="M90.56,157.62H25.83c-7.17,0-11.66-7.94-8.07-14.29l32.37-57.3c.59-1.05,1.33-1.92,2.17-2.62-1.66-.96-3.11-2.39-4.17-4.27L19.26,28.03c-4.37-7.73,1.09-17.39,9.82-17.39h57.73c8.73,0,14.19,9.66,9.82,17.39l-28.86,51.1c-1,1.77-2.35,3.14-3.89,4.1,.92,.72,1.74,1.65,2.38,2.79l32.36,57.3c3.58,6.35-.9,14.29-8.07,14.29Z"/>
      <path class="cls-52" d="M90.61,157.57H25.87c-7.17,0-11.66-7.94-8.07-14.29l32.37-57.3c.59-1.05,1.33-1.92,2.17-2.62-1.66-.96-3.11-2.39-4.17-4.27L19.31,27.98c-4.37-7.73,1.09-17.39,9.82-17.39h57.73c8.73,0,14.19,9.66,9.82,17.39l-28.86,51.1c-1,1.77-2.35,3.14-3.89,4.1,.92,.72,1.74,1.65,2.38,2.79l32.36,57.3c3.58,6.35-.9,14.29-8.07,14.29Z"/>
      <path class="cls-31" d="M90.65,157.52H25.92c-7.17,0-11.66-7.94-8.07-14.29l32.37-57.3c.59-1.05,1.33-1.92,2.17-2.62-1.66-.96-3.11-2.39-4.17-4.27L19.36,27.94c-4.37-7.73,1.09-17.39,9.82-17.39h57.73c8.73,0,14.19,9.66,9.82,17.39l-28.86,51.1c-1,1.77-2.35,3.14-3.89,4.1,.92,.72,1.74,1.65,2.38,2.79l32.36,57.3c3.58,6.35-.9,14.29-8.07,14.29Z"/>
      <path class="cls-18" d="M90.7,157.48H25.97c-7.17,0-11.66-7.94-8.07-14.29l32.37-57.3c.59-1.05,1.33-1.92,2.17-2.62-1.66-.96-3.11-2.39-4.17-4.27L19.4,27.89c-4.37-7.73,1.09-17.39,9.82-17.39h57.73c8.73,0,14.19,9.66,9.82,17.39l-28.86,51.1c-1,1.77-2.35,3.14-3.89,4.1,.92,.72,1.74,1.65,2.38,2.79l32.36,57.3c3.58,6.35-.9,14.29-8.07,14.29Z"/>
      <path class="cls-76" d="M90.75,157.43H26.01c-7.17,0-11.66-7.94-8.07-14.29l32.37-57.3c.59-1.05,1.33-1.92,2.17-2.62-1.66-.96-3.11-2.39-4.17-4.27L19.45,27.84c-4.37-7.73,1.09-17.39,9.82-17.39h57.73c8.73,0,14.19,9.66,9.82,17.39l-28.86,51.1c-1,1.77-2.35,3.14-3.89,4.1,.92,.72,1.74,1.65,2.38,2.79l32.36,57.3c3.58,6.35-.9,14.29-8.07,14.29Z"/>
      <path class="cls-73" d="M90.79,157.38H26.06c-7.17,0-11.66-7.94-8.07-14.29l32.37-57.3c.59-1.05,1.33-1.92,2.17-2.62-1.66-.96-3.11-2.39-4.17-4.27L19.5,27.8c-4.37-7.73,1.09-17.39,9.82-17.39h57.73c8.73,0,14.19,9.66,9.82,17.39l-28.86,51.1c-1,1.77-2.35,3.14-3.89,4.1,.92,.72,1.74,1.65,2.38,2.79l32.36,57.3c3.58,6.35-.9,14.29-8.07,14.29Z"/>
      <path class="cls-43" d="M90.84,157.34H26.11c-7.17,0-11.66-7.94-8.07-14.29l32.37-57.3c.59-1.05,1.33-1.92,2.17-2.62-1.66-.96-3.11-2.39-4.17-4.27L19.54,27.75c-4.37-7.73,1.09-17.39,9.82-17.39h57.73c8.73,0,14.19,9.66,9.82,17.39l-28.86,51.1c-1,1.77-2.35,3.14-3.89,4.1,.92,.72,1.74,1.65,2.38,2.79l32.36,57.3c3.58,6.35-.9,14.29-8.07,14.29Z"/>
      <path class="cls-75" d="M90.89,157.29H26.15c-7.17,0-11.66-7.94-8.07-14.29l32.37-57.3c.59-1.05,1.33-1.92,2.17-2.62-1.66-.96-3.11-2.39-4.17-4.27L19.59,27.7c-4.37-7.73,1.09-17.39,9.82-17.39h57.73c8.73,0,14.19,9.66,9.82,17.39l-28.86,51.1c-1,1.77-2.35,3.14-3.89,4.1,.92,.72,1.74,1.65,2.38,2.79l32.36,57.3c3.58,6.35-.9,14.29-8.07,14.29Z"/>
      <path class="cls-36" d="M90.93,157.24H26.2c-7.17,0-11.66-7.94-8.07-14.29l32.37-57.3c.59-1.05,1.33-1.92,2.17-2.62-1.66-.96-3.11-2.39-4.17-4.27L19.64,27.65c-4.37-7.73,1.09-17.39,9.82-17.39h57.73c8.73,0,14.19,9.66,9.82,17.39l-28.86,51.1c-1,1.77-2.35,3.14-3.89,4.1,.92,.72,1.74,1.65,2.38,2.79l32.36,57.3c3.58,6.35-.9,14.29-8.07,14.29Z"/>
      <path class="cls-1" d="M90.98,157.2H26.25c-7.17,0-11.66-7.94-8.07-14.29l32.37-57.3c.59-1.05,1.33-1.92,2.17-2.62-1.66-.96-3.11-2.39-4.17-4.27L19.68,27.61c-4.37-7.73,1.09-17.39,9.82-17.39h57.73c8.73,0,14.19,9.66,9.82,17.39l-28.86,51.1c-1,1.77-2.35,3.14-3.89,4.1,.92,.72,1.74,1.65,2.38,2.79l32.36,57.3c3.58,6.35-.9,14.29-8.07,14.29Z"/>
      <path class="cls-92" d="M91.03,157.15H26.29c-7.17,0-11.66-7.94-8.07-14.29l32.37-57.3c.59-1.05,1.33-1.92,2.17-2.62-1.66-.96-3.11-2.39-4.17-4.27L19.73,27.56c-4.37-7.73,1.09-17.39,9.82-17.39h57.73c8.73,0,14.19,9.66,9.82,17.39l-28.86,51.1c-1,1.77-2.35,3.14-3.89,4.1,.92,.72,1.74,1.65,2.38,2.79l32.36,57.3c3.58,6.35-.9,14.29-8.07,14.29Z"/>
      <path class="cls-51" d="M91.07,157.1H26.34c-7.17,0-11.66-7.94-8.07-14.29l32.37-57.3c.59-1.05,1.33-1.92,2.17-2.62-1.66-.96-3.11-2.39-4.17-4.27L19.78,27.51c-4.37-7.73,1.09-17.39,9.82-17.39h57.73c8.73,0,14.19,9.66,9.82,17.39l-28.86,51.1c-1,1.77-2.35,3.14-3.89,4.1,.92,.72,1.74,1.65,2.38,2.79l32.36,57.3c3.58,6.35-.9,14.29-8.07,14.29Z"/>
    </g>
  </g>
</svg>